<mxfile host="app.diagrams.net" agent="Mozilla/5.0 (Windows NT 10.0; Win64; x64) AppleWebKit/537.36 (KHTML, like Gecko) Chrome/130.0.0.0 Safari/537.36" version="24.9.1" pages="2">
  <diagram id="M1st7Y16XMBo2JD_jG1h" name="第 1 页">
    <mxGraphModel dx="922" dy="535" grid="1" gridSize="10" guides="1" tooltips="1" connect="1" arrows="1" fold="1" page="1" pageScale="1" pageWidth="827" pageHeight="1169" math="0" shadow="0">
      <root>
        <mxCell id="0" />
        <mxCell id="1" parent="0" />
        <mxCell id="reP9Xs6ON48cAvPmdDRv-41" value="" style="edgeStyle=orthogonalEdgeStyle;rounded=0;orthogonalLoop=1;jettySize=auto;html=1;fontSize=18;endArrow=blockThin;endFill=1;strokeWidth=2;strokeColor=#666666;" edge="1" parent="1">
          <mxGeometry relative="1" as="geometry">
            <mxPoint x="620" y="394" as="sourcePoint" />
            <mxPoint x="620" y="430" as="targetPoint" />
          </mxGeometry>
        </mxCell>
        <mxCell id="reP9Xs6ON48cAvPmdDRv-1" value="" style="shape=image;verticalLabelPosition=bottom;labelBackgroundColor=default;verticalAlign=top;aspect=fixed;imageAspect=0;image=data:image/png,iVBORw0KGgoAAAANSUhEUgAAAUAAAAIICAYAAAAfczc2AAAAAXNSR0IArs4c6QAAIABJREFUeF7tnQe0LUWVhr8ZxZwjmDGiGDDnjIoRBXPCSFBBgjiGwYQ5AWIOYBbFiJjjGJkxKyIYUBQxoQOKOcys772+cN99997uc06HXd17r/UWum511d5/Vf+numqHfyNlHgS2BW4OnKd6eCvg6sBVgcsB516l0z8BJwHfB44Hflm1+SPwJeC78yiSzyQCicD8CPzb/I9O4kkJ7mbABYG7AQ/r2Op/AYcDHwH+F/gy8OeOx8zuE4HJIpAEuOnUi8e1gcsDbwAuFmBl/AbYvdo5HhtAn1QhERgNAkmAcPZqh3cw8OACZvZIYA/gNOCfBeibKiYCYRGYOgG+Ebg3cN6wM7S2YmcAb63IsED1U+VEYHgEpkiAVwbeW11auPsrXf5RXao8AMhP5NJnM/XvFYEpEeCewK7ANXtFuN/BJMDXAof2O2yOlgiUicAUCPBxwL7A1mVO0Vxa627zkiTCubDLhyaEwJgJ8L7As4GrTGg+V5r6PeBJwFETxiBNTwTWRGCMBHjD6nJAp+SUjQh8BXgM8NUEJBFIBM5CYEwEaPTFQ4FX5wSviYAk6Blhus/kIkkEgLEQoLu9E3JGGyPgscAPG7fOhonASBEYAwE+EzhgRGTex1L7P+AJwEv7GCzHSASiIlAyAar7ycClooJbgF4/B64A6EuYkghMDoFSCdCQtUOAi0xuxto3+FfAPsA72u86e0wEYiNQIgH62fZ44N9jQ1uUdn4SP61yGypK8VQ2EVgEgZII8JzA84G9FzE4n10XgRdXfoN5S5wLZRIIlEKApqV6J3C7SczKsEYeA9wR+MOwauToiUD3CJRAgJcAvpGXHd0vhmUj/A4waYRJWVMSgdEiEJ0ALwCcUmi6qtIXzd+qSyZT9qckAqNEIDoB+hl2vlEiX4ZRf1mjvkkZ2qeWiUANApEJUB+/S+cMDo6AvoKXGVyLVCAR6ACBqAT4rao2RwcmZ5dzIPA14AZzPJePJAKhEYhGgOrzPmDH0KhNU7kjALNOpyQCo0EgGgE+F3jyaNAdnyFPBZyjlERgFAhEIkBTWb1pFKiO24idq5oq47YyrZsEAlEI0HT1J04C8XEY6eWU7kkpiUDRCEQgQBOZ6msWQZeiJ7Nn5Z033WRSEoFiEYhAOi+qctMVC+JEFfcs0DPBlESgWASGJkDTMGVSzmKXD7sAby5X/dR86ggMTYCnAhed+iQUbP9vAWO1/1WwDan6hBEYkgA/DNx5wtiPxXSz9Nx/LMakHdNCYCgCvCtw9LSgHrW1/pB9dNQWpnGjRGAoAvwpcNlRIjpNo74NXGeapqfVJSMwBAHuAbyyZNAa6P53wH+ejZm6/xzA2Rs8V3ITyxS8rGQDUvfpIdA3Aeo7ZpJN09uPQUwcenpVk/jRVZW6Ort0In4jcCXgQsCF6x4o5O/OaxapKmSyUs2NCPRNgG8FHlQ4+O7qXgu4k21L7O+RIyj09H7gXm2Bkv0kAl0j0CcBmlPuZ10b1GH/XwGMgzVPoVXU2pazVfkPP13tDtvuv4/+/Ox3R5tZpPtAO8dYGIE+CfBQ4HELa9x/B+7OXgj8qMehrwY8o1D3EvHarUescqhEYG4E+iLASwFmFi5JjHB4DvD9AZX2ZvWAauc5oBozD20VP52kUxKB0Aj0RYCPAV4RGolNlXsU8IZA+poqzIuTvuZrUdMfDLxt0U7y+USgawT6eKF0Ayml0PZngLsEzXJiyJmksn3Xi6Kl/rcA/tFSX9lNItAJAn0Q4MOAwzvRvt1OSzm7em8hN61G+xjumJIIhEWgDwL8ULWrigqCN7oHA/tGVXAVvfwcfkhwt5mPBJ/3gqY7Ve0Kga4J0OgHXSMiS6l1Lp4P/EdkYKuawpk0NfgkTVm9rglQ95H9AwMsgahjqRId370A3Z9SEoGQCHRNgNaTvV5IyzfunkomvyVYTShrYtmI8k3guhEVS50SARHokgCNbIh6C+htqmdoXUR0DLGy3hHYafq8wJ+GACXHTATqEOiSAKPuTCQ9s1AbvD8W2bJyNNflKJroyP3saEqlPolA1zvAjwN3CAaz/ogXHxn5LUF81SorTTDIN/gu6hidkgiEQ6DLHeCfgXMFs/gDwD2D6dSmOh8D7thmhy305Y/O2HMhtgBTdjEEAl0R4PmB3w9h0DpjngGo15jlPNXu1gSskSRjgyPNRupyJgJdEaBOsDsEw3kqdWyfXmWSiQT/u4H7RFIodUkERKArAvwGsF0giM3hN6UaJL+qylVGmYJMlBplJlKPTRDoigB/AXgzGUVeBZiRZipyGPDwQMaeBFwhkD6pSiKwAYGuCNC08V31PevU6fYS0T1kVjtmbR9pDrpca7Piku0TgTMR6IKkosX/mth0lwnOuXV67xTIblPlnxZIn1QlEehkl/YE4EWBsH0gYKTE1MQkqm8KZPTTgAMD6ZOqJAKdEKCp702BH0Gm+vm7hL2hiIYkRpCMC44wC6nDJgh08QlsiJn1biPIkcB9IygykA5HAXcfaOyVwyYBBpmIVOMsBMZOgGZJMdnpVOUgYO8gxh8LXCuILqlGIrABgbYJ0DoQ7gDNABJB7gF8MIIiA+mwE/CegcZeOaxHI9aGTkkEwiDQNgFGC8U6J/C3MGj3r4g/SFHst1j6+fqHIEdMBNZGoG0CvEC1A4zid9e2fSWupSg5D6d+IVXi2hm9zm0ThJcfUfLsWYskWlKAIRbU6YA/TBGk7fUWwabUoWAE2l6QkQjQeOSo6fj7XDJfAm7a54DrjNX2egtiVqpRKgJtL8hIBDh1F5ilNfnOQK5Aba+3Ut+71DsIAm0vyEgE+Hrg0UFwHlINcXjkkAosG7vt9RbErFSjVATaXpCRCNDi4ZEyogy1Rg4HHjbU4CvGbXu9BTEr1SgVgbYXZCQCNCnrXUqdmBb1jhQN0vZ6axGm7GqKCLS9ICMR4NSSoK61fo8HrhZkcbe93oKYlWqUikDbCzISATonbdtX4jxHSoiQ81HiChqxzm0vSIsO6QcYJQNJ2/aVuBSiOEJLxEampCQCYRBomyAsgykBRimHuTXwkzBo96/IVsAp/Q+76oiui4sE0SXVSAQ2INA2Abrzc6FHKT+5G/DaCc/1k4DnBbH/ROBKQXRJNRKBTgjQTiPlA5QAXjDhuX4ZsGcQ+zMfYJCJSDXOQqDtHWA0AvwpcPkJT/gPA+26kgAnvBCjmt4FAX4WuHUgg7uwMZB566oS5QJEJV0Xty0FuNRzGgh0QQ43Ab4cCD7PwJ4SSJ++VLEgkoWRosjdgA9FUSb1SAREoAsCtN9IO4+vA9ef4HSbgn7bQHZ3tdYCmZiqlIZAV4vyL4DZmKPI1QEjIqYiVwB+HMjYzM0YaDJSlbMQ6IoATwCuGgjoqcUFfwu4diD8jwmUkzAQLKnK0Ah0RYAmI91uaONWjH9B4PfBdOpCHbNg/7WLjhfo8/3AvRZ4Ph9NBDpBoCsC3B14VScaz9/pFMoyOp+/C1SXeWm2Hg/ok5iSCIRCoCsC1MhIFyFLoBuKFaVmSRcL4XLASV10vGCfXa6zBVXLx6eMQJcL09AnY3EjieR30aDk3AZO/wSiVORbskdC9lImJREIh0CXBOi5z47hLIbXAbsG1GtRlSKFvS235VBgr0WNy+cTgS4Q6JIA7woc3YXSLfR5FcAwsbHIzYEvBDXmnsAHguqWak0cgS4JUGgjfpKp178qN50fjWD+9XH8NnD2oLZ0vcaCmp1qlYBA14vzLcCDgwKhq84tgT8G1a+JWjqbW/c3av3j/PxtMovZZjAEuibARwBvGMy6+oHfB9yn2qnWt47X4hPA9vHUOlOj+wPWJU5JBEIi0DUBavSfgHOHtH6jUlZNkwT/FljHlaqZePa/AM/+okqGv0WdmdTrTAT6IMB9gJcGx1wnaT+HTwuup+oZ0WJuveiuJe7+rUmckgiERaAPAvSQ/riwCJylmBc2US8SlrSU/Iz0iObrt9r0Ti0BRQFLPFVciUAfBOiYXwt8UL8cE2+Hnwi8JOBSMbV9KeFk3q5fOSCGU1XpioB5Oi8OXAD4DfB94L8LvwRceD77IsA7Ax9eWNv+OvgKsBNgcfWhxfA2/SmvNbQiM4x/3eozfYZHsumcCBxUZf7xXb5k5d4175eM4atnVHNnGVPPcU0obDbvUUpfBOg4ghmlXnCTyXQxHAY8qknjjtpY0c7x+5qntsxwnt1Np7SLwJMBnfg9Xrhxz+vCy8x3VfNqhvVftWvaML31+WLdtPJZG8bS+Uf1l/BZwIHzdzHzkwcATyvgTHI1w8xCXcKZ78yTMsAD5nQ0jdgO1SfsACqsOaQ/cK+uEg3r71mk9EmA7grcBfY5ZpuT4o7w5RWJ69vWZrYbMbkfcB3AUp6livkWL5y7v4Wmz9t9i4p5Dm3ijlLkY4CBD+8oaf77JqOtgFNKmdEaPb2QMOHDL4HvzWHTNatDaSNldBkZg/jyRkzHFR3bc1U7PNeTN/2li8c2nwN+EN2QvglQPH4BbBkdmDn085PgJ8DegH6FK8UM2QcDlynEjWVWCAwtjBqSN6stfbV3t/wA4BV9DdjzONbldjfrexFShiBAgWjz8zEksBNUSt/EnNdmEy9WbwYe1Kx58a08+nKXG+5ibCgCjFa0p/gVNrABujiZ/iylHoFPArcIVjWxXut2Wrgj9OjnD+10t3gvQxGgFyK/Hcl5x+KzUHYPFmC6EGAp1JS1EdilOgIRq6nLV4G7V+fng2IxFAFqtLeeRwxqfQ7eBgKeYeU8ro2kMea6UHkWlnIWAh6X6OdqAbXBZEgC1OhPA7cdzPoceFEEjFDxlzxldQQOyXIAtUvj+Mrn9cjalh00GJoAjUv8WRWf2IF52WWHCPjpq9uLbkApmyJwl+pz16iNlGYIvGAIH9ihCVBojLl9TzOMslUgBPy0i1qHZCiYPNu+W+UfOpQOJY9rdnYviEz31otEIEANfS5gnGNKGQh4drNbGar2pqVJf82yct7eRhzvQB6rfKgPt6ooBOhUmpF5i/HO6Wgsy0zPm0+l6abGUGAr0iK1fK0XJJ36DkYiwPNMPTdZpNW3hi5mBLkI4PlfykYEdG95faGJK6LPoRlnOo0ai0SAToZJNI2rnTefWfQJLVk/s+JcDTixZCNa1n3foMlzWzZz0O4Mnb18lUildUWiEaAG+v1voaKUWAiY1PajsVQaVBtvLc0entI9Au4Eb1Ol3mp1tIgEqIHRy2m2OgkFdJblLTedpDdWn74FTN1oVDR8znDLz7dpUVQC1MbHAcUmWmxzkgbuy9RGkWs79wmPbi5vq6KY+hw3x9qIgBdwBk58sS1AIhNgkmBbszx/P7sC3salbPRQMAPyWHI3ljyn1we+3oYB0QlQGx9Z3bK1YW/20RyBjPE9CyvfE8/7nt8cvmzZMQKtJN8tgQDFccf0ru94OW3avfVbjul1xNiDeQZqqveUWAics/IfnlurUghQA82mMdryfHPPYPsPXrWEVObtm71mj56B5jFAj4DPMNTpVSq2GR7ZtGlJBKjmFg2ymLPMn9IuAjo53wwwWW3KRgRuVWUsKqmc69Tmzk3R3BmlSiNAJ9cMMt+unCOnNtld2SvpmcFkLAWr2sLJAk8Wpk+JjYBla58+j4olEuCSnYYfeUGSshgC7wbus1gXo3w6yzaUNa0PrcpyzqR1yQSooWaV1inVgispsyFgRt57A++d7bFJtH4K8JxJWDoeIy2xcbFZzSmdALVXo02dc6NZjZ9wex1JdXMxGW3KpghsAxwHjOHdmNrc/m9Va/ufTQ0f0yRbYNzdYB5Yrz37LgzPS/yXsjkCrh1fovMnOMUicAfAynuNZEwEqMHWW7X03qXyF3yT+fdz112NJQlT1kbAWr0PSYCKR8DsMfJArYyNAJcMvijw83SXOXP+vcnMz931X4dtgWNr35hsUAICjc8Dx0qATpKfM6bQabwdLmFmZ9TR211Ti5ltO2V9BHQB2ipBGg0CdwI+XmfNmAlwyXZviCUCP2+mIgbs695iCqGUegQyB2U9RqW1OKOKEln3QmQKBLg0ce4I96xqkF64tNlsoO+vq8sNM5Y0vgVr0O/Ym5wPOG2kl2cnVDH0JhT1HHiluDnw099Y5zFmYdc5et0LvykR4PLJN7uxPoQ6T5aOgTu991d56sZOVl3Y5wtyQBcd99ynJSUPq+rqmLXGONlZxPfghpV7lK5AO8zycOC2FwdOXUu/0l/+NnDX6fWOVbKFNvrrow8ztXwD2DvP9xaC2y+B3y3Uw7APW5zqY8Czga90oMozqjrH5t8rVfxRWDNiLAnwrGkVC4vcPAi4erDoEhe6nzPfBfR37LRUYKkrfQ69X1WVXpzj0UEf+SXwJuBJPWmhF8HRwLV6Gq/tYcwfsOp5eBLg2lB7PmIOOD8F+g61k/DMzvJ94J6ACz6lXQQ8E7bSXUmivu72njmQ0mZhsiqgt+UlcYeeEOYU3UxKMmKgOecQYK+eBzes76trHFz3rMpoh/PHzcP/UuR44AZBamdvXVh5VH84LGmQBDjHah+CAK8LfHMOXfOR5gj8Zp7g+ebdt9oyYoZugw1eA+zcqqXddWaY7MNXdp87wHrAkwDrMSqthX6h7ypAacMXJRh3f1FlP+DFUZVbptfJwGWTAGefqSTA2TGL/oSXSdcIruRbgD2CfPLWQeUtsUc20WWzGOHcAdZPWRJgPUaltdBR3MQZUUXy26WwM+DLFBBvrkP4lssnPQmw/hVIAqzHqKQW0V1f1ryxLADk81bpxFa9cAigvzHx+n7qYbFBkgDrZyUJsB6jUlq46zPfn35hEeXLVWGqiLo11UnyMwrl3E0f6LmdKeE8AkkCbAh8EmBDoApodqGKACOq+iPgyhEVm0Mnk5J+NPAxw5kbv9wB1s9uEmA9RqW02B94YUBlTVSgs/2Y0pa9r3LiDwg3lwB0g8pP4AazkwTYAKRCmhhCGPFH/15VQotCYGyspjV7b924dX8Nz/SzjbgY+oOh2UhJgM1wit4q6i3le6rqfNHxm0e/q1ThnPM82+UzZ5aCTQKshzkJsB6jElpsV2XQiaarcbVjjvV+LvDkaKAvfQkkAdbPTBJgPUYltDBR7G7BFH0i8KJgOrWtzjmA3wesz6Mj/PeSAOunOwmwHqMSWqyWEXlIvc34o9/cFLJ3m9HIS5FIsuHcNQmwfkqSAOsxit7iglXa+0h63hc4MpJCHeqi/+Xfg7nF6BHw4iTA+llPAqzHKHoLczp+JJiSFl+3cM9U5K5VUtUo9uqsfaEkwPrpSAKsxyh6i2ifYEdUtTei49amfpcGzMgSSf4tCbB+OpIA6zGK3sKiR+tWB+vZAG+kv9XzmBGGi5aE4vJJgPXLIgmwHqPoLX4CmAopingz6pnY1MQSnMcGMvqhSYD1s5EEWI9R9BaRboD/B7hxdMA60s8azCajiFKDeJ8kwPqZTgKsxyh6i0gEaFbiaGdhfc2ffCMBeisfQZIAG8xCEmADkAI3uWSgSAuJ2Iw0OgZPVUzvf7Ugxh+SO8D6mUgCrMcocotbAp8LouAfKwIsrRxnm/DdFvh0mx0u0Nd/JQHWo5cEWI9R5BYPrYqIR9DxtCojcQRdhtQhypHEqUmA9csgCbAeo8gt9gYOCqJgEuDGiYhCgCFzowVZq2eqkQQYbUZm0ycSAfopHjE/3myILt7ao4DzLN7N4j3kDrAewyTAeowit4hEgM8B/jMyWD3pZnU2szIPLkmA9VOQBFiPUeQWkQjwkcBhkcHqSbefrlakvKexNxkmCbAe9STAeowit4hEgA8G3hYZrJ50CxOZkwRYP+NJgPUYRW4RiQAfD7wsMlg96aYjuMkRBpckwPopSAKsxyhyi0gE6Oevn8FTl99FcQdKAqxfikmA9RhFbhGJAH8GXC4yWD3ppiP42Xoaa91hkgDrZyEJsB6jyC0eC7w8iILpB7hxIqL4Af4rCbD+zUgCrMcocou7A0cFUTAJcGNdZuszR5AfJAHWT0MSYD1GkVtcHTguiIJ/q86+/hREnyHUeDGw3xADrzLmu5MA62ciCbAeo8gttgAknihy4YAFmvrExnRYZsSJIE9JAqyfhiTAeoyit4hy5iRODwTeER2wjvTzx0gCtBxoBMl8gA1mIQmwAUjBm/wZOFcQHSVjy0ROUdz5SYBR5PG5A1x7Kjw7ugzwGMCqYn2Kh/avB/4CnAj8qM/BRziWO677B7JrS8B42KnJc4EnBzL69kmAG2fDzBR6pls454OBdgvL18opwL2BUwH9ySTHlGYIRCuLeSvg881UH00r/f6iJYLdYqoEqN0WZjE77UfZeDVfmlhi0GzHX60WVqRzrmhY7gi8P5hSJa65RSC0FOg3Fumgg2cnVxfYX6GPANcGLj6SsxiJ8DdVmvEHdbBIxtClNSisRRFJbgd8JpJCHevyPWCbjseYpftPAneYwq+QpOd5mqUIPdcbs7gL/E71ebVXIIfToTGP5Hy7hMXHgTsNDUxP418H+GZPYzUdxjPhd46ZAB8GuCPavikiI2zn5/0bgHeP0LZZTdIZOtoP4C2AL85qSIHtj6zOryOpfmePv8ZGgPoZPR0w/jOKs2WESf8F8CrgwAjKDKTDHQB3XZFkw2dYJIU60OVmQUn+AsAfxkKAZthwx/fMDiZwTF0ag7k/8Fbg12MyrIEtkULilqvrDfUHGuhfapNPAZ53RpLTlzZIpRPgVYF9gN0joVuILs8HXg2cVIi+i6oZLSRuyR5z4+lvqrP22MT6JxG/Ojwae7tgl0qAlwQMqjbFeMpiCEiCT6tukhfrKfbT5/STB5AIo8kYP4W3AvRdjSjXAo4tkQANITLB5Usiolq4TmboOHikN8eXAn4efH7cLVk1bgzixuqHwBWDGiOPbPCbLWkHeA3gC1FSaQed2EXV8nNMnzmjTcYi+wIvjJKBeB1Q9ef0YH4MqbKsf6yTfkR5H7DTkmIlEKBhav8DbBsRzZHq9G3gpoW/jP7KnwBcuaA5kgRNl+WneqkS8dJjOZYXWZ6QIToB6sxrAHWU9DmlLsp59DbW+HGVH+E8zw/5zAHV5ZhkUpr4abZ1oZdT7wLuExhwf1hcE/7QbJCoBKgPn78k1wsM5lRU+xJgLG0Jn8XnAF45ksprZx7UF7LQ3gQ8NLiurg19hM+UiAT46Kp2apT8bcHntBf1PJd6VPBEnrcHvE0dkxgqF815eyW+5wcOBXYJDrxZwfUE2EQiEeD5qlswP3tTYiLwmuqzOFJaI49HzDH31JiQLazVK4A9A1VSW26Q5/IfqtLILWxoxx2YiWazL8ooBGiCSMO1UspAQB+vXwZQVQdi/bkuGECXLlXQRiNGIiXGNbX/27o0uuW+r7DauWoEAtw5g/Vbnup+ursj8Il+htpsFNetEQZj3fWtBas2P2vgxKJ+8v4AMBihFPk6cP3VlB2aAJ8H/Efgy5hSJngoPT2u8Pynb4mWW65P+73JdPd1dJ+DVudnOpPrRjI0b8xq+iOAw6MRoNtnJzKlbATeCDy8JxO86DChbcRwtp4gOHMYj4yOAHT07lJMYqp7i7fSJYpp0Nb0IR6KyXVsvmGJaKbOqyLgfJpwtivx9s4dz5RzO66FrT5tuox9GXhGSxNwWeAFwE0qn8SWuh2km4dU2Y9WHbxvAtS1xYI+FxsEihy0SwROBnxx2hZTKZm+y4uXlHoEvluVR/g7YNjXV4C/rvOYuN4NMNT0otVXmVnUxyC1P8x9EqA1ONy2jwXcMSyQtm0wpZOe9uu9cLOM+dIqomOWZ7JtIrCEQO1FXV8EGDk1Ti6X9hGQBE9boFuPRzy0zvjvBUCc+KMeC9QemfRBgO78ppZ9eOJrb4P585CgCQysmTulamm5VrpBwGTJuuusK10ToJlcvLZ3YadMD4Fzz1DA3bVyRoEuFtOb1fgWNw4h7JoAzS9XYkaO+FNchob++Jnjrk48qzlqtVjNugfz74nAKgh4z2D9m1rpkgDNKVeq71AtcNmgMQJreuFXPZjAQP++lERgUQR0CfK+4TdNO+qKAL1+N3YxJREQgbeskirJcpCvKySQPmexDATMRThTDewuCPCgqm5HGZClln0hYL1m41gVY1qtgZGSCLSFgF+c15m1s7YJ0Fx+r51ViWw/GQRcH8Z/pyP8ZKa8F0N/PG8BpjYJ0NoLtdfOvcCRgyQCicBUELB0w80A8/3NLG0RoCns/3fm0fOBRCARSAQWQ2ChjERtEKB9mBcub/IWm8h8OhFIBGZD4DHAq2Z7ZNPWbRCglcOGyAm3iN35bCLQFIFfAUYVnN70gWzXCwIvAfZftFTAogRoBonvZKRHLxOeg/SPgDfXlmW1BooZkCOUAegfhXgj6jt6V8BCRwvJogR44gjyhS0EYD48SgRMJbUdYDLN5WJdieMzYmXQOXdOTJZhpcKFZRECfGG1BV1YiewgEQiEgBXmXl7FJa+mlhmSrZWcIZ79T9q3KvLzB6oVmZcArwKckIHrrcxBdhIDAePWnwJY+rNOdPn6dEcJYOvGnurfPwbs0Lbx8xJgfvquPhNuy39fJX41H55nFOcAdBO6VJUYwAwpKbEQ8EzJ0LxZxOpoX60uSGZ5LtvOjsCrgT1mf6z+iXkI8O5V5o763sfb4odVwPUpgAflpiGfVSzSfEB1uG7ORHcVKf0i8EfgSdUn77wjuxauNO/D+VwtAlaN9LitE5mVAN296PBskZopiWmdTq1unizJ2JWYPedD1fnS+boaJPvdgIDzeek2bhKBzwG3TFxbRcBzvkcBb2611xWdzUqAXwPcuUxFTgKuVrlBmGqnLzGfmf88avAlTWkXgUcClvNslDOuwdC+R7epzgUbNM8mDRCwwJaFtjqVWQjQ268udz+dGjpj52aUtaLUInUtZhxyzeYWolaft7fV4YT7sVjTdTtcx9YwMSY16xbPv8gsvu6RQluFtdbVZBYCdGKgMyAqAAAgAElEQVT1jRqr+Jl7L+CzQJ+7vaZ4WlLUcENzLeYL1hS1s9p5tOD59f/N/uhMT3jp5Y/nzKmZZhplfI2dF4sY+f61tTOvRakpAd608n2q7bDABmaT8KzhbQXpbrFn045JiinrI+BOYkdAN4o+5R7Ae4Cz9zlooWO5udq9+uHo1YSmBPgF4Oa9atbPYIcBuwbd8dUh4Ny9HnhEXcMJ//2jwC4DViU0fM45svB4yuYI+KX1BODgocBpQoAe7o6tTOGxgLuobw4FfIvj3g44BLhmi32W3pWfU/sBZiePIG4e/LE1qULKRgTckfvjZLKJwaQJAb63OhsbTMkWB/bF+Dxw6xb7jNLVWHfps+JrESY/eTu/QZxVscql497AlJ3hPR99QOXhMAeE7T5SR4AGf5tuegxiVMYtgK+MwZg1bLh2dQs5xTrMZmz5YuWOEn2K3VR4s28t5KmIQQMWvf9RJIPrCNBPKzOuli6+HDpv93a7NCBgkp9krx/hVMR59Wa8pPn13TPVlpEoYxbP+bYGfhbRyDoClDhKf5EMVboJ8NuIE9CRThYdcqfrDn7sokOzP9K6MZUoRvx4jvuBEpVfR+efVLvxn/bgejQ3dOsRoAHIu83dc4wHDXK/70TrlZiuyZdqzCFadwa86R2DuHP3iMYdoXaVKO7A9bU0SXLIHd9KUNcjQM/+St5BWKfEA2ezs0xVzFgiCd52ZABok6UYIl50tAG17+UDgZ2qf2302VUf+tGasMBEsR/vapCu+l2LAD1MN/lgqWLWWH9Ns1IdXLTyrh+Dm4znSZ6bPa3UhTmn3tZTdjOyd5CLE4nuy4CXORYkL1bWIsCSw948tzSQOus3nLUsja00ZVfJWXzc7WnHwnUgin1bz1LcxK2mT7tElcfQ8LuuxNhcCc8fn1fOW3+3K+UW7XctAvSz0c+n0kTy8+zrjNIU70FfycMLoRLF45grlqh4jzpfoHL8vvyyImVeYG7Jxq+A81YZ3H3n9Yf1XbHSnRuF5RXvfHdMvHFEj7oPNtRqBFiq758HsKauKvUl72MRSII/KLSUgS94qTe9fcxtjjEHAqsRoOdmpnAvTf67cncpTe++9dU9wV1CaWLYoqmsUhKB1hBYSYClZnw2UesNWkNl/B3pjV/aJ6X+ZCUS9/hXU8EWriRAd34l3pwaZO6nXUozBDwq0G2hNKlz3C/NntR3YARWLigDyUv7zLCMobnEUmZD4N3AzrM9MnhrbyEfO7gWqcBoEFhOgCZubK3gcE8I/aIqN9nTcKMbxgD1rQqyyhIFWZC8oAmLrupyAizxs+h+wLuigxxYv8cArwis30rV/IGWAC1nmZIILIzAcgI0aaM55UoRbzPNMpGyGAJWvrvcYl30+rSJHqaU2KJXcKc22HICNLTFrCmlyJgC4YfE3HoorxtSgRnHPjzLAMyIWDZfE4HlBNh1taw2p0Gn59LTdLWJx6J9GeZUUhLVvA1edMbz+Q0ILC2k0sKkTHRg9t+UdhDwLLWk0CfdtZaHb7WDQvYyOQSWCNASfiUlZDSu8U+Tm63uDDbuu6S0YWYrMudcSiKwEAJLBFjSDkD/tfssZHU+vBoC7gBdByWIvqpjqOhXAtaj1nGJAC1Rd8dCLNUNQn+wlHYRKCkH5JurkortIpC9TQ6BJQIs5QLEbCASoIf2Ke0icC7gz+122WlveRHSKbzT6NxF5L9Sqmll0oNu16XnaqVkjvbWupQf7m5nLXufGwHJ7xpVtuC5O+nxwfzV7xbskpJh6LxdROGdbqcse18EAQnlYYDOpdHFVOglp3SPjq/6WaLRbEDGhUcXC4sXV4QnOqhT008CtNDKQQUYbvGV6xSgZ+kqlpIQ917A+0sHO/UfFoGSCDAzAvezVoyzvUg/Qy00ShLgQvDlwyIgAT4DeHoBcDwSOKwAPUtX8UHAWwswYk/g5QXomSoGRkACLCUxprG/pdxWB57yRqqVcLuq4/YDGlmTjRKBNRCQAK0X601wdMkb4P5mqAQCtPrfVfqDJEcaIwKSisklzxPcOGuVllinODisa6qnw7k3wtElfxSjz1Bw/ZaKJAdXk+OAbaMrOSL9SkmSmgQ4okU3hCmlEOBngNsNAdBExywlIiQJcKILtC2zSyFAU3Xdsy2js59aBL4BbFfbavgGSYDDz0HRGpRCgDq86veV0g8CSYD94JyjDIxAEuDAExB0+CTAoBOTarWLQBJgu3iOpbckwLHMZNqxLgJJgLlAVkMgCTDXxSQQKIUAPwVsP4kZiWGkiSeuFUOV2h/wAtRMFaMiUAoB6pZhyvaUfhD4MXCFfoZaaJS8BV4IvnzYBWSevS2CQ2GKphIylASHsbF61ly5YOPWwzQ0XK+kWsbDoJSj1n5C/AC4cgE45a99f5NUQiyw2aDNCp2SCMyNgKSik7F1gaNLEmB/M1QCAb4P2Kk/SHKkMSIgqTwHeEoBxu0IHFWAnqWreHvgkwUY8UTgRQXomSoGRqCkjNCfB24VGMuxqPY9YJsCjMmM0AVMUnQVSyLAvAnuZzVlTZB+cM5RAiAgAe4KvCaALnUqmKPuAnWN8u8LIWBeSAnwHAv10s/DdwU+3M9QOcpYEZAArwdYcLwEORfw1xIULVTHiwKnFqK7ngs/KkTXVDMoAks3qyXc+gnhBwu5sQ463bVqvaegm9X0CqidzmxQh0BpBKiD7oXrjMq/z41AKT+EGpgEOPc054NLCCwtov8GblQALL6gEuDpBehamorXBLxoKkE8+/MMMCURWAiBJQJ8KPCmhXrq7+GDgX36G24yI720IFx1h9ItKiURWAiBJQI03bye9aXIuYG/lKJsAXqK558K0HNJxesC3yxI31Q1KAJLBFjS549QXh/4elBMS1TLKBvLDpQiFy/otroUTCep5/KD5JIOwHXV8CVIaQeBk4FLt9NVL73kBUgvMI9/kOULqbSX4NbA58Y/RZ1bWNruL5Pjdr4kpjPAcgL0Ftjb4FLErMXXKUXZwHrqBK8zfCmiF4DuUCmJwMIILCdAyaS0g+WHAG9dGIXpdrA78KqCzP9n5QZlWGRKIrAwAssJ8OzA3xfusd8OfgVs2e+Qoxrt14Wdper/6Q6wpPPqUS2YsRmz8jD5pAKz7D4BeMnYJqYHe14AmFOvJHk3cJ+SFE5dYyOwkgCvBhwfW+XNtPtjtQs8ozC9h1TXGjBmfTnvkErMMbZ6/2OO5/KRRGBVBFYSoC+EL0b0IkkrjdEnUN/AlGYInAhs3axpmFa/BLYKo00qMgoEVvOnKiUh5soJ2AN49ShmpVsjHgu8vNshOun9S8DNO+k5O50sAqsR4L2BIwtExINxI1qOK1D3vlR2l/yVQjOpXAlw55qSCLSGwFoe9Z6znK21Ufrr6M+AST39b8qmCHh7+rtCQcnIn9knzvju81fHWdZPXvmuu2Hwn65FxtX/vvrfs49U8BNrEeA3gO0KtetfhZJ313C70EstJJ7nf+uvjvMBbwbusuz8fundbhI2uESGS6OI9/7A27telEP3vxY4NwaOGVq5Bcb/SYGH/AuYW/voT4HL1raK3cBSCLsA74ytZufaXQMwc/c5K+8Hd3pdiuT4W0Dnc0sQSLKl+Quvic96vw7+ClyyS2Q77vt/AIl86lJaqFvdfJkHcHvgb3UNR/L3a1V+rpcIFPop9r5fJwCPKhnn9QjwXSNwOjVZgkkTpiru4sf4I2AssAXcx5oSzfycJqnYuTrHi75+v1slqNUToyhZjwA9QPVgtHT5InCL0o2YQ/9vAdee47mSHnktsFtJCq+j60WAxwP7FeigvtysTwJHA4eUMC91B6QmyfSXqHTxUuc2IyH0urnQmV1XoMvVNRzJ381gtFf1SVaiSbcELElR9KfkKsB76WaY6nsBz6BDSh0BWnhGNh+DGEh/p8JSfs2Ku5/7Hy+ksPmsttW195P403WNAv39JsDhwDaBdOpKFe009twzw1BSR4Aqa2ywMcJjkZtVuwV/ocYihi7uABw1FoPmtMPsQDpMGx8eUXzf3JnrjD7FjOZW8/MmX7/OENKEAHcFXhNC2/aU0FHaT8UxpFVyDk0EcZ724Cm+JyOCPJiPJOeoiNm0c1MX81B6fjv4+9eEAJ0sX7DSMofULTKroHl29Ia6hoH//hTgqUl+q86Qu+Eo59cm7b1/OuhvMk/uAh89dDGupgQ4prPAlW/Lj6ubxE8EJrqVqt0WeOOELjrmnRodd+81YMH3BwDPAy4/rwETeE5XrZsOZWdTArTdKSPPvuzlwd7A94aajAbjGgVg8lfP+1KaIeBZr7tkD+H7lLcAD+5zwILHMgPVQcCBfdvQlADVq8RkqfPg6U2i4VaeUUQRPxUeWLnyRNGpND30i7T4k7HiXYqeBsblGrmRMhsC/mi41g177EVmIUAV0qnYW9QpiJPwJOCzAxWLMoLDT4PnV3GfU8C8axuNYTVaoYtzX9+lx1UOwLO+V13bXVL/XoxcF/AHq3OZdaLMOuF2dWo3WbpV6KxqULixqF3sIrwl9MflQsARSXqdrv0XV2dzbaUHM4rjTcDdOtV6Wp3vW30Wd2r1rASoMmai2KlTreJ3bv60PYH/qnKoGZs6y8tkzsILVreCd65exnRj6Xfe3WlcETBz0CJinkX9D0srI7GIzX0969fPAV3WgZmHADX+ZODSfaFQ6Dj6GvoZbdqirlMWFQpRCLXdDVodbx6fNGuUeDmY0h0CX6jOvjsJXJiXACU/STAlERgDApaDvcKMhpix5R3AuWZ8LpvPjoA/Mp1suOYlQE3QbeQOs9uSTyQCIRHQMf65wHMaaPcfwLMmGnPdAJ5OmnjE5NFRq7IIAXoRohPxZVrVKDtLBIZFwDPuh1XRT6tp4pnU0zOqY5BJ8kfKGGr/24osQoAq4A7QnWBKIjAmBDy/NbvMl1cY5cWXee4WfW/GhFXftujKZEIJM9YvLG1MpB7cRlCkJAJjQ8AkIPoNekFiSJ257VKGR0C3NAMzfr6oKm0QoDp8G7B2QUoiMDYEzGH3jOrCY2y2lWyP82KwgHk+55a2CHBr4PsTdJCeG/h8MBFIBBZGwCw7BijM48K0YfC2CNC+rD/RS/jKwrBlB4lAIjAWBF5RhSDOZU+bBKgCRoh4i5aSCCQCiUBfCDyzOqaYeby2CfDfq12gGXlTEoHlCHwTuCFwJKATcUoi0BYCusUYkjhzrei2CXDJIP0DZ/WsbwuM7CceAl+tyG9JM1NGfSATPsSbqII1+jVwyVn174oA3QlamnFMxZRmxTbbb0RAD4EbrZLjbcsq7+KtEqhEoCUE3jZrEtquCFB7DFvxlz93gi3NboHdGMNpUXq/CNYS0x6Z5TolEWgDAUvDfq5pR10SoDp4M/wp4GJNFcp2o0HAQlrbN6zD7JmxWZRNhJmSCCyKgKnmft+kk64JUB1M8mm43NiqyjXBd6ptDFdy5/c/MwJg++sDHqGkJALzInBoVfGx9vk+CFAl/GV3cU8tk3TtBIywgdmyr145xs9jnlnHzbxthuyURGBeBMxT8Mm6h/siQPW4ygIvRZ0d+fcYCJi00hKQi8Zomh37I0BekMSY1xK1+ANwgTrF+yRAdTGLw/GZIbluWor8uzGZ27WQYn658dbVfXuRaMRT2uwpPwAs52BKKUusjn2X/UjgsPWmom8CVBeL/ugacdl4ayQ1mhMBf9T85OgiS/iVqywsmWyjfnL+ATwB+GlFdiYM8Dy2TizqpJO65/TmQrx73QOF/L02ieoQBCh2ZwO+Xt0SF4JlqrkGAlbJ07HZHHpdiWfHZmB+clcDFNyvSUheWYWgtvkDdF/gJsA+BWOj6iavde2sKkMR4JIyRgPco3CAp6z+RwGr2vUlN6h8vLLIFLyzIr7GPm9zTpI/Pk8DHl5o9nePZvzqDEmAKvUYwIwOKWUh4Etx4EAq6/H/wIHGHnrYo4FHt5UReUZj3E25I9TPriQ5eK2d7NA7wCUQ9Rn74HpMXRLaI9fVT93rVZdZQ5rqiygJr/nrPqRyHYz9C8AdcIQynO+uisBb8rUEWbOqXBQCFETBdJLN6pASEwHdW0x+2+RgvS8LLEp+ib4GG2Ac/SrfBXgjHkl8X/XXLCXAwS8Gy5huIpEIUMXUx222/1JiIfDG6hwollYbL9TMCryuu0M0pWfQx932N2Zo32dT3WiMuti1z0HnHOu7wGZp+qIR4JJtOk0fA3g9nzIsAhagMab7xGHVqB3d6BMzEI1FdGm5FPCb4AbJIY+tiDCyqqbN3yzEMioBCqS/Lh5eWpUrZRgEXg48BdCrvgTxxtLi5vuXoOw6Ov6siomOTn7LTXAX/qbguK/MS9lqTZCubNdB8w1Zda4reFftV0fanat0Zr0O3NJg9wNeVeh5sues2y5a7awlHGftRtyN3ImazMILPO8Y/rpkWOQd4HLw1fP5wBNnnZFsPxMCXm54puMOysP3ksXD+Q8XFk/sTtswtTNf0AInIHrxePOTnlQaAS7p62fx4YC/NB5+p7SDgGSnb52fMWOT3SqH4ai7kiW8Tyt0x7raenlRFZIXcS2ZnPeKpRLgciL8YuUXFRHkknSylKlZVxolkCzJsGW6uuDdDUYt0eDO2+QEPywU39XUfl/g4ld+HVhIqYgzwPXWxFZVFTo/G1JmQ+DU6gfkzM+B2R4vsvXcBbQ7tjaqi9GiZpsVPKKfoPlJrVJYPAEu2WD9Eb29t1h0xibwvCRgQSJvGKMSQhfT4IvoCxlNvlIVjYqmVxv67FDldWyjrzb7MDnCBl/jUi5Bmhqv/6BxxaZmStkUAT8B967SJE0RG30Z/dyPJubI1O1lrPJiYL9gxnnmveEOYWwEuISzOxzji/20iLgF72s9eJv4COCzQWJI+7J7tXEeUhVeGlKHlWMfUv0oRdKpbV08pooQv7zSLvORnjxWAlxurNvw2we+lWp7wdnfs6u0UZ/oovNC+/TM06OSSHKZFsoHRLJnLV2eBDwvmKI7AkdNgQCXcNcNwtRbfibvPrJ04KY5d7drvKNHAFM622vyXhkhEimBgzqbSsxsNlMQk1WYtCKS6B712ikR4Erwbwc8qopz1fO+NDkW+A7w6lkKQZdmZEv6Gk00a4nOloZesxtdcszmPBU5KNjnvuUCtpkyAa5ceNZCMKuFlaS2CeZo7e7Fl8XstsbnbpbWZypv0Zx23hPQLy2KWJzoqlGU6UkPCd/aMZHk35IA154OsflPwK3ypQeYNXMjmgzCW7TSw9IGgG+TIaNVl7N6XsQb6a7nyR/ySLXBL5wE2GzKhzhTO1fhMaHNkO2n1WeA2/QzVKNRrGniue3U5GaAEVxRZOckwGZTkQTYDKeorSzYHiUWWGfs80cFqmO9rCXyv4Hc7/ZOAmw240mAzXCK2mqI+VsLC7MSe1s/RfFHSAL0nD2C7JME2GwahniB8hO42dzUtYoWAmc+OjO/TFV+XaX8imD/c5MAm01DEmAznCK2sqbG14IotllCziB69amG9YWj1G/5aBJgs6lPAmyGU8RW96mqqkXQbUw5/xbBc4j3aTV9JxEKt8hELT07xITlJ3AbMwd7AcbcRpAkwI2zMMT7tOr85w6w2WsxxIQlATabm7pWZsAxCiGCfBu4TgRFBtZBF6AQRdWTAJuthCTAZjhFbBWJACXifSOC1LNO5qK8WM9j5g5wAcCTABcAb+BHIxHghgD8gfGIMLxVB01HNbjkDrDZFCQBNsMpYqtIBPigqmxkRJz61OknwOX7HHCtsZIAm81CEmAznCK2ikSAe1TZeyLi1KdOZsA2F+LgkgTYbAqSAJvhFLFVJAJ8GfD4iCD1rFOeAfYM+KLDJQEuiuBwz0ciQEPgDIWbuliqwRrfg0vuAJtNQRJgM5wittoTcOcVQdIPcOMsDPE+rTb//0oCbPZaDDFh6QfYbG7qWt0XeGddo57+ngS4sRrbP3rCu26YnyYB1kE03C9WEmCzualrdX3gq3WNevp7xgKDF0Gv7AnvumE+nARYB1ESYDOE4rY6H/CHQOplNhi4eJD5ODAJsNlM5CdwM5yithpi/tbC4sYBCzT1NW+ZD7AvpFseZ4gXKD+B25vEIeZvLe3Nh3fJ9kwrqicToZoQNUp27kyI2nD5DPECJQE2nJwGzY4B3HlFEVPD/z6KMj3qcf9gFQ13zE/gZrOfBNgMp6itjMG1fnIU8WLm61GU6UkPuSZadcOsCtdw8pMAGwIVtFnWBR5+YrIu8PBzMLcGSYBzQxfiwZsDXwihyVlKXAX4YTCdulTnhcD+XQ4wY9/HAdvmJ3Az1JIAm+EUtZWH7pbGjCT7AS+NpFCHunj5cXqH/c/TtQ7yRyYBNoMuCbAZTpFbDTGHdXhcFPhdXaMR/D2S8/MSnPcC3p8E2Gx1DfHy5C1ws7lp2iriS/gq4DFNDSi0nYlPTYAaTbYEfpUE2GxakgCb4RS51XbANwIqeHvg0wH1akul9wFeQkWTDdyXBNhsWpIAm+EUudWFKifcaDpKytYuHqNEu31fwvhJwAuSAJsvuSTA5lhFbvlH4DwBFTyUjeU7xyQe4Zj6PmLUi5X5rNCXO8CGKy4JsCFQwZttD3wiqI666nwpqG7zqPVF4GbzPNjDMybI8McwCbAh2EmADYEK3ixaLOpyuHwhLRT02+AYNlHvTcBDmzQcoM3JyyvS5RlgsxlIAmyGUwmtDMb3PDCinAHoGvO3iMo11OkWwOcbth2i2SbpyJIAm01BEmAznEpopf/XewMrKkF7bvb3wDqupZrRLScE/rL8EyABnvkDkwTYbJUlATbDqZRWZmb2kD6qGCJ3XcAdYSmiO88ngyv7FeBGy3VMAmw2Y0mAzXAqpZWuJ/oFRhZJ0HCtiL6LK3HTpeSJkcGsdDvnyuOFJMBms5YE2AynUlpdtfpUi66vxYPuF/iT/ezARwBv16OLn+bbrFQyCbDZtCUBNsOppFbfBPQHK0EOBx4VLJ/eDsDLgSuVACDwAOCIJMD5ZisJcD7cIj9laiZTNJUiJk14EPCxgevqenb6fODxpQAHnAJcejV9cwfYbBaTAJvhVFqrUyu3k5L09gLHg/xje1b63FVZAeOWS+MNd6p7JgHOvmI8NPXfELnMLlGNW7JP2OyI9/vE8wDjQksU8xtezowmHec6lPgeDLy2RJCqSw/f4VWlNCbvaw7+o7rVcrs/ZOyofkt/AV4CPLcv4yc0jolS/YE5W8E2W1xJ95OdW7bBNFYWlLeA05oE0vKYXXR3ELBvEuD60F6kWkTnB67cxSy01OcPKt+wWxXmI9aS+Z10YxKCQzrpuf9OdZ2xCPzBVfW1WZypPSN7F+CO7xqFk94S8tqvPWtmA5/yDnCLaltvELoe7KXJd6tfaCue/bU05QPp6ztgfOilAunUpirWIT6+Cv53nXierfuKXzcXr8juHG0OGKivRwDeoK8pUyRAr8PvAVijdCzyzspXzF/wlNkRuAnw5dkfyycCI2DZUcuPritTIUDPeh4HHAiYEWSsYhzps4CXBfMZKwHvqJmLS8Auoo4mma2Nohk7AUp8OwHukPzfU5L7VLvCaMWoo86BZ2B+CqeUj4BfQkbQ1MqYCfCa1WeNyQ+nKt4g6zP2nakCMKPddwI+OuMz2TwWAl54mO6sUSKJMRKg6W68vr9irHkZVJuvAWbrGMKfcVDD5xjcCma6gKSUh4AXPL7/jdf52Ajw9YA3P2Ozq42l6KfwkSO7/GkDl5V96BNoduaSfd+6wKWEPo3vNo1YYxkLUZjayCSXWze2fLoN9SX0U+/H04Wg1nKPT/LYoBamUA1c12b5mUnGQIAvBvabyepsLAI6y+6TUKyJwHuqC7SEKD4COjzry3vSrKqWTIAedH62oJRGs85NH+2t3GXtVpMCpGyOwGeA2yQw4RG4K/DhebQslQBNC/SKKk5xHrvzmbMQMJbUCl4fSFA2Q8ADdX3JrNaWEhMB/V6fPq9qpRGg+pomfLPEhvMCkM+dicC9AT/7UjZF4JaAO8GSEyaMdU79ArztIsaVRIDeyr0G2GURg/PZdRHwlthQwTWDxyeKn8kn/muitkc1e65Lj5XGlEKAkt8vA9dzjbpI5tHL9FDnBaxHkXIWAnkzHGc1GPJpBqeFpRQCNKIh/bIWnu7GHYi3aYRSNkXg6sBxCcrgCGxW3W1ejUogQHd+FopO6RcB42LNODxEOYB+LZ1ttJsB3p6n9I+A4W2m8PIHuhWJToA6616hFUuzk3kQMI+cyTGTBDdF73bAp+YBNJ+ZG4GfAFdbWdd37t6qByMTYJLforPbzvNGRFy7na5G1YvRNNbEjfwOjQVwQ9xMb9X6D3HUycuA9FhL1+zTXgKkbIrAXQDzCI41o3KE+fa44RZdKRKNAPW1+gJght6UWAh8CbB8QMqmCBiH/rbqqCCxaRcB3d52b7fLTXuLRoCPAl7XpcHZ90IImFXbCJyUzd8jI0auk8C0goCZi7avHNBb6XCtTiIRoAZ/olNrs/M2ENAVxMuRlM0RsHauP+KR3qvS5uk3VS2Pn/WheJSJ8pfTg86UMhC4EnBiGar2rqXngX+eYAmGNoA+BbhMF5cd0XeAVre/RBsIZh+9IGCpxS37XKi9WNXeINaXti7FDu11OeqevN31R7X3HJURdoDvyCzFRS7ut1RZZIpUvielbwx4eTS1glyzwPtuYG/g57M81FbboQnQwPu3t2VM9tM7Au5wPtb7qGUNaFGuZ2TS3s0mzbod1uf+3JDTOSQBWp3eMLeLDglAjr0QAgalW07SM6+U9RHwyOCZwK4JFM8B/jMCDkMSoLm8bh0BhNRhIQT8hLEGcUozBPQb1JXImOIpifG7bwX2iJRpaCgCdBHUVm2f0uoo3NZrAccWbkPf6pto9aDK5aPvsfsc73dVyOCD+xy06VhDEWDG+TadoTLafTudgOeeqHMBhhqadn9MWaf153s28LK5kenhwS+YCKQAAA1CSURBVCEI8MAo3/894DulIazOt/+UDG7ZVm+KHw28uuV+++7OKA7T1/22BDepvgnQTMMenG/R96x0OJ45yu5eleTTn8kSfdroxYD/X4xNLmqBHe32/+vsaSYR8RiLWEzcG8+UxREwBZyfx1bsK0Fc80YIueZ1Zi5G+ibA9wM7FoPO6opKavcHzFhzTAu2mPhhG+ANI/AXMzPKTi1gkl2chYBnhda8NTGAnhNRRP9Gb3LN09e7A3NbIPRJgLpLmGW4VHlhlQn4qA4NuFt1KK7fWIliPRF3un8qUfkCdPYLwh9fzwqfBmzdk85+1prx5tPVp+0Hexq382H6JEDPiPbr3KL2B5D4XGx/bb/rNXv0l14SfGqPY7Y1VJ4FtoVks34sDmQChvNUzd0tWuJ0nhyFRmMcBkh4Vgb82rwFx5upPnyrvgjQOF/jfUuST1YL66QBlXbXbKign0ElibvA00pSOHWdJgJ9EeBuBd1ueaB7fcBU8FFEAjTkrJRKbTsD740CXuqRCKyFQB8E6HlFKTVmdebVSTtiYXDPfywGrb9YCaK+pcx7CXimjh0g0AcB7gUc0oHubXf55ULCk0xGanWs6HIvwFv/lEQgLAJ9EOBngNuERWCjYo8FXhlcx+XqPbw6rI6s8ueBW0VWMHVLBLomQBND/j44zPqt6b9WmliR7EPBlfbyy5ColEQgJAJdE+DzgCeFtHyjUo8sYCe1HnzRi0h5/HFo4PlP1SaOQNcEaMYXLxUiysHAPhEVm1EnP91NMRRRvhV4/iPilTr1jECXBGicq3GyEWVsIVtW07OqXkRJn8CIs5I6bUCgSwI0Dc6eAXE2XMss1FHJeR7IPGs1CD1iMgJTIh0wj1H5TCLQNQJdEqAH9B7URxJDfNyRRL+YmQeza1R55eZ5tstnDgce0eUA2XciMC8CXRKgZNNl//PYfByw7TwPFvLM14HrBtQ12joICFGqNAQCXS1MA7PNDxdJTM099gJMZhc2F6H/jSTmPxyk7GEkEFKXeAh0RYARP38fVxWjiTcL7Wpk1TFzx0WSNwO7RFIodUkERKArAozm/nJiVXl+KrP+C8AyjFHkAwVlN46CWerRAwJdEaD1fq0LEEWeW2huvXnxM5363vM+3MFzPwMu10G/2WUisBACXRGgaeOjiBlJxlSDpCmu1mE9Z9PGPbTraq31oHoOMVYEuliU5qyLlBLd87DdxzqB69jlZ+c9Atl9IeD0QPqkKolAJ2eAxv4aAxxF7gscGUWZHvV4EPDWHserG+pZwNPrGuXfE4E+EehiB6i7ic7GEcRPceutTlUi+WJ+M6iP4lTXRtrd0S2wfmh+7kSQtwPuhKYq7wlUpjIJcKqrMLDdXewAIxGg2V7M+jJViXQb/F3gmlOdiLQ7JgJtE6C3rRKgmWAiyN2BoyMoMpAOpqWPUpzIZA1WuUtJBMIg0DYBGgInAc5Tk7QLUCTiSDfSXdi4Xp/+IJn9JoIYGhkxW00EbFKHgRBomwAvWBFg2/3OC08UPebVv43nIvlk5ny0MaPZR2sItL0gvfxwBxhBrO8bZSc6JB6m/jJfYARpe71FsCl1KBiBthdkJAL8GnCDguemLdW/GKjcZ9vrrS2Msp+JItD2goxEgDo/6wQ9dTkCuF8QENpeb0HMSjVKRaDtBRmJAF8PPLrUiWlRb3Gw+l0EaXu9RbApdSgYgbYXZCQCfCNgAfGpiynpHxYEhLbXWxCzUo1SEWh7QUYiwI8BO5Q6MS3qrR/kXVvsb5Gu2l5vi+iSzyYCrSdDiESApmA3FfvU5XjgakFASAIMMhGpxkYE2l6QkQiwC/tKXDeREiK0vd5KnI/UORACbS9I/c30AzxbEBvbti+IWTOpEcUReqqJaWearGzcLwJtE0S0qmRXBH7cL6ShRrtUoGpsU6jKF2ryU5l6BNomQHd+7gCjRB7sBRxaD8NoWzwNeGYQ66ZWmCoI7KnGegi0TYCOlemw4qy5SOmwMh9gnHWRmlQIjJ0AfxWsPGTfC++kQNXYkgD7nv0crxaBLgjw08Bta0fur8EFgD/0N1yYkSKlwhKUjwB3CYNOKpIIdOAGI6g3Av47ELoHAp6FTU2shrdrIKN1Stc5PSURCINAFztAjYvieqEuXweuHwbx/hQ5Fti2v+FqR+pqrdUOnA0SgbUQ6GpR/jVYLj4jIb4/oWVwZeAHgew1K3WkIu2BoElVhkSgKwI8AbjqkIatGPujwJ0D6dO1Kt8GrtX1IDP0fwxw0xnaZ9NEoBcEuiJAPzuv24sFzQexXsmfmzcvtqXO6NHsfD9ggaaURCAUAl0R4G7Aq0NZCl8FbhhMpy7U0fXnEl10vECfjwNescDz+Wgi0AkCXRGg/RqEH0nU5+zBLmjaxidaUaol+8T9n20bm/0lAosi0BUBqtePAGNxI8npwMUAA/PHJn76al+0QlBexkQ6Dx7bvKc9CyDQJQG+D7jnArp19aif5nt01fmA/UbK/LwchpcBjx8Qlxw6EVgTgS4JUK//DwXF/jqAN6VjEW9YvxTUmHsAHwyqW6o1cQS6JECh/Utg/y+zRZs1unS5SmAfx8wBWPrqGrn+XRPgG4BHBMXQguFbA+apK1UuCpjy3nPNiGI2mn0jKpY6JQIi0DUBWo7RsoxR5TtV7LI71dLESw+Lnl8vsOIPBN4RWL9UbeIIdE2AwhspLni16f4ecI0C18FxwNWD693H+goOQaoXGYE+FuhTgWdHBgH4BWD6+FJEfbcMrqy7/8OC65jqTRyBPghwG8BdVnTRh+7ylS9dVF0vApwMnDuqgsv00vcvUkKGAiBLFftGoA8C1KbPA7fo27g5xjNawTx6j53j2a4fMZTsMV0P0lL/5oO8SUt9ZTeJQGcI9EWAtwc+2ZkV7Xf88YoEf9h+1zP3uB3wAuCOMz853APXBL473PA5ciLQDIG+CFBtTgOMVS1JDgZeBJwygNKeSf5ngVErZqIx805KIhAegT4J0OgLC+OUKE8BjuipxrC+ifcDnlciUNXljBlpUhKB8Aj0SYCCES1T9KwT5AXELasdoVmO2xJ9+rYCvlDYbfRK+38LXLwA16e25i37KRyBvgnwwoVHXixNt6m1fgPcporEmHcZXBv4REUafc/FvDqv95xp79v8YehCx+wzETgTgb5fOsezcHppZ4HrLRkdvT3f9J9ifLHhad+qbDVMzfT0Oi27y1P8IRCDvvHvcul76eHlR0oiUAwCQ7yAl6582YoBKRVthIA+lD9t1DIbJQJBEBiCADXds66bB8Eg1VgcAdNdmfYqJREoCoGhCFCQfl2dfRUFWCq7GQLe+OqyE60EQk5VIlCLwJAEaJZg/exSykZgF+DNZZuQ2k8VgSEJUMw/U92kThX/0u3+FLB96Uak/tNFYGgCPBtgYtKMHChvDf6pus1Ot5fy5i41rhAYmgBV41HA63JGikPg7sDRxWmdCicCyxCIQICqsz/wwpyZYhAwK82ritE2FU0E1kAgCgGa304fsqi1LXIBnYXAHwFrkRjWmJIIFI1AFAIURJN9GkuaEheBPPeLOzep2RwIRCJA1TdU7CRgizlsyUe6ReAPgFmef9ntMNl7ItAfAtEIUMutJPYm4Oz9wZAj1SBgfd+HA29NpBKBMSEQkQDF1ySk+40sWUDJ6+ZpwIElG5C6JwKrIRCVANW1pBoYY15dZqV+zpgNTNumi0BkAnRWXlztBKc7Q8Navhdw6LAq5OiJQHcIRCdALT8AeFZ3EGTPayDwCODwRCcRGDMCJRCg+O8LvGTMExHMtocCbwmmU6qTCLSOQCkEqOEPyx1J6/O/skPrIj+4KgDV+WA5QCIwNAIlEaBY3aBKpmrtiZR2ETgV2BH4UrvdZm+JQFwESiNAkTSDzE+Ay8SFtTjNLABvPY8Mbytu6lLhRRAokQCX7NVZ2rOqlMUQMJmpSU1TEoHJIVAyATpZe1cOuueb3MwtbvAZwG7A2xfvKntIBMpEoHQCFHXjhk8HzCiT0gyBP1fJTPOTtxle2WqkCIyBAJ0a44bvDBw10nlq06xbAMcA3vimJAKTRmAsBLg0iV6MfBW45KRndXXjj6t+JLJ2by6ORKBCYGwEuDSxO1Q+g1vmTHNydcnx6cQiEUgENkVgrAS4ZOUeVTzxFIsuWazICBqTSqQkAonAKgiMnQA1+d+B5wOPnUj1ub9U9Tqss5LnfPnaJwLrIDAFAlxuvtllrGZmZuOxyfeBD1W7vrHZlvYkAp0gMDUCXAJxG+CdwNWAksPqdGOR+B4CfKuTFZKdJgIjRmCqBLh8Sj0newagM3UJePwfoBPzE4FXj3htpmmJQOcIlPDCdw5CdU54QeBWwHuqeOM+xp1lDC81dqqSFZwGSIQpiUAisAACSYCrg3fxKtnCXatkrEPhZC2Oo2GDK8tvFpjnfDQRSARWQWCoF7u0ydCN5sbAhYDLA7tX54dt2aGT8mHAiVVY3xczM0tb0GY/icDaCCQBLr46LlGR4RWr+Nr1evSz1c9X00+dAJiDLyURSAQGQuD/AXQSqPejym/yAAAAAElFTkSuQmCC;labelBorderColor=none;imageBackground=none;" vertex="1" parent="1">
          <mxGeometry x="591.73" y="288" width="61.54" height="100" as="geometry" />
        </mxCell>
        <mxCell id="reP9Xs6ON48cAvPmdDRv-4" value="" style="edgeStyle=orthogonalEdgeStyle;rounded=0;orthogonalLoop=1;jettySize=auto;html=1;fontSize=20;dashed=1;endArrow=blockThin;endFill=1;strokeWidth=2;strokeColor=#666666;" edge="1" parent="1">
          <mxGeometry relative="1" as="geometry">
            <mxPoint x="450" y="100" as="sourcePoint" />
            <mxPoint x="550" y="100" as="targetPoint" />
            <Array as="points">
              <mxPoint x="460" y="100" />
              <mxPoint x="460" y="100" />
            </Array>
          </mxGeometry>
        </mxCell>
        <mxCell id="reP9Xs6ON48cAvPmdDRv-5" value="&lt;font style=&quot;font-size: 14px;&quot;&gt;binlog&lt;/font&gt;" style="edgeLabel;html=1;align=center;verticalAlign=middle;resizable=0;points=[];fontSize=20;" vertex="1" connectable="0" parent="reP9Xs6ON48cAvPmdDRv-4">
          <mxGeometry x="-0.1725" y="-2" relative="1" as="geometry">
            <mxPoint x="9" y="-21" as="offset" />
          </mxGeometry>
        </mxCell>
        <mxCell id="reP9Xs6ON48cAvPmdDRv-2" value="" style="shape=image;verticalLabelPosition=bottom;labelBackgroundColor=default;verticalAlign=top;aspect=fixed;imageAspect=0;image=data:image/png,iVBORw0KGgoAAAANSUhEUgAAB1YAAAPNCAYAAAA6JIhpAAAAGXRFWHRTb2Z0d2FyZQBBZG9iZSBJbWFnZVJlYWR5ccllPAAAAyhpVFh0WE1MOmNvbS5hZG9iZS54bXAAAAAAADw/eHBhY2tldCBiZWdpbj0i77u/IiBpZD0iVzVNME1wQ2VoaUh6cmVTek5UY3prYzlkIj8+IDx4OnhtcG1ldGEgeG1sbnM6eD0iYWRvYmU6bnM6bWV0YS8iIHg6eG1wdGs9IkFkb2JlIFhNUCBDb3JlIDcuMS1jMDAwIDc5LjljY2M0ZGU5MywgMjAyMi8wMy8xNC0xNDowNzoyMiAgICAgICAgIj4gPHJkZjpSREYgeG1sbnM6cmRmPSJodHRwOi8vd3d3LnczLm9yZy8xOTk5LzAyLzIyLXJkZi1zeW50YXgtbnMjIj4gPHJkZjpEZXNjcmlwdGlvbiByZGY6YWJvdXQ9IiIgeG1sbnM6eG1wPSJodHRwOi8vbnMuYWRvYmUuY29tL3hhcC8xLjAvIiB4bWxuczp4bXBNTT0iaHR0cDovL25zLmFkb2JlLmNvbS94YXAvMS4wL21tLyIgeG1sbnM6c3RSZWY9Imh0dHA6Ly9ucy5hZG9iZS5jb20veGFwLzEuMC9zVHlwZS9SZXNvdXJjZVJlZiMiIHhtcDpDcmVhdG9yVG9vbD0iQWRvYmUgUGhvdG9zaG9wIDIzLjMgKE1hY2ludG9zaCkiIHhtcE1NOkluc3RhbmNlSUQ9InhtcC5paWQ6NUQ2MzBDRDcyNDEyMTFFRDg1MUVDQTIxOTEyNTEwNkEiIHhtcE1NOkRvY3VtZW50SUQ9InhtcC5kaWQ6NUQ2MzBDRDgyNDEyMTFFRDg1MUVDQTIxOTEyNTEwNkEiPiA8eG1wTU06RGVyaXZlZEZyb20gc3RSZWY6aW5zdGFuY2VJRD0ieG1wLmlpZDpBQzdEOTI2QTI0MTExMUVEODUxRUNBMjE5MTI1MTA2QSIgc3RSZWY6ZG9jdW1lbnRJRD0ieG1wLmRpZDo1RDYzMENENjI0MTIxMUVEODUxRUNBMjE5MTI1MTA2QSIvPiA8L3JkZjpEZXNjcmlwdGlvbj4gPC9yZGY6UkRGPiA8L3g6eG1wbWV0YT4gPD94cGFja2V0IGVuZD0iciI/PpGvjLYAAQtySURBVHja7N1p8J33dR/2AxALCYAgQYIAN4AAwQVcwEWiuEjURlqSt8TxeDyZTGbctJl0nE6adjp92WnatNOmTfumTid1XmSaxUnqpKkdW7Ysm7JFURLFfV8BEiRBEAsBEBuxEz3HvwdDihYpAP/nf9fPZ+Y7f3DRcy+ehcLcc885EQAAAAAAAAAAAAAAAAAAAAAAAAAAAAAAAAAAAAAAAAAAAAAAAAAAAAAAAAAAAAAAAAAAAAAAAAAAAAAAAAAAAAAAAAAAAAAAAAAAAAAAAAAAAAAAAAAAAAAAAAAAAAAAAAAAAAAAAAAAAAAAAAAAAAAAAAAAAAAAAAAAAAAAAAAAAAAAAAAAAAAAAAAAAAAAAAAAAAAAAAAAAAAAAAAAAAAAAAAAAAAAAAAAAAAAAAAAAAAAAAAAAAAAAAAAAAAAAAAAAAAAAAAAAAAAAAAAAAAAAAAAAAAAAAAAAAAAAAAAAAAAAAAAAAAAAAAAAAAAAAAAAAAAAAAAAAAAAAAAAAAAAAAAAAAAAAAAAAAAAAAAAAAAAAAAAAAAAAAAAAAAAAAAAAAAAAAAAAAAAAAAAAAAAAAAAAAAAAAAAAAAAAAAAAAAAAAAAAAAAAAAAAAAAAAAAAAAAAAAAAAAAAAAAAAAAAAAAAAAAAAAAAAAAAAAAAAAAAAAAAAAAAAAAAAAAAAAAAAAAAAAAAAAAAAAAAAAAAAAAAAAAAAAAAAAAAAAAAAAAAAAAAAAAAAAAAAAAAAAAAAAAAAAAAAAAAAAAAAAAAAAAAAAAAAAMHLmOAUAAAAAfIpFmVWZNZmLMhd2P8/v/nl9vnQic7TLgczuzHuZXZm3MzsyRzInnU4AAMaVwioAAAAAH1UF0wsySzPndb++PHNltKLq0u7n4u7fr8+XPohWVD2WOZjZm9mX2ZPZltkZreB6qPvn9fNI9+vjTjkAAONAYRUAAACAMjdzVeb2zN2ZOzLXZZZn5sVf/BzpJ32udPIT/l4VXavAujnzcmZjZkv3602Z/U4/AACjTmEVAAAAYLqty3w588XM9dE6VE+N/D2359c6HK1z9VTXav26Rga/mXkl81Tmmcw7LgsAAKNGYRUAAABg+szPfDZaV+rnMp/J3Dzk91QdrK9G62Z9I9pu1vp7r0crvB5z2QAAGCaFVQAAAIDpsSDaaN97Mr+W+csj/F5rB2t1sH4/86PM89F2tp7qeD3hcgIAMEgKqwAAAADT49bMf5W5P1qBdeEIv9fazXo82n7W+lnjgR/O/Enme9G6WAEAYGAUVgEAAAAmX3Wq/vXM34hWXL1gTH8ftY+1xgNXkbVGBD8Wrdj6rEsMAMBsU1gFAAAAmGzrMr+Q+fXMDRP2e6t9rFVYfTzzQny4n9WYYAAAAAAAAOC0nJO5LvO/ZvZGG607ydmU+YeZr2WuyJyfme82AACgzz9gAwAAADB5VmX+08zfijb6d9Inl1Uh9abMz2Xuy1yc2dkFAABmTGEVAAAAYPJckvnbmV/LrIzpWAc1N3NetCLymmgjkGuf7G3Riq7bMofdGgAAnC2FVQAAAIDJsizzH0UrrF45xefhwmijkL+QuTpawXVBtPHABzPH3SoAAAAAAAAwnapo+LOZ12Pyd6qeTXZk/u/M/ZlzozUdzHHbAABwOnSsAgAAAEyOuzL/U2Z9+NznJ1kcbUzwlzOfj9bBWkXoo04NAAA/jT9gAwAAAEyGVZm/mfnV8JnPp6lO1eWZmzJrMxuijU8+kNnj9AAA8En8IRsAAABg/NU427+W+bXMxU7Habss89nMPZnzoo0LPpE5EnawAgAAAAAAwESpomoVU/99tKKgXapnng+ijQPenfmtaKOCAQDgx+hYBQAAABhvSzN/I/PL0UbacuaqOF2fk1XX6upou2pvjVZw3eT0AAAQobAKAAAAMO7WZf5e5trMXKdjxmoHa40IviNzRebKaJ+hVTfrEacHAGB6KawCAAAAjK+FmW9k/uPu1/SnuljXZu6LVrSuUcEHoxVXjzo9AADTR2EVAAAAYHzdlvlPMusz85yOWXNp5kuZOzPvZV5wSgAApo8/cAMAAACMr5szX80smOXX2dTlQGZv5kS0faTVJXt+ZmXm8syKCT3PdX4vjlZcvSBzb+ZbXU66DQEApoPCKgAAAMB4qgJfdaxePEvH35l5LfNUl1ejFVb3RCusLopWWF0araOzdpFe1uWS7n1d1P2z+RNyzmuH7e1dbslcn3kw83zYvwoAAAAAAAAjqTpVvx2tY7KvfBBtj+grmd/IfDlaMfFMrcv8SubvZf448060Ttf3M8d7fs/Dzu9H23NbReT5bksAAAAAAAAYLX8383r0WySsour/lrkrWqfpeWf53mpK2pLM8sxVmc9F2wX7T6J1wU5SYbW6eF/O/PPMPW5LAIDJdY5TAAAAADCW/nbm89Hf5ztbM/8oWoHw6WgFw+NneazqfD0arUN1b3fsGiX8UuaJ7vhvR+uGXTnm1+HU/tVrM9dEK0jXudvuFgUAmCwKqwAAAADjp/aa/meZq3s6XhVBv5n5bzNbZuk912vU3tYXMw9lnok2InhP988qi2N8P6+a312PL3TX51jmvWjFZQAAAAAAAGDAqvC4IfNI9DfOtkbZ/s0h/n6q2/PvRCu4VoH1RLSu13EdD1zvvQrU/3lmUWaO2xYAYDL+IA4AAADA+Ki9p1VY/fnMip6O+UeZf5HZNYTfTxUiq2u19sV+N/NgtM7W2s+6bEyvURVSq2v1xswV0bp097p1AQDGm8IqAAAAwHipgt29mS/HzAuPVdQ8mPnNzAPdXw9LjczdkXkhszHzSrRia+0rrWLy+WN4rS6MVlxd0Z3nt6J1swIAMIYUVgEAAADGy8WZr2fuiJkXG49knsz885i93apnozpnn818O/NatG7PU+N06/OshWN0veq93h6tuFqduVU8Puw2BgAYPwqrAAAAAOPlkmhjgG+K1sk5E/szvxNt/O57I/r7fSfzg8zvR+tird/zqhiv4mq5KrO+O8/PuI0BAMaPwioAAADAeLkoc3/m+sy5MzxWdYL+m2hdq0dG9Pdbo3OPRxsJXKN0n858J/N2tCLzxWNy3epzuOpaXdtdwxp5fMjtDAAwPhRWAQAAAMZLFRLvy1wX/RRW/120TtDjY/B7PxptlG693+czW7u/rgLlBT2cj9k2N3NZtG7jeq/bMjvd0gAA40FhFQAAAGC8VGH1ZzPrYubjcKsL9A8zm2I8CqsfVWOMn4o2Ivj1zIJonaAnM/NitD/3qt24X+recxWID43h+QcAmDoKqwAAAADjpcbf/ly0kbILZnisKqx+O7Mxc2yMz0l1fn4388eZ3dG6Qi8Zg/dd45xviVbYftOtDQAw2hRWAQAAAMZLdax+NVphdaYdq+9nHsm82v16XB3v3n+NBn4t83jmpWiffa0Z4fe9oHt/13W/rgL3Ebc4AMBoUlgFAAAAGC81Rvaz0Ypxi2Z4rOpSfSvzbLROz0mwL1oH6EOZ7Zld0cYDL4nR3MFae1ev6q7n/GhdxHUtTrjVAQBGi8IqAAAAwHipYur6aCNkl/ZwvCquPpzZMoHnqjpAvxWte7UK0ldG+zysiplzRuy9VifyvZnV0Tpvt3Xv8aRbHgBgNCisAgAAAIyX6rpcl/lcZtkMj1WfDS3P/GG0ccCTame04vGD0UYGXxej2b06L3NF5r5o+1ere7UKrMfc9gAAo/GHNQAAAADGR+3grGLb0R6OVZ2b1fW6Jia7O/JwtJHHlTczj2W+3GXNiL3XJV0ujVZcrbHGh7rfw7Hu+p/K4e4+ONzlSPfXRz7214c+8u8e+cixAAA4AwqrAAAAAOOlimKvReu87MvN0Tolt0zB+XupywOZv5r5WuamzOUj9j4Xx4fF35/keOZgdz8c7O6HU3996teHutSvq/v1yMf+3UPdr+tnFVpPdMetnx985N/f3/087vEDAKbZHKcAAAAAYOxckPnd+OSi25n6QeYfZn5nys5jfTZ2WeZvZX49szLG+/OykzP4350q0B6ID4uv2zMvZp6OVox+pfvnAABTyY5VAAAAgPFT3YU/k9nQ0/FqV2uNF/6TKTyX1Y1Z+2UfyeyLNn534Zj+XubMIPOjdcnWvVB7d6vIvCpzQ+bzmZ/N/HLmq5n10Tp867PFPdE6XAEAJp5RwAAAAADjp8a0VvfgrszFPRyvdnrelrkyWoF12ka+bu3yWndefy7zhWiFxmk0t8v8+HDf60fVyOi3o+2rfbM7dzsy73SpX7/rMQUAJo2OVQAAAIDxVF2F1U14ZY/H3Btt5OvhKT2nVQx8OPNytKLqosx50QqMfGhpd9/VbtrqZv1G5v5ou3rXdv9sSXfe6hxWB3AVaqtgf9LpAwDGlcIqAAAAwPi6PVpxqw+1t/XczLeiFVinWXVcPph5JtoO1mvcaj/Vgu5c3ZL5SuZXM38pc2tmTbQCdY1a3u9UAQDjSmEVAAAAYDwdiLbr8is9Ha86CqvL8OnM5mh7XKdVjVo+FG3k7XOZN6J1CF/qtvtEtae1Pmus1WNVZK0u1RpTfVW0zuo7M1/LfD3a2OnLu3/3/cwRpw8AGAcKqwAAAADjqcaqrohWWK1uwDk9HLM6Vmt0axUT33GK//wc13l4LLM7c6I754udmtNWRdbqhq5u1nXROljviPalgEqND66O4Cq01ojh+rxSVysAMJIUVgEAAADGVxVCa5/ltdG6/2aqirNV/Ho+82S0zk1agfXZzCPRin/XRysYznFqzkqdu+r+raLqvZlfjNbNuq77+/WZ5bH4sAP2pHsRABgFCqsAAAAA46tGqNaI2vuiv8JqjQTeGa2QuNsp/jE1frkKznsyn4vWKUw/6ksCq6J1s/5CtGLrTd39XR2s7zpFAMCwKawCAAAAjK/D0Tr5vpFZ1uNxa9ztwcz3nOIfU52TVVzdFG0P7RXRRtgyc1XUr07WKlYv7c5rdbBWcfWuzN3RCq9VgN0ebSwzAMBAKawCAAAAjLfqWr062p7KhT0d8/xoxa0afVtdq8aw/rgqOj8VrchaRegaXzvPaeldFVEviTbquoqrt2fWZlZG23NbqQLrIacKABgEhVUAAACA8Vadfu9nbo1+uyerSFvdgzUS+D2n+Sd6LvNGtMJ2FVjnhb2rs6mK/eujdWj/5fhwt3AV/w915/6k0wQAzBaFVQAAAIDxVh172zL3Zm7u8bhVWL0q81Bmo9P8iWos7QvRuidvCJ+3DUp1s9YXCWon689kruuehdecGgBgtviDHgAAAMB4qw69o5kLohVW+9q1OjezJFqX4EvRirf8Rccyb0XbuVqdw1d214LZt6A717V7tYra12duizY+uDpYdztFAECfFFYBAAAAJsOezPJouyj7VMWq/ZnHMoed5k9Uhednul+vjran1mdvg1Njq9dk7s7cGe0LATUa+Hi0IusJpwgAmCl/uAMAAACYDHujdZjWWNQa49vnrs9FmV3RRt5+4FR/oupYfSpa9+qNmZVOyVBUUfszmV/srsHWzBanBQCYKYVVAAAAgMlxJNpo1A2ZeT0et8YLVwfg96N1xvLp16CKeI9EG9NcI2rnOy0DVV8qqM89T3WxVgfrZ7vrYV8wAHDWFFYBAAAAJseBzM7Ml6LtmexLFWkvj7bT8vnMPqf6U50qrm7KvBttHO1F0Qp9DFad8yuiFVav7O7jGgtcXawnnR4A4EworAIAAABMjhrTW4W82vF5XbQRvn2prssqTm2ONhL4qNP9U1WR+8HMS935W/qxa1U58RNyvPt35jqFvaku1jWZ+zOXRdsbXLtXj3zkfAMAfCqFVQAAAIDJU52St2Su7fm4VZxalXknWucqp+dUgfU7mW3deazu4iqCb8/s+Fjq3zkWbVeo4mr/6osHP59Zm3mrCwDAaf1hGAAAAIDJ83cz/3W0QmifqsvydzP/Q+ZJp/mMVbdkjaatEbX12dwnjaNdGG1fbo0QvjTaGNtLu79XWdZlSSi+nq3qWn0mWsH7P2Qec0oAgE+jsAoAAAAwma7J/BeZvzMLx96T+beZ/znaaGBmVxVZq0D+0cJqFVxPFVYXRyvU1r83v8u8j6T+uvbjnvOxvz+v+/sLP/Lz1K+nyeFohdVvZh7OvOKWAwB+EoVVAAAAgMn1xcw/zVwd/Xc17sv895nfijbOltFRn/lVsbV27J4bbaRw5bzu7533kX9WRdoLP5Iq1q6MVsStf35Od+98tCg7qR2yNZ75X2Z+M9oXBqqj9YTbCQD46B+yAAAAAJhM1dX4q5m/n1nR87FrhG3tDv0vM//aqR5JVQCd0/38aOZ85Oc58ePF01MF1OpaXR5tbHHtJF2TuSFzW3dfTar3Mm9m/iDzTzKvu40AgFPOcQoAAAAAJtahzFuZdV36HPF6qiuydn9uzbzqdI+ck11qL251Xh7PHMsczRzpUvfI+5mD0To0qxO5iou7unvnlS61i7R2kH4v8/3Mc5l3o3W1XjhB56x+Pyu752VDZmm0jux9bicAQGEVAAAAYLJVwawKZWujjQTuWxVWL8k8Ea0Yd9IpnygfdPdQXds3ohVUaw/pQ9GK6VVU39ndY1Wkrc7XKk6O+6S8Gp28PvOZaHtn676uwvP7bgkAmF4KqwAAAACTb3O0QlHtXK2u1b6LXlVYrZ2cj2f2Ot1Tobpft2R+mPn/Mn+S2dT9/brHlsSHu1jHuchaHav3Zu6MVlh9KVr3ry8QAMAUUlgFAAAAmA5vdT+/NAvHro6+KqxWZ+PGzAGne+rs6+6xRzPfjFZorb9elLl8An5/tVf2lsxno41QftklB4Dpo7AKAAAAMB2q2PlOZlXmqsy8no9f+1ZXZ3ZE28epo2/6VMGxRgLXTtLay1pF9ipA1pjot6N1s1bn9MIx/L1V923tkr2pe4bqXj/U/b4AgCmhsAoAAAAwPWpM75uZG6J1Ec7t+fgXZy6INnr4Dafb/RatsPqDzHcz26IVXo9FK7LWZ5PjWGStoupXuvu9fo9Ho3Vrf+CSA8BkU1gFAAAAmB5V+KkOu+q8u6H72bfq5quxqX8ardgE5dT43Acyv5N5MVpR9bJo44LH0bWZn8ksy7yWeddlBoDJprAKAAAAMF1qRG91rVZR9Z5ZOH51wa6I1rlaI2AVVzmlCvvHu3tiS+bpzB9nns/MyVwZ4/V5Zd3rNdp4bebOzNJo448PudQAMJkUVgEAAACmz/5oY1lrHPD10YpafTovWkds7VvdFApN/EU1Pndnd388Fa3Y/3r39+qfVdfzvDH5vdR+4TWZ9dHGAy/s7v3DLjMATBaFVQAAAIDptD3aLtTPRSsG9f05URWXrsi8E20ErP2TfJLauVqjdGsP6wPdPVNF1Qu6+2Z+9L8PeDbUSODPZzZk3o/WlVsduidcYgCYDAqrAAAAANOrRrLuzdwcrbjat+o6rG7YZ8L+SU5PdatWkbVGBFeh9UDmqmhF1nFR9/0XM+uideS+47ICwGRQWAUAAACYXjWqtEawVtGqRvcu7vn49dlTjRtekvlBGI3KT1c7gKuD9f3u3qzC5MOZV7t/XntYR717te77Goddu1dv6p6BtzPvubwAMN4UVgEAAACmW+0/3RqtuHpL9P95URWYrsnsjjYSWHGVM7EnWlG1CvPbulRX64LM0hF/7/Ueq7h6W/de93fxDADAmFJYBQAAAKDG9O6I1l23ItpOyz5Vgen2zAuZjWHfKmeu7pkqsNaI4CqyVmdrja+uwn19xjnKXayLMndG22dcXau13/iw5wAAxo/CKgAAAABlV2Zz5t7of99q7VmtMcNV/Ho9WocsnK19mecyf9TdTyujjdsddcuiFVevi9Z5+6ZLCQDjRWEVAAAAgHI881a0UaU3xuwUV6v4VWNcH+5+wtmoTs+D0To/q4u1RkzXLtbD3T02f0Tfd30WWyOBr81cnbkw2hca9rikADAeFFYBAAAAOKUKVk9FK/7cHK3LtE81trVGDdfo4SqEKa4yU7UjuMZL/1m0LwbUXy+MVlxdNKLvud5bFVa/0L3Xes/VhWv3KgCMOIVVAAAAAD6uOgEviDa2tG8XRSsqfT+MBKZfb2S+lXk0c25mdWbJCL/fKqrelbk12u7V58PeVQAYaQqrAAAAAHzc3mgjgWsX5GXRdqP26fxoo4ZfiNa9Cn3aGW0H659GG7NbhfzFI/x+l0frEL8hWnF4h0sIAKNJYRUAAACAj6uuuepa3ZbZkFnZ8/FPjUKtAlh16R1yyun5/q0O0Nej7WB9M9qo3RpFfdEIvt/6jHZ596yd+iJDPX/vu5QAMHr/pw0AAAAAH3c883K0kcA3Resy7VMVVy+MVkCqztWTTjmzoDpWH4s2erp2mFbnao0Jrv2rc0bsvc7L3BhtNHC91/riwaHuWQQARoDCKgAAAACf5snMpZm7Z+HYK6IVuR7MHHCqmUWHunv5u9GKluuj/y8L9KW+cFC7V+sLDRszW1w+ABgNCqsAAAAAfJpj0fag1qjSG3o+do08vSRaF+GPohW8YDZUR3R1fu7KbMr8MFo365rMkhF7r/VcVEftqszt3a9f8XwAwPAprAIAAADw07wTrQj1mWg7Kuf2eOzae3lttH2YmzNHnG5mWe1brU7QlzK7o40EXhKjV2CtcdlXRhsPXO/tRGZHGA0MAEOjsAoAAADA6ahOvw8y10UrrvapOvIujlZcrdi3yiC8F61z9ZFoRcy6B6vQv2DE3meNBv5S5uruOdyaOeryAcDgKawCAAAAcDqqkPNC5ubMrbNw/JXxYaFL1yqDtDdacbVSRf5bRvR91jNSBdaFmUejjekGAAZIYRUAAACA01FdpFXwfDuzOnNNz8efl7mie42HnW4GqDqxD2XeyLyWea67D6/u7stRUe/lgu59rc3s794zADAgCqsAAAAAnIkaQ1pFqM9G/yOBq2h0eeaZaLskTzjdDNj2aN2gm7v7/Nzuvpw/Qu+x3s8dmeXdM1J7Yg+4dAAw+xRWAQAAADhTO+PD4mqNTp3T47Frx+WyzLPd68AwVGf2H0XrYL2kS+1enTtC7/H6zF3Rumury/Z42E8MALNKYRUAAACAM3U4WtGzxgHXSNI+u/nqWFdlnopWLFIoYpi2ZR7KvJJZFa2jepScn7kxc1NmU/d+AYBZorAKAAAAwJmqYueezJZoRZ2rejx2db8ujDbmtApFdkgyTMe6e70Kq5sz73f35oUj8v7qeVmauSFa4fdE98wcdekAoH8KqwAAAACcrSqs1mjU26PtfexTFWurM/bhaGOHYZiqwPpq5vvRipc1snpJ93MU1Oe8NRr4xu65eS+zL/OBSwcA/f4fLgAAAACcrerkq8+Y7p+FY9dOyyoQvRhtfyQMWxUtf5h5PNoY3ptjtD5jrV2wn8+s6J5Ne4oBoEcKqwAAAADMRHXyHYg2HrV2rvb5eVN1wS7LfCdagRVGQY3CfjfzfJcqsK4dkfdWo4Gri7Y6vquT/GC0LyYAAD1QWAUAAABgpnZntmZuzVzR43HnReu8OxKtgHXQqWZEnOzu+6cy73S/ri8CXDIi76+Kq1XsXd399bZoX4AAAGZAYRUAAACAmaqdk29kFkXrWr2ox2PPj7Y3sgqrtePSzsimPtdb0OW8j+Tc7ufCaPtvjVCefZsyD0bbBXxZ9xycOyLv7crMF6N9KWF7tOLqCZcMAM7+D2AAAAAA0Idno40gvavHY54abbor80Jmj9P85+fj8u5cX5vZEG3sa/28KVrn8LrM4midigpps+94d38+FK1z9bpoRe9RUEX2e6J94aG+nLDD5QKAs/+DKQAAAAD05Y7Mf5P5pZ6PW6OG/0HmN6bkPC6N1v24MlrXYeXSaKNm659VV+TCj6SKeHO7/2195leFvn2Zf5f5Z9F2gjIYN2Tuz/z1zN0j9L7qSwnfzfxWd18AAAAAAAAwZL+YeTNace9kj/lWZk1MxxS2r2b+j8wfZJ6M1mV4Nufs9cx/l7nFbTlQNcL6VzL/NtqXAk6OUB7O/Hq0Yj0AcAaMAgYAAACgb/ujjautfavn93jc6sqssbY1cvjQhJ/DezN/Ndp+zOpUXXyWx7kwWtfk8mjF7r1h7+og1C7gF6N1iC6JNra59q6OwuexH927+lx3P9hdDACnQWEVAAAAgL5V0XNjtOLg2h6PW8XFizPfjLZzdZK9EW187zdi5rs650Xr9L0vcyzzfPeTwTwLT2ReiVYgXzMi76vGR9cu3ir4Pp15z6UCgJ9OYRUAAACAvtW40SrUHM1cn1nR03Frh2h1wG7OvJZ5f4LP4ZHMzswFmZti5sXVKqTVftZ1mcu767PVrTqQZ+H97n6t+/adzKponcTDVHt4a0/vNd09ceo96lwFgE+hsAoAAADAbNkUrYD0uZh5YfCUKq5WgfCFaIWgSVbF1epcrc7CVd3vfaaWd9ejrkt1U1bx9rBbddbVuN3ad/ujaN3C9WWDi6J1Ew9TFdxvjFZsr/tge0z2FxYAYEYUVgEAAACYLce7rMmsjn4+i6ri4hXRxtn+MFpH4KSq7sEd0Qpw1fm7rKfj1nWoYloVWLdE2wV60u06ENXF/XC0Lx1Up2gVuudH6yAdpnpGqzN6f3c/2MMLAJ/whygAAAAAmC21C7WKNV+PNnq0L/syr0YbrTrpqjO3Ohzv7vGYVcirQu36aJ2KT7pVB2pb5vHMgWhF7kUj8J6qi/naaB3hz3fvDQD4CIVVAAAAAGZTjT2tcbPVdVlFm/N6Om4d793MQ1NwDg9m3o62b/WWHo9b3b8ru3NZxdsq9p1wyw7suagvBWzqzntd21VDfk91P1QHbXVHX9y9r20uFQB8SGEVAAAAgNlWRaTN0YqC63o65pJonZa/F21s6aSPsq2RwFWEq3Gtl0a/uzlXdHksWocxg/NetL2ru7rrujT6+/LB2VqcubN7Hy9H6zhXcAeAUFgFAAAAYPbVrtAqHFVR9fbMwp6OW4XVVzJboxVvJ10VuGr88Wcyl/V43CrS1t7aR8O+1WHZmHkwWqfotT0+IzNRI4qrkF9jgd92iQBAYRUAAACAwahiXY0VXR2tWNOH+dE66R6JVnScdMe6c3g0c020XZh9qH2rVcirzwqrUP2O23Uoz8eezEvd+b8yWhfxMNX9cHm0Qn69txddJgCmncIqAAAAAINSO1FrvOiXMudGK+jNRBUDq7j4QOatKTmHNfZ4c7R9mOuj7ebsQxX2qohWhdVH3apDsztah2gVMuuLA1d2P4dlXvceav/rse45O+QyATCtFFYBAAAAGKQqzlQBr8YCL5jhsaowe2HmmcyzMR3jgEsVtt6IVnCrztXFMfMidf3vq9hdu1y/F23MMsNxJPNUd1/XFweqsDnsvatVWK0x3nsz2zMHw8hoAKaQwioAAAAAg1SdeFUA/fnMoh6OV/tbaxxw7ah8a4rOYxW2at/qsmg7ORf1dNzqhK19uE+7VUfiWfl+d03u6X4O0/mZO7vnrcYCH3CJAJg2CqsAAAAADFIVQqsgU3sb+xpzWrsoX4jpGmFb3YLVPfhatL21N/d03KXRCnjfDl2ro/Cs1O7gTZmt0bpGLxni+6n7YklmbbQia3VN73aZAJgmCqsAAAAADFqNOq3C4IaYeaGoRtjWmNS3Mw91x54mu7pUkfrqHo5Xhe7l0TpiX+t+MlzvRfvSQF2LGvu8MmY+Rnsmavx27fdd2D13O10iAKaFwioAAAAAg1ZF1S2Zz2VujJnvBy3vRysEvh7Tt/txc7Ti6hejdRLO9HxW8a72aT6QedPtOhKqe/XJaF2il0brXp3X07NzNmr09C3RivDVUbu7e48AMNEUVgEAAAAYtCp8VmfpTZnPRz+fUVXX6vbMn8X0FVbLu5kdmbujjWudqepG/NfRCtWMjrrGz2eORhunPW+I76W6m9dEK/LWfbLF5QFg0imsAgAAADAMVfysAuANmct7OF510B3P/IeYzt2g9Xt+K9o44KuiFZpnoroP/2UorI6ausff6a7LKOxdrQL82u491MjiTS4RAJNMYRUAAACAYanxvbUv8gs9HGtOl4ejFZ5OTOn53BOtE/iqGR5rf+ZfRRs9y+ip0bs/iNa5WoXNizNzh/Reqmu2Rnpf3j17O7r3BQATR2EVAAAAgGHZF21f5F+JfnZFHsvszbzS/Zw2dQ43Z27N3DXDc7oz89vRumAZXU9EK37XvtOLYrif91b37Gejda1ujOkcyQ3AhFNYBQAAAGCYlmfuy5wfMy+uLog2XvhPMtum+JyuyGyI1sV4NmrcbBVUfyfauFlGW3WJPh3tSwrXDfF9nNPdc9W9eiDzrEsDwKRRWAUAAABgmBZH27Na3W4LZnisU4WdBzMvTPE5rV2X1b14z1n+749kXsr8QWa7W3Tk1djd6lrd0j0DNQb63CG9lxpHfFlmdbTianWPn3CJAJgUCqsAAAAADFPtZ6yu1duida32cbwqMj0TrbAzjU6NQf6FzMI4807gOm+PZb4TbZcn46Hu+yqIL41W3Fwc/YzYPhuXd8/029G6n4+4PABMAoVVAAAAAIaputkWZb6WWdbTMQ9H2/G4aYrP6/zM1ZkroxVXz0R1vNY45Ycz+92iY2VP5qnuuaqRvEuG+F7qixK167cKvs+7NABMAoVVAAAAAIap9nm+n/mVaDsi+1BjcGsU8MNTfF4PZQ5mvhhnXrB+N/PbmeeijZllfJyM1rFcXyqoPcM1knflkN5LffZ8Yeba7n582uUBYNwprAIAAAAwbFV0uT9zTfTzeVXtl6zxo9V1Oa37HY9ltmY+353XuWfwv30z8xvR9quedHuOpX3RvlxQP1dE22E8LPWFieqeroLv5lCsB2CMKawCAAAAMGz1GdV10UaXnt/TMWsk6hOZXZkPpvS81l7LizM3ROviPR1ViK79qr8ZrZuY8VXF9RoLXF8yqK7R2mU8b0jvpbpm74w2FnhzKK4CMMZ/aAUAAACAYapuyssyG7qffaiiYhWUqmvv2BSf252Z9d25PR3VpfoHmT8L3aqTYke0LxlUcfXqIb6PxZnPdfeYscAAjCWFVQAAAACGbU607sjqaLu+p2NWEae64r4Zrcg6rd7LXJH5crRuxTk/5d+vvbT/OPO223JiHO2u5+uZpdE6w4ehvkBR+36ruHs4WjctAIwVhVUAAAAARsH+zN3Riqt9mB+tkFiF1V1Tfm6r83RdZm18+q7VKsD9q8y/Cd2qk6h251ZxtXauVrF94ZDeR+1crS7q3d17OuLSADAuFFYBAAAAGAXVsXpL5r746V2Vp6v2hdbI0ddiuscB7+3OaZ3bhZ9y/quD8F9kNrodJ9bWzI+idY1WhrVztfa9fj6zKfNq96wCwMhTWAUAAABgVFyVuT1zQfRTXK1izbuZF6N1x02rY925+Gpm5Sf8Ox9k/sdo+1WPuhUn2oFoxdUay/uZIb6PGtd9c7Q9wM+5LACMA4VVAAAAAEbFgmjjamsHZB+F1VM7Hb+XeWPKz22NW639mjdklnzsn1Wh7Z9l/mm0QjSTrYrotXu3xgJXwb3G8g5jLHA945dkLo/2xYeXXBoARp3CKgAAAACj4nDmoszX49N3gZ6u+uyrRo7+WbSRwNOsCmg1BvaOaCNgT9mX+b3M/5LZHHarTpMd3XNxfuayaJ3iw7Aq2g7guv+2xXSP7QYAAAAAADht90froDzZY/5+tLGjRPzv0Yqsp87N/5u5y2mZatXB/A+ijeQ9OaQcijae+KsuBwCjTMcqAAAAAKOkCqD3RhsR2tdnV1UwqjGj7zi9MS+zIXNp5h9n/lG0rsUTTs3Uqp26L3f3QO1cXTik+7Ke+doBXJ3Vm10WAEaRwioAAAAAo6QKLDWW9Pror8v0vMxrmced3j/foVodwVVk/j8zT4WiKm0kdO1cPZ65Jtp44EGrz6prTHV10L6ZedtlAWDUKKwCAAAAMEo+iFbc+UJmRU/HXJZ5I/NHYYdo7bF9LvOD0BXIj9sb7csHVVS9MtrO1TkDfg+1W7n2rVb36quZ3aHwD8AIUVgFAAAAYJRUUbVG9/5iZm2Px92R+cNohcVpV8Xr2ml50qngY45FK7pfmLklc+4Q3kN9Zr06WmH3pe6/BwAwEhRWAQAAABg1R6Lterwh+ivs7I/WqbktWvF22imq8kn3RRVXa3R27V69NQZfXK0u2drzWsXV6mB9JfOeSwPAKFBYBQAAAGAU1V7UGzNX9HjMKq4+kXnf6YVPVYXMKmhWkXNVtA7WYfw3YE20Yu/zmYMuCwDDprAKAAAAwCiqIsr6aJ2rfagOuCrQfCt0v8HpqC8iPBxtR/FV0XavDnrnar3mNd0z+2bmgMsCwDAprAIAAAAwiqqr9LrM13o6Xo0UrQ6438lsdXrhtNTY7KeijQOuLzksHMJ7WBxt3+vGzIthjDUAQ6SwCgAAAMAo+iBzSebOzNJohdGZqE67eZknoxVojjjFcFoOZTZH27l6Wwy+uFrP/gXRxgLvyrzgkgAwLAqrAAAAAIyqKqhUcXVDtKLoTJ2I1glb+xq3O71w2moUb3WLVvfo6mgjegft8i5vZN6K9uULABgohVUAAAAARlUVQZdkvh5tFGkfqtvu0cwrTi+ckdpv+ki0wup1MZyxwPXa6zI/yrwbxgIDMGAKqwAAAACMquPdz1/KLOvheDUOuMYKV1HmUacXztjhzDOZizKfHdJ7uDhzTbSx3jtdEgAGSWEVAAAAgFFWHWm3RutUm2mH3Kk9q5uiFVcPOb1wxvZG27m6KNqY7rkDfv0FmWujfbZd+5J3uSQADIrCKgAAAACjbG6XW6LtW+1DjTR9NfO60wtnZUfmhcwVmVUx+LHA9SWJ9dG62p/NHHRJABgEhVUAAAAARtmJaB1yX81c3dMxq1D7ZuaHTi+ctT3RRmrfFK2DdNDmZy6PVlx9OnPUJQFgtimsAgAAADDKahRwdZjeE/3tdKwRpu9l/r3TCzN6Nqu4+nLm0sz1A3796lq9IFrXbO1arQ50xVUAZpXCKgAAAACj7oNoxZMaB3xBD8erz8Rqv+q3oxVtTzrFcNbeyWyPtgd57YBfu4qrK7r/PmyJVuQFgFmjsAoAAADAOKjiau1y3NDT8aqwurnLEacXZqSeozcyt2YujsF/7nxltD2vGzPbXA4AZovCKgAAAADjYFfmmsz9PR2vdrfuzjwRbYcrMDM1FvitaMXVFUN4/eqWPS/zQBgJDMAsUVgFAAAAYBxUx2oVa74WrTNtzgyPtyCzJPP70fYzAjNTnd9VWD2WWZdZPuDXnxetc3Vx5rHQiQ7ALFBYBQAAAGBcVEF1fbSRwPNneKz6XGxZtD2rNT7UnlWYuSqqvtY9Xzdmzh/w6y/uXvfd7n0cckkA6JPCKgAAAADjooqfVTi5q/s5U/XZ2IuZ50IBBvpSz9KbmUXRxnfXzzkDfP0aB3xDtO7Zl6ON/QaAXiisAgAAADAuDkfriPuVzAU9HK8KtbW79aXM204v9OZgtE7wGs17bcy8w/xMVBF3abQC6xvRirwA0AuFVQAAAADGRRVCj2a+nFkdM/9sqwowF2We7gL0o3Yi74lW2FyZuWnArz83c1m0zvYnMntdEgD6oLAKAAAAwLhZEW3Xah9dq7UDssaF/lm0YhDQn3ei7Tu9PLM2BjsSeGH3mqW6Z99zOQCYKYVVAAAAAMZJFWaqa/XWzNU9HXN75uHMvmhdsUB/NkcbtX1nZlm0btJBqeLq5zKbMs+GfasAzJDCKgAAAADjpLpKay/q5zO393TMI9GKPy+HrlWYDdu7Z+zuaMXVQZoXrcN9a+Z5lwKAmVBYBQAAAGDcHMtcE60D7rwejld7GKu4+s3Q0Qaz9czWON764sL1Mfjiau1SrtHhr2a2uBwAnC2FVQAAAADGURVU10U/44BrXGiNJ/39zP4wDhhmQz1XT0Xba7whs2jAr39F5sLMY5kDnnMAzobCKgAAAADj6HBmVebeHo/3QubNaDtcgf5Vx2qNBV4SbffpINVn4RdHK6pu7H4CwBn/nwkAAAAAjJtDmaWZX47+PuPal3kms8fphVnzXmZ3ZnXmyhjcZ9RzohV0a4z4i10A4IworAIAAAAwjmqM57zMHZlLul/PRH1Otjzzp9G6VoHZUV2r73SpIufqAb52FVdrv2t1rr7uWQfgbP7ACAAAAADjqPaiLsjcEq17dSbqc7KLMg9lnotW/AFmRz1fm7rn9/pohc5Bqt3Mtaf5wWjd7wBw2n9gBAAAAIBxdKjLL0TrWu3DW9FGhBoHDLPv5WjF1fuH8NpVzF2UeTjsVQbgNCmsAgAAADCuahxw7UX9UubaaB2sM1Wdr69G61oFZlcVNN/onuUa6z3Iz6vPz1yW2RptLLDiKgA/lcIqAAAAAOPsWLRu1Ruj7U6cqdqzWoWWB6IVe4DZVV+OeCWzKnNVtA7WQanx35dmXos2mhgAPpXCKgAAAADjrLpUaxzwDV36UIWeGg+6N+xahUF4P1phs57h1dFP9/npqtc7knmme+YB4BMprAIAAAAwzqqr9L3Mhsy9PR5zR+bZaB2xwOw6kdkVrVv1+mj7TwdpbffzAZcCgE+jsAoAAADAuKuizMrMndF2pM6Z4fEWZc7LfDNz0OmFgT3Hb0crrt6dmTfA167nfUVme2Zj914A4C9QWAUAAABgEtTI3tqVeGvMvLBaBZ3zM9+Ntm9VkQUG40C04mp9UaK6SBcO8LUvzKzJPJ3ZFsaAA/ATKKwCAAAAMAlqN+IFmZ+Pfj7zOp7ZnXk12qhhYDDquXspWtfqqgG+bu11ra7V2rH8iucegJ9EYRUAAACASVBdpTVC9BuZZT0crz43qz2P38+84fTCQFVxs8byro/WiT4o9dyvy7yZedxlAOAn/R8FAAAAAEyCk9HGh66JtjNxJupzs0syz2WeCOOAYZDqeduUWZy5IVo3+qAsifaliiquvuZSAPDxPyACAAAAwKQ4lLkj2o7GmapdrUcyL2becWphoD7onrvad3xbZv4AX7tGEF+UeTDzfrQvbQCAwioAAAAAE+NYZlu0ccDX9nTM6lrdkfme0wsDtz/aztUbM5dl5g3wtRdljmZezhx0KQAoCqsAAAAATJLqMK0dibWb8fwejlcjhatj7YFo3bA612Bw6nl7N7Mlc3dm+QBfu8YQX5d5OvOKSwFAUVgFAAAAYNLsjdaxur6n4y2I1gn7arQONmBwPr5vdemAXndu5sLu9TZmtroUACisAgAAADBpqghaOxK/Eq04MmeGx6uu1QuijQPe5fTCULwQbXdy7Vsd5Ejg6lqtMeO1b9UXKwCmnMIqAAAAAJPo4sznonWczZ3hsc7pjvNQGAkKw1JFzQ8yazNrBvza1bV6OPNk9x4AmFIKqwAAAABMoiqCXJS5I2be3VYdr9W1WgXalzI7nV4YuJPds1c7j78QbTTwoFzY/ffk8cyOsGsZYGoprAIAAAAwifZHK65+LVpRpA9XZV6PVlxRWIHBO5J5I3N+5vrMogG9bn2p4tLu54uZPS4FwHRSWAUAAABgElXhswqrtY/x6uina3VhtILtE6GwAsNSxdWnMrdkro2Zj/o+Xed0/z2pXa/PhJHAAFNJYRUAAACASVWFj9rLWAWYFT0ds3a37ou2bxUYjkNd1mRWD/B1q4hbXbJvReteB2DKKKwCAAAAMKmqsPp25vbMrT0dc0m07tfvRSuwGgkMw1HP9vzMnTG4kcDlssyxzA+idcUDMEUUVgEAAACYVKfGAS+LVly9oKfjLo7WLVcjQQ86zTAU1Y3+brQdyrVvdeGAXreKuRd1r70p2mhiAAAAAACAibAu839FK7T2keqEfTlzj1MLQ1W7jzdknuzx+T7d/wbUntfbXAKA6aJjFQAAAIBJdyBat+rPRus2m6k53fG2ZV7J7HeKYajPd3WO3xStk3QQ6r8B50crstZ/A/a4DADTQWEVAAAAgElX3WU1NnRV5upoO1Jnam7m0sybmWedYhia2ne6qXu+b84sGNDr1utclXkr83T33xkAJpzCKgAAAADT4P3MrswXMhf3dMzl0Yo6D3bHB4ajvjhRe4+r0HnNAF93SbQu+I3RCqwATDiFVQAAAACmwfFo4zrvzlwXreO0D1VYqeLqo5kTTjMMzTvdz5+LfrrST1d1ytZo4D+INhoYgAmmsAoAAADAtDjSpXYxruzpmLVncWnm+5mdTjEMTX2xob48UR2kt0Y/+5RPRxVxa+fye9FGEh91KQAml8IqAAAAANOkdqKuy9wR/XSt1jFqtHDtV3w+s88phqHZm9kcrbB6ZQzu8+/6gkWNIX48s8VlAJhcCqsAAAAATJMa21tFkFsyl/R0zOqMuzHzbOaVMBIYhqm6Vhdkru3xGf9p6nP2yzNbMy9mDroMAJNJYRUAAACAafNutPG9X+rxmAujda++HjrWYJhqz+nGzNrMnQN+7Wu6137OZQCYTAqrAAAAAEyb6iarrtIvRNuN2MdI4DmZyzKHMg9ljjvNMDS1S7l2ntZ43qsH+Lr1hY3qiq/C6i6XAWDyKKwCAAAAMI2quFqfjW3ILOnpmOdmlme2ZzaF4ioM09vRvuhwX/dszhnQ6y7rnv1HohVZAZggCqsAAAAATKP3M5szX8msjv6KLlVYXZN5MLPTaYahqsLqpd0zed6AXrO6Vi/K/DCzLdpoYgAmhMIqAAAAANOqiqtVdLk22kjgvpzqgH052jhSYDiqM/2NzJejjeoelPO6/6Y84b8BAJNFYRUAAACAafVBtI6y2sG4ocfjLoy223FH5tkwEhiG+Yy/E2087/po3aSDUP8NWJt5JdoXLIwEBpgQCqsAAAAATLPd0TpMv5hZ1ONxz4/WsXZq3+oHTjUMTe1brY7V22Jwu1YXdnktWtcsABNAYRUAAACAaXc4szhze/T7edkVmRWZR6MVcO1ahOHY1z3j90T7IsWgiqvVtbon822XAGAyKKwCAAAAMO32R9vFeF/mwh6POzc+3OFaI4G3O9UwFPWlhm3dM/nVGFxhtV6vOuHfjTYW2JcrAMacwioAAAAA0+5EZlfmvMxN0Trb+jI/c120gm2NA93qdMNQvJ/ZmbklszIzb0CvW/tdL878IFr3KgBjTGEVAAAAACKOZV6KtoPx6uj/c7MN0XauVudqjSW1cxUG71DmQObGaGO6B6EKuFXIrT2vr3bvAYAxpbAKAAAAAG1EZxU8qrNsfeaiWXiNdZk1mcei7VwFBqu+QLEx85loX6IYlHO65//xzOsuA8D4UlgFAAAAgKaKqzWq97LMnbNw/BoLfFVmbbTiyttOOQxcFVdrp/I1mVUDes3atbo8syXzXPf6AIwhhVUAAAAA+FCN6a3O1c/G7IwKreLqDZmlmTdDcRWGoQqcizJfijaqd86AXrd2LW+LNhIcgDGksAoAAAAAP25P5r1oXatLYnaKLjdH62Cr0aD7w85VGKQT3TN3fbQO9fkDet2V3et+M3PcZQAYPwqrAAAAAPDjalRoFVers3RNzF7R5cru+D/I7HXaYaB2ZQ5kvhate3VQ5nSvvSlz1GUAGC8KqwAAAADw42rXanWsvhWts3T1LL3OwszVmYui7V3c49TDwFTH6LuZ9d0zvnBAr3t+tM7V72R2uwwA40VhFQAAAAB+slN7GG+LVgyZDbXf8TPRxgG/GK2DDhiMI9G+RHFTtA7yQahn/vLMM5mNoWsVYKworAIAAADAJ3s72p7Ve2J2dq2esiZagecRpxwGpvad1kjeGzN3z/Iz/lG143VBtMLqWy4DwPhQWAUAAACAT3YwWlfbddE62mar8HKqI/bJaPtWP3DqYWBqr/IVmXUDer25mcuijQB/1OkHGB8KqwAAAADwyWrfau1h3J65PloxZDZUwfaSaJ/XVaHlfaceBmZn9+x9Ldqo3tlWz/vC7jl/OrPLJQAYDwqrAAAAAPDpqpvtpcz8zOrMxdE6zvp2XrSRwN+NNoJY1yoM7hmv/cbVmb6qe9YHYWnmcOahaF/iAGDEKawCAAAAwOl5JloR5NbMhbP4Olsyr2b2O+UwMNU9Wp2jX8osG9Br1gjw2rf6zcwhlwBg9CmsAgAAAMDpqQLIm5mtmbWZS2fhNerzugsyj2fecMphYI5HG/tdX5y4JgbTtVojgU92z/pb0fY5AzDCFFYBAAAA4PRVV9sL0Trbqqvtiuh3J2MVWlZknss8EsaDwiBVR3qNBL6pe7YHYUG0DvgaB7zbJQAYbQqrAAAAAHBmavfp85k90XauXh79fc42pzvWtsxjmX1ONwxMPX8bM+syd8ZgPj9f0P035IHM5rBbGWCkKawCAAAAwNmp0Z17MzdG6zKd0+OxD2Zey7zsNMPALclcn7ms5+f6k1TX+xvd8+7LFAAjTGEVAAAAAM5O7WTcEq24elfm/B6PXSOAX8380GmGgatdq9VJ+vUBvV4Vb5dHGzPuyxQAI0xhFQAAAADO3pFoo0MvylyXWdTTcauwWntWv+MUw8AdirZr9Z7u2R7E5+iXZF7PfC+MAwYYWQqrAAAAADAz1bn6YuaOaLsZ+xgdeizzROZPnF4YilPFzRr1feGAXvO97rnfHe3LFQCMmLlOAQAAAADMSBVgtmaeidbp1heFFRieKm7+dmbzAF+zirj3xWD2ugJwFhRWAQAAAGDmTmQey7zS0/EOR79FWuDMn+naofz7mTcH9JqrMj8b/Y0UB6BnCqsAAAAA0I/aifpMT8faH20sKDBcv5v54wG91oLMzZlbu18DMGIUVgEAAACgHzU6dE9Px9rfHQ8Yro2Z70frIB/EeO7Fmb+UucKpBxg9CqsAAAAA0I/bMnf0dKyd0fa2AsP3ROabmeMDeK0LoxVWVzrtAKNHYRUAAAAAZmZOZmm0YsitPR2ziqobnVoYCfUs/j+ZgwN4rXmZ9dFGAhsHDDBiFFYBAAAAYGbOy9yX+WpmSU/H3Bo6VmFUVEH1kczzmWMDes3PZ9Y69QCjRWEVAAAAAGZmWebXMmt6POaOGMzYUeD0HMj8XmbLgF7vzsxnnHaA0aKwCgAAAAAzc23mrmidqzN1MrM/s8tphZGyL9o44NcG9HrrQmEVYOQorAIAAADA2bs88zOZS3o6XnWpvprZ7tTCSKlnc3PmR5m9A3i9czMbMqsz5zj9AKNBYRUAAAAAzt4tmW/0eLwq3jyZeduphZH03czjA3qtqzO/lFnstAOMBoVVAAAAADh7q6J1lc3r6XgnMs+EwiqMqh9mHhnQa63JfDUz32kHGA0KqwAAAABwdpZkrssszMzp6ZhHonWs7nN6YSTVDuSnup8nZ/m1qqB6W7TOVQBGgMIqAAAAAJydGzPrezxejQF+LfNW5gOnF0ZW7UF+NHN4AK+1PHNf9LfHGYAZUFgFAAAAgLPz/7N359F23dd92DdIEAABkOAAzhM4z4MozpQoyZoHK7It25LjOEOTJrWbxl39I+lazWrarq6stE3/aNM6ae3WmR07thPLkiwpEikOoihR4kyKkwhO4AiS4ASABIju3d95ATiBeLjnnnvve5/PWt/1ABA4597fve8AvPvs/Xtf5pQej/dCtBGjWywtTLUnMn8WrWt13Kpr9RPRuuMBmDCFVQAAAADYO1XoWNfj8TZGGzG62dLCVHsmc3XmlQHOVaPGL+n5WgPAXlJYBQAAAID5WxqtsLqix2M+mbkm86rlhalWY7sfzNwe478RovZvrv2cL8wcbukBJkthFQAAAADmpz5TOzZzVI/HnNtf9YHM65YYpl6N7P5G5rGBzveBzBWWHWDy/wgEAAAAAPbcysw5mf17PGaNFr3T0sLMqBsgro/WuTqE2tP5SssOMFkKqwAAAAAwP6syp0cbz9mXuzK3WFqYGdsz90XrNB/Cfpmzo3XK+1wfYEJcgAEAAABgfqqwelbmgB6PeVO0/RqB2bAjszVzR+bpgc55auYT0e9NHQDMg8IqAAAAAMxPFVbP6L6Oaq44U2OAN1pamDnVaX7DQOc6IvPzmcMsO8BkKKwCAAAAwPzU3qonRxvNOarap7E6VTdYVphJd2duHuhc1al6abQCKwAToLAKAAAAAPNTRY1DMkt6ONbmzHcyD1tWmEkvZW7LvDzAuZZ0154rModbeoDhKawCAAAAwJ6rbtWTMkt7Ot6mzDcyT1lamFkPReta3TLAueoz/RoHfLZlBxiewioAAAAA7Lljoo0B3tHDsd7IrM/cEcMUZIDxqP2R/yTz7ADnqs/0L8+cFz7fBxicCy8AAAAA7Lkav3lc9DMGuLpUbwxFVZh1VVD9VuaFAc41d+05M3NYT9ciAPaQwioAAAAA7LmjM2f0dKwaH/rVzGuWFWba9sz9MWz3+cWZK6Of7nkA9pDCKgAAAADsuepWPaGnY90TbV/G1y0rzLy6QeKb0W6YGELd4PGZzHJLDzAchVUAAAAA2DM1cvOozP4x+vjNVzM/yWwOHWewUK4P12VuG+h8KzPvi7bns3HAAANRWAUAAACA91afox0cbY/VPvwo2thQYGF4I/NItE70oRyR+XRmreUHGO4fhAAAAADA7tXnaGdmju3peFdnfmxZYUGpsd63Zu6LVmgdtyqo/vker0sA7ME/CAEAAACA3ds3c1GMvr9qjf2tMcC1t+ozlhUWnOpE/+PM9gHOVfur1jjg8zIrLD3A+CmsAgAAAMB7q8/Rzs4cPeJxtkYbA7zBksKC9HDmmmg3UAzlw5nTLD3AMP8gBAAAAAB2rzrDahTwyhGP82K0McBPWFJYkGoE8AOZazMvDXTOz2Teb+kBxk9hFQAAAAB2b1nmjBi9W7VszHy1+wosTE9m/nkMdwPF4ZlLM2sySyw/wPgorAIAAADA7h2c+UBm/xGPsy3z08xt0UYCAwvTy5lvZe6LYfZaLRdkrszsZ/kBxkdhFQAAAAB275DMuTH6GODqYvtBtFGhwMJWY79rP+XnBjpfjSqvkcD7WnqA8VFYBQAAAIDdm+tYXTXicap7rfZX3WZJYcGrGyj+JNrNFEM4MFrH6vGWHmB8FFYBAAAA4N3VfoVVqDgps3TEY/0kc2tmh2WFRaG+378b7WaKIb7vT8h8NrPW0gOMh8IqAAAAALy7AzKn93Cc6l57OPOSJYVFo77v78jcH8N0qtc+0L/U0zULgHegsAoAAAAA7646VU8b8RjVqVZF1ccsJyw6d2f+feb1Ac61PHN+5hTLDjAeCqsAAAAA8O7Ozlw44jG2Z27LPGg5YdHZEG2v1WcHOFeNLl+R+XAorgKMhcIqAAAAALy7Gql5Ug/HuSnzkOWERadGANf+yjdmNg90zg9lPmnpAfqnsAoAAAAA7+7YzLIRj1GFldpn8WnLCYtSjQH+d9H2Wh3CiZlLLDtA/xRWAQAAAODt9s0ckzm0h2Nt6AIsTq9mvpG5b8Bz1t7QH4w2GhiAniisAgAAAMDb7Zc5K3PYiMepgsrdmU2WFBatNzLPZ76XeXKgc1Zh9VdCYRWgVwqrAAAAAPB2Nf733Bi9sFrFlNtiuL0Vgel1TeY7A53rkMzHMuuideAD0AOFVQAAAAB4u6WZU2P0UcAvZ+6N1rkKLG611/J3Bzzf2sxHuq8A9EBhFQAAAADerj43q1HAB454nJeiday+Yklh0dsWrbj6g8zWAc63KvPL0W4SAaCnfyACAAAAAG9WHV7Hx+gjNJ/NPBCtoAJwX+Z3o910MW7VeX9x5qJo+0YDMCKFVQAAAAB4sypGnBat22sUb2QeD2OAgZ02Zr6aeSizfcznWhKtBnB5d00DYEQKqwAAAADwZodEG525dMTjVAHlEcsJvMVzmWsyzwx0viszn7DsAKNTWAUAAACANzs4c1KMXlh9MvOw5QTeorrY/1XmroHOd3TmqswaSw8wGoVVAAAAAHizg6KfwmqNAdaxCrxVjQm/NfO9zOYBzlcjgc/JfDRGH3EOsKgprAIAAADAm1VX1wkxemH1qWjFVYB3clPm9oHOdXjmS5mjLDvA3lNYBQAAAIA3W51ZF6MXVp/OPGo5gXdxQ+brA17XahzwcZYdYO8prAIAAADAmx2S2T/a+MxR1B6rmy0n8C5eyFwbrbP9jTGfq2oBR2Q+lTnG0gPs/cUUAAAAAGiqS/WIEY+xI/N65lnLCbyH+zN/mNk0wLmqePuzmSssO8DeUVgFAAAAgJ3WRtuLcBRVvKgxwC9ZTuA9PJP5/cyGAc5V9YAzMudbdoC9v5ACAAAAAM2RMXrH6vbMU6GwCry3rZlbMndktg1wvhpxflHmshh93DnAoqOwCgAAAAA7HRutuDqK6lit7jOFVWBPvJr548zdA53vwswvhMIqwLwprAIAAADATtWtetiIx6iOVYVVYD6+lbk62o0Z41bXuKsyx2f2tfQAe05hFQAAAAB2Oihz4IjHmNtj9WXLCeyhTZnbuq87Bjhf3UTy8czBlh5gzymsAgAAAMBOh2QOHfEYVVh9MnSsAvO7bnw/86cDna9Gnv+FGH1PaYBFRWEVAAAAAHZam9l/xGPMjQLWsQrMxwOZP8hsHOBcyzNXZN7fwzUPYNFQWAUAAACAZkn0MxZzbhTw65YUmIe6ZtQ44B9ntg5wvtpf9VOZ0y09wJ5RWAUAAACAZr/Mqp6OtclyAnt57aiu1UcHOl8VVi+37AB7RmEVAAAAANrnZLW36soejvVK5lVLCuyFGiH+lcw9A52vuvSrsHp4qBcA7NE/GAEAAABgsVuaOTqzoodjPRfGAAN7p/Zofirz3cyzA53z4syno3XtA7AbCqsAAAAA0AoK1bG1fMTj7Mg8330F2FvfynxzoHOdlvli5kDLDrB7CqsAAAAA0DpW18boHatbou2RuN2SAiO4N/P9gc5VdYKzMhfE6DeXACxoCqsAAAAAELFv5qDMshGPU4XVGt+psAqMYmvmh5kbY5jR4kdmfiVznKUHeHcKqwAAAADQCqsHxOh7DFYx5IVQWAVGd3/md7tryrhVt/7nonWtqhsAvAsXSAAAAABohdXVMXphtTrLNoc9VoHRPZe5OrNhgHNVreDQzEWZgy09wLtfLAEAAABgsavC6prop7D6aiisAqOr68jTma9lnhjgfEsyn8p8yNIDvDOFVQAAAADot7D6SuYNSwr0oG7U+FeZOwc63zmZT0YbDQzAWyisAgAAAEArrB4YoxdWt0UrrOpYBfpQN2tUUfXmzJaBroUXZt6fWW75Ad5MYRUAAAAA2udkqzJLRzxOFVZrj1Udq0Cfvp/58UDnWpf55cwBlh3g7f9gBAAAAIDFrj4n66NjdW4UsI5VoE83ZL490LkOibbX6gmWHeDt/2AEAAAAgMWuOlVrj9UlIx6nOlZrT0Qdq0CfNkYrrj6Z2T7mc1Xd4KTMpzNrLT3Amy+QAAAAALDY1edkK3s4ThU8toaOVaB/D2b+febFAc5V17Cfz1xi2QHe/A9GAAAAAKCfLtM6RhVXFVaBvj0arbD60gDn2jdzVuZcyw6wk8IqAAAAALQRwCssAzDFqhv+psztmdcGuCYuz3w0c5mlB2gUVgEAAACg38KqblVgXJ6P1rW6fqDzXZz5crR9qAEWPYVVAAAAAGiF1T7MjQJe7KrTbVmP6wrsvFZ9I/Pjgc53ULSO1ZNDPQHAhRAAAAAA0n7RTxFwW2Zz9LNf6yz7tcz/nPmktxb0qq4tG2LnOOAhOuSPz3wpc6jlBxY7hVUAAAAAaIXVPiz2jtX6vPG0aEWYv5L5jcz7elxfoF1jrstcH8N0hVdB9Vcyp1h6YLFTWAUAAACA/vYPXBKLe/ztsZm/ljk3szrzqWgF1uO8xaBX1bH6R9G6VsetboyoGyauyhxo6YHFTGEVAAAAACL27ek4i31P0YujjQE+dJd1/QuZ873FoFcvRdtndcNA56uRw1/IXGHpgcVMYRUAAAAA+iuIVufrqlicBdaPZv5O5vDY+bljrcOazEWZtd5m0JsqdD6c+XeZZwe6RtYNEpf3fM0EmCkKqwAAAADQ376o1aFZYzMXW9Hh7Mx/Gq2A+k4uy5znbQa92pj5Z9EKrEPYP/Oh2FlcBVh0FFYBAAAAIOKNno6zo8tiUZ8vHpL59cynd/P7zsxc6G0GvdqauSVzd+b1gc5ZN0j8arTOfIBFR2EVAAAAAPrrMF2ySxaDGvP7pczHM6t38/tqPPDJ3mYwFtdm7hvwe746Vo+37MBipLAKAAAAABFbop9O0xoFvGKRrFkVjz+c+ZvRiqZL3mNdjovW3eozSejX1zI/GOhc9f27LvPlzJGWHlhs/CMGAAAAANpIzT7MFVYXw+duH8z8tcwZe/h8D4u2F+tybzfo1YbMTZkXY5hR5AdEK6yeY+mBxUZhFQAAAAD6G91bn7ftFwt7FHAVj4/K/PXY/b6qb1XdqrXP6v7ebtC7OzI3xDB7rS6N1qV+aex+BDjAgqOwCgAAAABNH8XQKjjsHwu7sFrP77/JfHaef672WX1/6FiFcbgz8/WBz/m5zFWWHlhMFFYBAAAAoI3P3NLDcZZlVsXC/dzt0Mx/lvliZs08/2x1tl2SOcjbDXpXY4CvzzwUw4wDLhdkPhatix1gUVBYBQAAAICI7ZlXejhOjQFeGQvzc7cqjH4m85vRuk/nq9bkhMzp0QrQQL8eida1+txA56v9pC/PXNxd+wAWPIVVAAAAAGgdXtt6OE6NAq7C6kIcBXxZ5lczR4+4zpeOeAzgnb2a+ZPMTwc852nddeEAyw8sBgqrAAAAABDxRvTTsbpQC6tHZn4lWnfaqOtTo0NP9JaD3tU48x9mHhjwnDXa+8PhZglgkVBYBQAAAIA2CvjF7usoahxmjcxdSJ+7HZL5zzOfi9G70qqwel60vRmXeNtBr6oj/OXMd6ONBR5CXevqRonPx96NCAeYKQqrAAAAANAKqi9lXh/xOMszB2b2XSDrUt23H8/8RuawHo5XxdTaX7XGAZ/kbQdjcU3mGwOer24o+eXMhZYeWOgUVgEAAACgFVar02vUfVbnCqsL5XO3SzK/Ga3A2qfqWv0ZbzsYixoF/MMBz1eF1bMy51h6YKFTWAUAAACAtsdqHx2rK6KNzl0IHavHRhvvWV1oy3o+do0OrcLqft560Lu6UeTuzM2Z1wY659Lue/pSyw8sZAqrAAAAALBzj9VRixD1edvaWBifu/1C5s9F/0XVUgXo6lq9KFqXL9Cv+zL/MvPqgOe8tLtmACxYCqsAAAAA0N8o4HJQzHbHaj3206LtmTjOfVCrAP1LmcO9/aB3z0TbZ/WxaB35Q6hu/csyx4faA7BAubgBAAAAQMSOaJ1d23s41oous6oKnn81xltULYdmPhWtGAP076nM9ZnnBzznuswXMmssP7AQKawCAAAAQOtUreLD1h6OVXsNznJR4fzMlzKHjfk81Rl7aubizAHegtC7Gm/+L6KNBR7K0d31Y63lBxYihVUAAAAAiHg9WnfX5h6OtSTaeNtZHAd8crS9VY+LYT47rDX6XOZMb0HoXd0wckPmphh9/+g9VXsmXxDthomVXgJgoVFYBQAAAIBWgHg6s6WHY1Wx8IjM6hlbgyoIfyjz+WijkYfygcz7u/MD/ft+5v4Bzzd3w8QZlh5YaBRWAQAAAKAVVp+Lfrq66jO36lhdNUPPf0n3eN/XPfYhi5wHZ86N1t2muAr9uzbzrQHPt1/m05lzLD2w0CisAgAAAEDE9syG6KdjtT5zOypmb9/Qj2WujOE/M6zzVcfqB0NhFcbhiczV0W4eGaIbvb6PD8pcFq17H2DBUFgFAAAAgFZs2JR5tYdj1RjMI2O2RgHvn/n5mNzoztMyP9c9DqB/d0frWn15wHNekfmopQcWEoVVAAAAANjplR6OUYXVWRsFXI+3xnZOqrC5JnNx6G6DcXky8/vR9pIeSo34/nioQwALiAsaAAAAAOz0Qg/HqM/cqmN1VkYB1x6nH8isneBjWNKt2Scm/DhgoaqbRq7LPDDgOetaWDdsXJhZ7iUAFgKFVQAAAADYaWOMPiqzOlaPzhw4I8+5ukS/EG1PxEmqAu+XM8d5G0Lvatz5M5mvZh4e8LynZP5SuGECWCAUVgEAAABgp2e6jKK6L2sM8EEz8pyPj9axOuk9YVdE25Ox9nld6q0IvatrUxVWrxvwnHUd/GLmbN/XwEKgsAoAAAAAOz2VebanYx06A8+3Ph88NXNYtKLLpFW376WZY70VoXfVtVrdqrfv8vMh1PXlg9HGfQPMNIVVAAAAANjpiRi9Y3XO4TH9xdXqIqtC5rR8TljF3U9mLvFWhLHYnrkxc3UMdzNFXV9+JXOZ5QdmncIqAAAAAOz0eObJno51VOaEKX++F2aunLLHVKOAr4o2GniJtyT07s7Mv8lsGfCcJ2U+mjnE9zUwyxRWAQAAAGCn6lZ9uqdjHRHTPdK2ihunRCt4TJvzMudm9vOWhN69kLk+c0+0DtahXBytuLrMSwDMKoVVAAAAANjp5ehvj9XaV3Ca9xSs/UyPm9LHdnLms5nl3pIwFnUDye9lNgx4zho9/gvdtQdgJimsAgAAAMBOb2Q29nSs6lZdN6XPszpBa+TuMVP6+Gp/2s/EdBemYZY9H62wet+A56zx3tW1+qHMSi8BMIsUVgEAAADgzZ7v8saIx1kdrbA6jfsJVifoFTG9hdWl0Qq/H+rWEejXtswjmW9Ff136e6JulvgbmdO8BMAsUlgFAAAAgDd7KfNwtMLDqKqIcMAUPsfa4/D8aPvATqsaF/qFaONDgfH4SuabA56vOlU/n7k81CeAGeTCBQAAAABvtimzPvoprFa3Ze0XumzKnmN1hL4vs2aKX4caG/rBzKnekjA2D2RuitE79OfrS5mfsfzArFFYBQAAAIA3q7GYP8m83sOxDsyck9l/ip5fjSY+tsu+U/w67NOt3wcyx3lbwli8lrk28/UYtrh6WeYXM2u9BMAs2dcSAAAAAMCbVHHhkMzHo42tHEUVZ5/M/Cjz8pQ8v1XR9i79TPfjaVeP8ZnMj701YSxeiDYCvTrEa3T5EPtCV23ioO7c92e2ehmAWaBjFQAAAADerAqgD0Y/o4CrSFGjbFdO0fOrovFJ0cYBz4LTo+3HCIxHFTVvzvwws2XA856Y+fUw7huYIQqrAAAAAPBmOzJPROukGlUVVM+L6RoFfHDmtJi+fV/fTX2GWeOUr4i27yrQ/zXvqcxvRdtzdcjv7boW/e1oN1AATD2jgAEAAADg7aqb86rMuhjtM7QaqVnF1T/L/DRaAWPSzsr8WubImJ3PB2sNqzh9Y0zPSGVYSLZn1kcrcNaNDEPdeFHX2tO6a+VD0fa4BphaCqsAAAAA8HbLoxUY6gP/1SMeq4qpd2XuyWyegud2UeYvR+v+XDIjr0cVVY/KXJN5LNo+uEC/dnTfWzUqfN2A563O1bO77/O6TtYY9te9HMA0UlgFAAAAgLfbL3Nc5vzMYSMea2608N3Rxm1O2gczPxezU1SdU59lbsjcn3nRWxTG4vFo+zB/fALX3LqZ5bLMa933+WteDmAa/zECAAAAALxZFR3rg/7a1/P4EY9VhdUad/mjzH0Tfl7VffuZzIcGONcz0UZ7LusyaiG31rCK3bdOwTrCQrWtS3XrHxPD1RDq+lCTAk7InBKts76+36uD9gkvCzAtFFYBAAAA4O2qGFp7eVYB8uwRj1UFgwMzN2d+MOHnVUWLKqy+b4Bz3ZL5vWhdZ4dnVvWwjtVJ93i3jlu9TWEsXspszFyaOXgC56/rxXndderYaAXWNd01ZEnYZxmYIIVVAAAAAHi7KqzWfqiXRysujNJtOdf9Wvusfqc79qRUkfiT0brRxu26zD/KPNmd97iejrs983DmQW9TGIu6aeGRzLmZM6J1i0/C6l2uWZ+Otu/rwd3jq+LvPt3vs+cyMBiFVQAAAAB4d1VUuDDaB/yjqv1Bb4vWCTYpF0fbO/HYAc51beYPMo9F2zfx/J6OW3vevpL5mrcnjM327ppVhc3jp+DxrOyuW3UN+3zmI9G6WKt79WkvFzAUhVUAAAAAeHc1evbMaCN0R1VdVdVpeUdMrmv1o9G6v9aM+Txzhc8qrtYo4LnOs7U9HLu6f+tzzRoH/Fy0AhDQr7pG1djtupGhbopYNQWPaXl3LTk0Wtf9ydHGBV/QXauryLrJSweMk8IqAAAAALy7bdE+vL+kh2Ptn3kh82cxudGVPxet02u/MZ/n0cxXo3XoliqAHpS5sqfjL+++3p550dsUxqZG7tYNERdM4WObK7DWdeXM7hqzLNr49S2Z1718AAAAAAAwrL8ZrXurj1wfbY/ASfmdHp/L7nJT5gtvOXf9/IUez1HF2w97e8LYfSrz1EDXjlFSN6xUx2qNIP9s5gAvHdA3HasAAAAAsHtHRev0XNrDsV6NNsK2ihTbBn4e9Vngr0Xr7Bq3OzPfyTy0y69V4aPGip4SratsVDUStEaV3h+6VmGcXuquV9W1uv8UP87qVK1u9tqL9dLMxzJHd9cJI4KB3v4xBQAAAAC8u9qP9LJoYydH/TytOqqqa/OuaMWKoeyTOSLz5cxJA5yvOnO/nXl6l1+rovLGzM9E2w9xVFVEOTxa8fZOb1MYm1e777PTu+vH0il/vFVcrZs4To02KvjEaDfIrOquQa95SYG9pbAKAAAAALtXH9JXUfKMzMoRj1Wfx9WH+zdE66IaSnWIVlHkZzPHDXC+r0QrrL66y69Vx1t16l4crWu1j+JM7f1Y3arfDcUSGKf6PtsarbB63Aw97tp3tTptP9s97rrJZEv3dXsMPzkAmHEKqwAAAACwe/XBe42//FC0D+lHUZ/HVZH2W5l7BnwOK6KNAP5EtM6tcfv9zLXv8vxrJHB1kR3d4/mqC+3eaIUSYDyqa7W6zT8crTA5S+q6U4XVGg/88WgdrTU14PHuvwHs8T/kAAAAAIB3V4XVVzJfyBw54rFqfG19JvfTzE9iuHHA1SX7/mjF4cPGfK4qUvzf3fN7qxqF/ETmvMz7ejpfjWquwvfXMpu9XWFs6saF6jpf2V1PZsnctbe692uEeHXeXpL5QLTO97oWP+clBt6LwioAAAAA7F4VCmuk7eXRRtju18Mxq9B5X7QuyyEcEK2oWs/hoDGeZ65w+s8yj77L76ni54GZi6IVRUdVr8fB3Xo+HEYCwzhV8fHJzDnRut/3mdHnUdfEYzPnRxuTfkLmmO7aXNeoV7zUwDtRWAUAAACA91afo9UIzNpntY+OzypIVCGwxuUOMYayCpifjNYlumqM56mCxI+idY8+uZvf93JmdeayaJ1ko6riTnWd3RHD7l0Li9ELmeczp3bXw31m/Pms7a6NtQ/rWd3zqZtp5vZftQ8r8KZ/EAIAAAAAu1fFvxqDWeMvT+npmFV4/G5mS4y/uFodnZ/PnJ1ZPsbzvJj5Xuaa2P1YzRq7uTTzuZ4eTx2r9my9OXOLtyuMVRUa10crQJ7VXV8Wiiqy1g0fX+iul3Wteijswwp0FFYBAAAA4L3Vh+qbohVWL+nxuI9FGwe8fcyP/9DMl6N1mI2zu6yKqX8arWt1d6M0a2Tw65njo43gHLW4WoXv/bqv1Qn8hLcsjFV9/9a476e668txC+R51U0atYdsFYtPzpzZXfPr+VWn/bNeeljcFFYBAAAAYM9UIeGkzAeiny7LGslbH+J/K9oI3XE6PPNXM0eO+TxPZ343WnHzvcZn1l6oz2Su6B5fH2rEcnWY1YjlN7xlYazqe+32zMZotYbat3TNAnp+y6Ltw3phtFHB1c26uvv1+vvgVW8BWHwUVgEAAABgz1XhoIqrJ8boe4PWh/P7Z74Zu9+PtA9VcPz1GO/+qqU62H4rWsH0vVRhovZDrUJ17V3bRydtFbyr+/eH0faAVFyF8arvsZ9kvt19D5/UXdeWxOzvvfrWa38VWH82Whdrqe7Vzd1zda2BRUJhFQAAAAD2XO0hekTmIz0dr4qAVVz8abQxk+NSI4B/LbNizOtTBZbfjtaNuqfPv4q9p3Tr2ofqKKsixw3zeBzAaKrAWGPNr4t2Y0XteXzIAnye+3bXqosyH8us6/5eeNxbABYHhVUAAAAA2HNVPKhO089E24dvVDUK+LDM96PttzoO1TVWnVa/0D32cakO1BszfxTz696qPRrXRX9711ahtkZ2Xh9tr9Ud3rYwiNpX+eHM/dFusvhpd808qKfr5bSo/ZwPjLbv6uldzuuuPc/E+Ee7AxOksAoAAAAA81ejIOtD9VELlfX5XHV2/SBzR7QOzr7Vh/21j+knY7yF1Rq9e02X+TyP6tStMZsfilZ8WdLDYzmwO24VdzZ5u8Kg6nvu7mjjgR/tfl43XtQNF1WUXL6Anutcx/2VmdO65/dGl5e9FWDhUVgFAAAAgPmpz9SqQHl+5uCejlmdlXdGK0727dBo+5h+MNqH/uNSz+GaaEXi+e43WL9/TbSur74+s6x9cG+NVlwFJuORzNWZb0TrZl3ZXZNWLcDnWiOCP5z5aPd3xCNjuqYDE/5HIAAAAACw52rfzhpfW+OAj+3pmFVkeDBa12rfjor2YX/tCTjOwmoVTf5DtALxfAurL0XraPt89LMPbI0/ri7YGq98W7QRpcDwdnSp7s3qXq0bL76S+WG0Ttb6Pj1ogTzX6rav8e61t2zta12TAtZlnsxs9FaAhUFhFQAAAADmp4qGVRCoQuUZ0c943ep8rc6mb2W29fx412U+njkr2of+43JP5uvRCqzzLazW6OBXuvU8vqc1rSJHFTiqCH6bty1M3JZoe5BWJ+ct0fZgvbe7djzR/fe6+WMhdLPWOPLqmj872g041ZFfxeXnvA1gtimsAgAAAMDeqeJfFQKP6eFY+3Rfb49WCOxzr9Xa96+6a0+I8X4eWIWSP8k8G61Dbb7qz7wQbcTyUT09prXRCqxfi9YRu8PbFqZCfS9WMbXGddderNdnHo9WeJz7Xq3pAHP7si6Z0edZReIacV7j2OvGlo3d89vqegSzSWEVAAAAAPZOFQWqC/Sino63vPv6/cyrPT7OeoyfyxwZOwu441AjPv9ohMdexYbqdr0qc06Pj6uKFzWKc320YgYwfTZn7s9cm/n9zHeijQ6u60ntyXrAjD+/GnF+QeYT0faZvS/aCHRgxiisAgAAAMDeqbGVR2Quz+wfo3dU1QfvNbq29il9osfH+b7Mz0UbTTnOwmoVRP59zH8M8K6qU7cKKKdH6zbtQx2vOmCvDvscwrSqGyBqDPpr3bW1uldrVPCPY2dH6/poxcgaq7tyxp5f/f1QUw6qSHxytM78+vm90e+EAmDMFFYBAAAAYO9VAaA6QavDctSiZX3wXgWD2mv1rmj78fXh0swvxvjHaX4jWpfZqJ7t1vTSnh5Xjd88LvNQtI64zd62MBNq3+WnMw9mfpS5M1ohsn5e3awbu99T3f4rZuh51XX+zMypmYOiFZSfif731wbGQGEVAAAAAPZe7QdYHZo13rGPrtXq2qq9UGtM5D3Rzx58H8x8PsZbVK01+Ermxh6O9WJmdeZT0Tq6+njctY6HRet4u8/bFmZSXRuqi/V70fZzvqn7nq4bXOrGkbqJooqTdZPLLNQ+auLBz0S78aNuKKmR5dtjtK5/YMwUVgEAAABg7+3ocknmmBj987YqCFRRsT5gvzn62Wv1I5mPjXkNquDx1WhjO/tQ61CF0NOiFUxGVcXZGsH5WLSRwDu8dWHmbYrWvXpdtDHk9b1dnaw19vzoGXoeNar8A5njMw+EkeUw1RRWAQAAAGA0W7uvF0Qb6ziqKirWKNzqYPpRD8f7TLSu1XGpImUVLP8s2gjjPtQY5CrWfjpaobkPS7vX55keHycwOdXZ+Vp3vahi5ANdbovWzVrdrXN7Ye83xc+jHlvtr31K5qxoo4Ifj/7GwQM9UlgFAAAAgNHU6MYqLF6UOaOnY1YB8IBoo3VfiL3vsFyV+Wy0jtpxqcf2k8w3o3WP9eH1aGOWL4zWxdVXUeTwzMpoe8G+GjpXYaGZGxf8wy4PRyu6vtpln+4aMI1qnHx16Z8XbQx6PZeXohWPgSmhsAoAAAAAo6niXHUWVQHw/GjFzD7Ucapbs7orN+3lMWoc5iejddOOS3WNVYdYFSsf6/G4Nb63CqynRxuV2Zfl0brBquCy2dsXFqwqpN4f7aaP2pP1vu6aUjeuHBg7b6xYMmWPuzpWP9Bdt5+INt54e7gRBKaCwioAAAAA9GNDtH1W+ypirsicGK0wUB2h2/biGOsyn8icOcbnXYXVGrt5bebpHo871wl8aebcHo9bBetjM9dH28sWWPhqJHAVKWu8+p913/91vTqky7SpYu9h3fWv/l6pG0Ge9TLC5CmsAgAAAEA/amRvjW+8Ilqn6ahdUDWysoqA1a35SLQC63ydnflY5qQxPu8qrP6HaIWKTT0et7qzqhhSnWU1GvPgno5bn4lWoaK6wO7NvOKtC4vCa901qm6CuTPa6PK7o00FqC72V7vrzLIpeby1L3QVfc/orll1s80T3eMEJkRhFQAAAAD6U6Nlq6haBc0VPR2zuitrv9UqBNRegfMZB3lx5iPRPpQflyqs/mHm+5mtYzh+7bVaBebaJ7bPzzOrgFLF1bu9bWFRqg7QKqpeE63rfn20PU23d9fyutbW6PB9Jvw4a+/Vc7trYI0yfrp7fNu8hAAAAAAAzLLqUr0w2ujeHT2mPkCvPQJPnOfj+evRCoc7xpjqAvtijG+fwjruVdH2cd3a4+Ou4slvRSvWLvHWhUVtn+5aUN2qh2c+k/lfo3W175iSbO+ut1+JdsMMMAE6VgEAAACgXzWm8YjMKdG6V/tQH/pX1+npmYeija3cEx/PfCDaON1xqXG9/yTaHoDjUp1lL3TPpa81rWLqyszz0brWdnjrwqK1a/Hyle4aW9eF70Qbc14/r8kBayf4GOuaNTfK/JzMCZkHMi96+WA4CqsAAAAA0K8a1Vgfwtc44NN6PG51UlVh9bBoYyCf6b7uzp/LXBltnOU4VCHiscw/zTw15jX9abSxyFWw3r+n4x4UbQ/D66IVWAHmrjl1M0eNC781c1+0m1rWR7vRo6YIVJF1Et3u9XfBcdHGA9ffBy9H23t1u5cNxk9hFQAAAAD6VcXGKnquibYn3qqej39G5n3Ruqrqg//XuryTX+4ew7g+/K/z3h5tNOWzY17XKnQ8GW0c8qk9Paf6fPTQaMWT6vza7O0LvIPnumvdN6PtJ/1Ud/1Y1V3zl8XwRda6weT93fWwrr+bumvYG14uGB+FVQAAAAAYjw3RPnS/fAzHrk7LSzMXRRs9fH+8c7fSr0YbGTkuL2VujjYuc4iOz43ROkwvi/66Vusz0hqp+cPMI962wHuoDtHaR/trmZui7f28LvobUz5ftSfsld21sf4ueM5LBOOjsAoAAAAA41FFx+qyrO7S6orcp8dj17GqaFsFwRoPXEXWk6PtGVpdS9Ut+7OZL0YbFTku9QH+1dGKCy8NsKZVPK4xy1VU7atgvW+3RnXcO6MVqgHezRvdtb2uFeujdbvfEG1SQV1LDhn48SyNdrPNSdFG0Nfju8vLBOOhsAoAAAAA41Ojems04wXRip19qwLrEZnzoo2ErA/W12U+mPm1aHu8Lh3j86t9/f4oc3dmy0BrWgXcGgl8Zubo6OczzhrhWcWQ6jK+09sW2EM1Brg66WsP1tu6a35dC1eP6Zq/O3WzTd1oc3L3d0P93fOslwgAAAAAgFlSH7D/i2jjIncssPwgWtF42cBrWh2rn8j8KLOtx+fze9G6fpd42wJ7qW7S+LvRxvLO7Xk69LW59r/+7Wjj4ld4SaA/OlYBAAAAYLyq8Fd7d57cZSG5N/N/RCsaD6lGAle3bI2/rM7VA3s6bnX3vhitIPKaty6wF6pjtbr4a9/muknjrBjv5IB3UrWfmmBwfvd4bveyQH/fXAAAAADA+FT3UI2Yrc/iav+7QxfI86qC8bWZfzuh89ceh49mDs5c0tMxD8gclbku87S3LrCXav/Vh7rUfqf7RSt0DtkNX52q6zIndte1uhllo5cGRqOwCgAAAADDeCpa11KNZly+AJ5PFTX/OHPTBB9D7Wf4TOa4aAWEUT/vrNfnmGjFh3syr3jbAiNe92/urpe172mNMT8whq3NVFH1Q9317bnMptCRD3tNYRUAAAAAhvFytC7IczNHR+tgmmXfz/xh5uEJP47qBq6ixVXRTzdw7Yd4Rua+zJ3etkAP6jp5debxaDeCHBvDdq/WuS7OnJZ5sns827wsMH8KqwAAAAAwnOoUqtGQF0Yrrs6yr2f+ZUxH51N1rlYnVu0neNCIx6qustXR9lqtEZ7Pe9sCPai9qOsmkBqhXp2s66KNMh/SEdFu7jkh2h7Zm7wsMD8KqwAAAAAwnOqGrE6h+jD7lMyRM/ocakTuv8jcOCWPqQoWD2TWROvIWj3i8aq767Bo+yRe720L9HitqskFNWq89jzdHO0mm/0HOv/S7u+d6sqvsed1A8lDXhbYcwqrAAAAADC86oSsAmWNZlw9Y4/99WhjgH8vWvfVtKjO2RoLXB1gZ8Xoo5ZrH8Tqfv1B5tnu9QLoQ92ccmvmlmh7bldxdUW0wucQqpB7Qeb4aKOBXwp7SsMeUVgFAAAAgMmobqUtmStitvZbrcf8O5nvxPR9EF9je2ss8OmZo2L0zz+r4FGF7yp+GJkJ9K06Rr+b+WnmxGj7rw6pzvfB7lp+f7QOWmA3FFYBAAAAYDJejtYpVB1KNZZxxYw87hob+b90X3dM2WOrx/NMtHHL58To+9jWa1IdXVVYvW8Kny8w2+qasi1a9/+dmfUx7N6r+3TnOjVakbX+TnrCywLvTmEVAAAAACbnuWgFyho7e1IMt8/e3qqRuL+b+ZNoewVOoxpV/GC00Za1pkeNcKzaa3VVtK7VKqxu8JYFxqBGmT+SuSNa531dd9ZG65ofwiGZc6MVWeumnye6aynwFgqrAAAAADBZG6N1Kx2aOTmzbEofZ3VV1fjfvx+tIDzte45W91cVRt8XrXA9itO61+nGUGwAxqdGrf8oc3u0ImelbrgZopZTI+nP7a6ZT2Uei1bwBXahsAoAAAAAk1cdSuujFQDPjjaecdrUHoD/PHNNtCLrLKgu0yoAf7yHY1XR4enMT7xdgTGrm1e+l3kg2t6rxwx47oMyH452Y0qNQVdchV0orAIAAADA5G2P1iFUe4O+kjkl2ijIafKPMv8ys2mG1rUKAo92Xy+I0bqBq6O4RgJfG23MMMA4/06o68z6zF2ZzdEmGgwxLn7f7lpXfw/Vvqt1489jXhLY+Q0CAAAAAEzejmj72t0TrVPo6Gj73k1aFVL/KPO/RSv8zpp6/DUWuPYrXJdZuZfHqY7V2q/1hcy90QodAONUN4WsjzYauMaQ180hh3bXo3Fbk7kkWgdrnbv22H7VSwIAAAAAwLSpbqFfj1bIrA/Wd0woVTz8g8wJC2BNT8r8v5mtI6xHjRWuDtjPhKYVYHgfzXyluzZvH/Dvghqr/jeidczu42VgMfOXPwAAAABMnyqmPpi5KXN45rQJPY7fzfy9aMXEN2Z8TWus5uOZAzLn7eUxqpO4RjRX11YVGp71VgUGVCPjf9hde2q8+cqBzrumu25W1/5tmZe9FCxWCqsAAAAAMJ2qI+mhaF2rT0brFDp6oHP/OPPb0To8fxKzX1SN7jlsyDyTOThaB+vefD5a3VpVXKh9B7/nbQoMaG4k7/3d3w9Lo404H3etp657NRK4bvI5PtpI9PVeDhYjhVUAAAAAmG7VLXp9tA+y60P0+kyviqx977G3JfNI5rpoRdX/M1pBd6Gp57g+WpH62Gh7Fs7XAV3ujrYv7g5vU2BA1TF6a7Qbb+rvgip6VlfpkjGftzpkq1P2yMyL0W4wse8qAAAAAABTpz4wr71XfzHz9WgdrX3tn1ejh6/N/KXMobHw99CrtfxI5hsjrFkVE34/2qhmgEldy9Zm/nq0Ltah9lytCQD3Zv6LzCFeBhYTHasAAAAAMDuqAPpY5geZq6N1XtZoyMNi/p2X1aFae/X968xvZf5VtD1dn4vF0YH5dLQu4OpaPX4v/nx1ia3pXo8aybnV2xOYgLrJozrxv59Znjknxt+5WsevkeqnRhtF/EBmo5eCxWCJJQAAAACAmXVM5uzMmZkTo3UOVargV+OC5z7/q+6iKvxtivbhd6UKgtVxdFu0ccOLUa3R5zJ/K3N5zL9TtwrQN2f+68y3vR2BCXt/5pcyn4g2sncIVdj9t9FGyF/nJWChU1gFAAAAgIWj9v08Idr+odVNtKTLtsxLmQ3RuitfslT/Ua1PjVeukZZVlFixF8f4x5n/Ptp+qwCTVNMLfjnzl6MVVw8e6Lz/obsO1s06L3oZAAAAAACYdtVxuTTaB+srdsny7teWxsLfP3Vv1BpVcbVGLO/NfoPPZP62ZQSmQN0ssjLamN4a874thtl3taYi3BOtqGsbShYsb24AAAAAWDjqw+0a+7s92ofpc9ne5Y1YHPunzlet0ePR9l09Kua/52oVMao4W/sMbujWGWBSau/t2i/7/u66dFDmuDGfs+pNazOnZ1Zl7os2JhgWFIVVAAAAAIDWbVWFgNp/tvaprf1rl87jz8/tb/ujaAUNgEmr61ntA/1Md42rwueBYz7nEZkzok1JeCHzlJeBhURhFQAAAACgqU7Tn2SejNbdNZ/iahURTsk82B3jNcsJTIGaUnBv5obuOnVaZr+Y340j87Umc0W0TtnHot1sss1LwUKgsAoAAAAA8GZPRCuuHps5cR5/rvavrX0N7+sCMC22ZG7L3JE5ep7Xtr2xb3eOM7vr6f1eAhYChVUAAAAAgDerzqrqsqoRltVxVZ2oS/bgz9XvOTTafrb3ZJ61lMCUqM7VzdG66mvf1YczB2eOHOM5q0P2hC77dNdFnavMNIVVAAAAAIC3qw//q+v00Wh7ElaH14o9/LOHRyuufj/zuqUEpkiNPH+kuz5tyiyPVgA9aEznqxtOjs+c311Xn+jOCzNJYRUAAAAA4N1VAaK6rI6KNtJynz34M6sza7s/V0UExVVg2tTNH7dnvh2t2Fqjz6u4uiT2rEN/vurYn4g2kvjuzKvRumhhpiisAgAAAADs3vPRulerEHHpHv6ZNZl10brCnraEwJR6pbu+fS/aTSDnZZaO6VxVsD092mjgB1wbmUUKqwAAAAAAu1fdXLXf6vpoXVa15+rq9/gz9dnruszWzL2ZFywjMKWquFrd+T/NPBRtZO9xmf3GcK5V0YqrNV69OlZrr1dd/cwMhVUAAAAAgD3zbLQO1CqqnhRt79X3cnL3526LVqwAmOZr3E3RbiKprtUa31uF0L5rSVWwPSvazSe13+qGzGbLzyxQWAUAAAAA2HPVWVUjM6uL9crMsvf4/SujFSiqa/WJ7s8BTLMqdF6deTTaTSRHxJ7tLz1fc3tXv5y52bIzCxRWAQAAAADmpzpPa2Rmjc48O3Pwbn5v7Sl4WLTOr2uijRIGmGY1ove1aIXVGzOPZ47PHNLzeer6eGi0PVcPyNwZbXw6TC2FVQAAAACA+asOqzui7Z1ahYHaj3DJu/ze5dGKElsyd4WRl8BsqCJnddrfnXm6+7Uqrq7q8Rx13ayO2NO789VNK69YeqaVwioAAAAAwN7Znrkl2r6ENdJybbQi6jupXz8/c3/mgbDfKjA7qtP+1mh7TNe1bG7v1f16PMeaaPuuPpe5L3SuMqUUVgEAAAAARlMjgat7tUYCV9fVO33uWl1ZK6LtyfpQtBGbALPkpWijgWtkb3WZntbz8Vdnjs28GK2QC1NHYRUAAAAAYDTVfbohWsG0RgOfEm2/wLeq4uqR3Y9vDuMugdlSe69WJ2ndGFKd989317vVPR1/n2h7Ulf3/8PddXW7ZWeaKKwCAAAAAPRjbi/C16IVUA9/h99TXavHRCvG1u+13yowa97IPJb5cbQxwdWtXwXRPmpOVVw9tjtejU5/3HIzTRRWAQAAAAD683K0fQirc/W8aJ1cb/0ctrpZz8nclXkwdGQBs6luDKnRwFX8rGLoUd31bsmIx63iao0ZrtHDd3ZfYSoorAIAAAAA9Ku6udZH6+Y6PnPSO/ye6lw9M1rX6npLBsywKqzel1kT777P9N44I9rI9OstMdNCYRUAAAAAoH+1D2HtuVr7BNbY3yqu7r/Lf6+OrBoXvCxa1+pTlgyYUa9nHumud9u7693KHo5b18zqgt0UrXMVJk5hFQAAAABgfKrQUAWB+iz2oMwh0Yqqc9Z1P78lWmcWwKzakLk3WlH1hGij0EdVe62eGK0j9sloN6rAxCisAgAAAACMV+23WvsQVlfqyZkjYucehMujda7WXoUPhOIqMNuez9wfbdz5hZmlPRyzRgwfGq24+oQlZpIUVgEAAAAAxu+1zGOZ2zKrMmfv8t+qq+vUaKODq3Cw3XIBM+zFzDOZY7ssG/F4+2WOyTyXuTWzxRIzKQqrAAAAAADDqGLAw11qT8LjoxVVaxRwjQiuwkF1td5rqYAZtiPa2N66meT8aMXVUVV3/9GZlzI3W2ImRWEVAAAAAGBYtQ/hDdH2IawxwDXmsoqrx2UOjjYSuH7PDksFzLBHohVDayTwih6OV+OA6waUu6MVbnX3MziFVQAAAACA4dVo4OujdbGeFa1jtayLVoi4OvOyZQJmXO0fXR2rZ/Z0vLpWnpj5Xmaj5WVoCqsAAAAAAJNR3VbrM49mDsucEK1z9cgut0TbqxBgWlRdqbrtl3XXsPfqrK/u+3WZj/V0/qWZwzNvRNuTepOXhCEttQQAAAAAABPzbOb3ohVQKz+TOTDzFzLPZf5x5kHLBOyBJdH2bd6/SxVAa2/SKoLu132tLN3lx3P/rX5tn7f8uI63b/d75hr19umOWbZGK3DueMtjqILr611eyFzc8/Os5/jnM49nfid09zMghVUAAAAAgMmqwsSfZl6KVpT4SLSCyN+MVpj4n6IVJ4DFaek7pAqc+3ap/Utrr+bqfD8i2l6kB3dfD+quJ6uiFSRXd79/9S6ZRTUy/ZcyP818I9p4dRjkmxEAAAAAgMn7fuYfRuv2+ny0rrAvZV6JVlx93RLBolMF1OMzx2WOiba/aP249hqtQmqNxa0u912Lrfu85cdLuuz647mfz7L3Z34j2kjge71VGILCKgAAAADAdKixmjdEK3ZUF+vPRiui1FjgKq7+08zzlgkWpNpjuQqn1Yl5VLSi6dpoBdTqRj2gy9yP58b9LmZ188lVmf8283fD2HQGoLAKAAAAADA9apzltzObo+1b+MnM6Zm/ldmS+YPMRssEM6tG786N6j2w+1odqKd1X4+NVmCtkb77WK73VMXlL2eeyPzvmfWWBAAAAAAAFp/qxPpKtGJrFVlvj9a9uszSwEyo5rbqqqw9Tqvz9LzML2b+h8y/y9yV2dZ9f8toqVHp/2O0QusSbz3GZV9LAAAAAAAwlZ7uUmNBT442FrS62J7N/MTywNQ7O/PhzH+S+S8zfznzmcxl0TpUa39Uk0X7Ud291fFbhexbot2QAr3zDQsAAAAAMJ1qHPA1sXPP1RoL/IHux/XZ7le73wNMXjWynRFtX+Qqmp4UO/dNrR+vsURjty7zhczvZl6yHIyDwioAAAAAwPSqfVW/FjvHhX402ojgKuJUgfWbmZctE0xEjfet/VKr8/TMzCWZczIXZfazPBNRHf4rLAPjorAKAAAAADD9qoBahZraq7EKq1dmtme2RutcBYZVY2c/kfl45kOZIy3JVHg12k0nMBYKqwAAAAAAs+HaaGOBq3v1ZzJXZH4z83q0wiswXjXW9yPRRnJXZ2p1R1bHqjG/0+OeaJ3+MBYKqwAAAAAAs6H2DPyzaN1Y9ePPZj7W/bcDMl+P1q0F9KNGbp8ebd/U+np25oLMuWHU7zTYmFmfeTzzaOaxzC2ZTZaGcVFYBQAAAACYHdWdWqN/n+9+/OloxdXV0Qo91bn6nGWCvbJ/tJsU5r6eFa07/LLM+ZZnol7LvBJtT+n6uiFzW+amzO3ROlVh7JZYAgAAAACAmVNNM9U597cyvxqti/XezG912WaJYF7q5oSLMx/OvC9aIfWQaDcs7Bsa1SapbiK5M/P9zHXRCqpPRNtjuq5127vA2CmsAgAAAADMpir01EjSL2Z+I9o+jw9mvpb5J5m7LBHsVu2TWvulnplZlzky2r6pa6N1rTIZL0brQK3ckXkgWif+05knu/8OE6GwCgAAAAAw26oI9JcyfzFaoaj868zvZG7IbLFE8B/VDQgXd98rF0Ub83uyZZmY6ravYulc0bT2Sa1C6n3RuvCruLrDMgEAAAAAAH36UubH0bq5qhBRew/+bLRxpvtYHha5fbvvhb+SubX7HpFhUsXT2iP11e76tDHaKN/7o+0L/fczvxgK3MwAHasAAAAAAAtD7RF5eubnM38tc1i0rq9/mPk3mU2WiEWqaiFHZP5O5suZgzLLLMtgXs48lHk8WjH1ju5r/fyVaHulbomde6bCVF9MAAAAAABYOE7IXBqtA+zzmZcyfy/zf0XrGoPFpm4y+LvRuroPsxy9qSLopi4vvOXHtSfqxi718+ejdavWrz8VbvRgRi21BAAAAAAAC8rDXe6O1iX2sWj7SD6SuS2zIfO6ZWKRWJW5Kto+xAdYjvdUN1/MdZBu3uXHb/15FUafiTcXUZ/vUj9/OhRPWYB0rAIAAAAALGzHZX45Wifr9zJfCwUPFo/zMv9V5ouZlYt8Leb2O32nrzWutzpJq1j6bLTC6JPdz+d+XP+9CqgveluxWOlYBQAAAABY2Gofw38ebQ/W6jh7xZKwiByfuTKz3FL8/812D2bWR+tgf7j7WteI6jKtbtTqZt/WfX1tlx/P/fwNy8hiprAKAAAAALCwVSHkqS6w2FSn5V2ZkxbZ865C6PouT3R5rPtaXagbd4nR4LCHFFYBAAAAAICFqvYa/p3MWZkTM/suwOdYnaTViV4jemvMdxVLH8jcnrkjWpfqY94KMDqFVQAAAAAAYKF6NXNj5k8zX84cscCeX433ro7cKqD+MHNT5t5oY3137BKgBwqrAAAAAADAQlYdnL+deX/MfmH1hcyt0Yqn1ZFa3ajPRutWfb7Ldi85jIfCKgAAAAAAsJDVPsPV1VndnFVcXTkjj7uKqLVH7IbM093X9Zn7Mg9HG/e7zcsLw1FYBQAAAAAAFoPrM1dlLpmix1SF0doj9fXu65bMy5nHM/dn7ozWmVodqs94CWGyFFYBAAAAAIDFoDpWr4vpKazW/q9VQH2oy09jZxG1ulVrpO+2XQJMmMIqAAAAAACwGDyV+VFma2b5BM5fe6H+QeaWaEXV2hf1lcxL3Y8rtR/sa14qAAAAAAAAYJJqj9Ubo43c3TFwqrD7G5llXgaYTftaAgAAAAAAYJFYklmRuSCzeuBz75/ZJ9rY30e8FDB79rEEAAAAAADAIvF05pvRxu8OrWoyV2XO8zLAbNKxCgAAAAAALBZvRCuqnpE5MVoX6ZBqDHDtq3p7tP1UgRmisAoAAAAAACwm2zMvZM7KrJvA+ddktmV+kHndywGzQ2EVAAAAAABYTHZkHs6cnrk8ht828cDModEKq09F66IFZoDCKgAAAAAAsBhtyRyVOW0C5z4gc1y04qqRwDAjFFYBAAAAAIDF6NnMa5mrMqsGPvd+mZOidc/en3neywHTT2EVAAAAAABYjGqf02cyB2VOyawc+Pw1gviMaJ2zd2Ze9ZLAdFNYBQAAAAAAFqsqZv4kc0Vm3QTOvzxzdGZr5vZoxV5gSimsAgAAAAAAi9mmzJLMqZnDBj53nbc6Zmu/1arZ3B2tyApMIYVVAAAAAABgsXs0c0jm4szSgc9dI4GPyJy8y2N50UsC00dhFQAAAAAAWOw2Z16JNg74+JhM/eTQzHmZ1zL3RNt7dYeXBqaHwioAAAAAAEDE05mnMh/JrJnQY9g/c0bmyMyPMi97WWB6KKwCAAAAAABEbI9WWH0hc35MprhaY4EPzJwYbc/XejyPeGlgOiisAgAAAAAANDWG947M2szpmVUTehx13nMzh2U2ZTZGG1cMTJDCKgAAAAAAwE7Vubohc0TmnGhdpJNSxd1LohVWq3u19l19w0sEk6GwCgAAAAAA8GbVJVrdq1VYPTyzZIKPpUYSXxxtNPCjmce9PDAZCqsAAAAAAABvVl2hT2ZezFyYOWiCj2Vu39UqrJ6SWRGtuPqKlwmGpbAKAAAAAADwdlsz92T2j1bQXDPhx7Nf5uRo3atVbK2xwHOdtQAAAAAAAAATVUXMf5B5PbNjivKdzOdjsmOKYVHRsQoAAAAAAPDuqoh5b7SO0Uun6HEdGW1M8UnRRgM/46WC8VJYBQAAAAAA2L3aa/WRaHudnhnTUV+pQu/hmXMyx2UOybyQed7LBeOhsAoAAAAAAPDeqiP0zsyJmWMzy6bkcS3PnJW5PFqxdWO0scWbvWTQL4VVAAAAAACAPfNy5p5o43dPm7LHtiJzUebD3c8fyLziJYP+2NCYabU2c1i0GfGHZg7IrMyszqzqckD3F8Vb38c1735LtNEML3Z/0VU2Rbuj6KnMY93PgdlwcHc9OCbaeJO5a0GNXlnTXQ+Wv8P1YHt3PXi1uw681P1j8tVdrgmVp8OIFAAAAAD2TDWtfTzzm5lPTuljXJ+5OfPHmT/MbPWyweiWWgImqAolVTStImrNfq/CyIHdrx3efT2s+29VQNm/+7qyy3u9f2vUQRVRqoBShZQqsj4XrYiyIfNE9+P69Sqq1ObeT3V/DpjcP0qP7lLf/wd1X4+JnTdbrO2uAXM3WBwQ7z2BYXt3HXi5uyZs7q4PG7s8233/b+x+36Zd/lsVXF/w0gAAAADQqc+avpXZJ9rnUlfF9IwFnrOuy1xn7fWZH4aGIxiJjlWGUDPdl3d/sdSPq9Ps+Mzp3QX97Myp0Qonk/jLpwqst2ZuzNyW+Um0IsrmLtu8hDA2dYPE/l1Wd9eFyzKXRtsX4rgJPKbqcH2kuxbUWJcamXJXtJsvtnTXhK1dXB8AAAAAFq8qrF6S+e8yH4jWDDCtqqj6jzNfjZ0NScA8KawyhCqcVqHkvMyZ0Tb2rgLKfl2qmLo0JtdBXXcXvRatSPJa95dKbUD+zcy3M/d6CWFs6o65T0cbnVLXhxrruzx23owxib3Ad+xyXagO9m3dj+uGiwcz90cbo/KDaEVXAAAAABav+hzr/MzfyfzcFD/O+nyrpjfelPl/Ml8J0xth3hRW6VuN5Kzu0+o0OyVaZ2qN9Dw22njftTPyvqu/ZH6aeShzX+ZHmRu6XwNGU12oH868r7teVOqGi2Uz8NiryFojxTd0eaq7LlR3a92EUUXXLV5iABaRuRsk6079Hd2v1QdL+73l9y3rfn2HJaNn+3T//qqRdi9bDoA9siLadjsrYmFMYqrPGuvG7Nrm5wX/3mCCqnP1r2T+Yvf9Na3q+74mOFaB9U+iNRgB8/hLB0ZRH5gcEa1QUpkrql6QOaP7n9yFoMaBVvdqFVdrJGgVW232DXuuPkitmy1q1G+NRflUtA7VhaDu7LujS10rqsD6aOwsvL7h5QdgSv8dXx/2rOy+LoudW3csjZ3TZeZ+PvffV3d/Zkn3b/25P7NrYXVFvL2wurz7dR900rd67z3S/f/azZZjqv79v3/snESzosvyt1w35ooh+3Y/XrqAPkf4/9i7D7C9qirt4+tNSC+kEdKAhBpKgNA7ofeqqIht1LErMzp2xzKOjvrpOPaxYwU7onSBSA8ldCItBEgglJCQ3vOt27Uf8prJ259ynn3+v+u6r0QM4T3nPOWcvfZeOzd6rlmbPsc3/f2aFE1SX5lS6Qym36/g879Q9F5T96jXe8ZYHqvVKp8lam96hbFtDxpLY+Tne86wGAsrOt1DXeS5y/Ng+swG0MGXDtBVlYEWDarsYbEx9+mefUpw7Lox+6Pnexabfa9p9TAB4P+qDMgeYjFjT58VgzI/Zg0caM/mKz3TLVaz6p+t4+EOAFDnZz0VJ3rbxuKFflVhY3SKBlPHpd8PSxmS7vP169CUSjEVKCpNfv2S56ecirp+vvTa5PNFv6pwWpl8PdYz3DPSYmXc6PS/h6fPln7p3xuQPpt62f+dlIFi0RiICqkqmC5v9XttqaTWklopqMmlz1usItfqwec88y0mnr6UnosqBdnKr5WgPvRe04TnX3rGZ3ZsX/B82lgMgWJ4j+ddFsXVon+/abxK41jf9lxnG8e8AWzGFpwCdIP2Sz09/To2PRANK9F75niL/WLVHvhnnst4SQBtOtLzBs+hFq3AB5XgmPunz0etyH2LRavga9ON6e28JAAAdaJi6A4W3SI0mKMC6kSLYqqKpJuuSFUqq8Z6tfp9b04lmkClUIP60D39tukzRb+27mI12jaugm/9+VKZoN17k88aYdJ/86gUBlQUH5J+XymKrkuprF6tTCxdaxtXsy70zE15Ov36hEXHn2c4vXVVKWrnhgI9ikSTFx71/LPn7IL/rPqenmbRiVJtgbX/6m1cQqDtNwzQGXo4OsqiT/wUi1a/W5X0XAxJUdsUzezTSl31or+Xlwnwst3STaM+Nw5ND95lMiBFg9eVfWR1g3qP5wbP9cYeYACA6n7vqIg6odWvrVelVlakDuVUIVMq4DCYXn26h1exdOv0WaLPlrFpLGCExcTJEemzRb+ysr1cKgXxSqG8Txfery9arF59sVW0ylXF1XkWq161ylWF14Wc6ppQYTXH1Wh8F6BI9Nmm1tRa0a9to15tMZ5cVJo4NclzXvr+V7dGtddmzBvYBIVVdESDMNt5TkofqjtzSl6mB4fDPftbDGD9xHO/RasboKxGpM8Jtf19k9HKq2L7FH2WahXvhRbtgjVzcRGnBwDQRSqkqrWmiqUqeKhLwlSL1amaADmIUwSgi7TKVAXSLVNUNJ3omWwxyLp9+ozh/h49pbGUraztyfpawfq4Reefh9OvKra+lJ6dVKBYwmkE0ERutti/VK3R32oxjty/wD+vOt+cbNG1UQsFNOatwvB8LiUQKKyiPZqJ+tr0ga8HKNrztP0AqlanWpn3Zc8vjBmVKCcN8J7lOd+zO58ZbVKbYK10115gX/X81mIPVgAAOkMFj/0sBjoOtiikDm71//P9C6CrNDlySrpHrXyuaIJ1Hz5b0AB67anF9JHpf2sFosZYNJH9Js9MiwLFkxarXwGgGazwfC19lv27xUKdAQX/mVU7epPnCM8PPD+36CQAlB6FVbRFAzXaG/DAdEPLQ1T7eqWb//dbtEf6lsUeIUBZaAb7Oz1npt/zmdE2nRu1Vdsz3Uzrc/YCi32bAQDYHK1KPcazr2cP29jed7iVr90+gJ7T58YB6TNFRVStSK2sVK209gUa/cxUoRWuWkGtCarqjqQtZ7R6VXu0qkChFpW3WqxqBYAiUwtuTRD5gOeVFt3eir7Vnj6PtcJWY36HWIxf/Z5LibKjsIpNaXDmNM8bPUdzOrpsUvpS1N4yv7Jo9cn+DsidCoNata29IkZyOrr0HayBAe1boQFyrVy9Ig0SAACg+8rKPt2ajKNVquoiQ5tfAN2hyY8TPTumz5Jd06/bc2rQJNQtbFxKhVZRaXuVBz2zPI9ZtBFWC+HlnDIABaSVq3dY7Cut1sCvsChYFt22KZroosVFV1tMbgFKicIqWtNMeBVGPpZ+j+7RTKP3pi8btXiYwQ09Mn6w3cvzYc8ZFiu30XVq/aKZirtZTMr4o+dFTgsAlI5mg2vPVK0YUzH1WIutJvbn1ADoBq1KreyZqiLq4RZtfpXenB5kYpRtXM0qKqxqgvu1nrstihbsyQqgiLSf9H9b7F2qDoj7pGeBojs4PZ/82PNTi64Bi7mcKBsKq2j9WtCKs09aDOyj5060KJh8yXMNpwMZUtsw7Sus4iqtf3tOq1c/ajEA9jVOBwCUjlr7qqW+9ivXwIpWpvbhtADoJt2jn+w51WKVap8UJkMiZxM94y0m/mo12A2ey1MY+AdQRH+xWHGvRQsam+/fBD+zJmi9zmJc8OsWe68CpUJhFZUPQ/V2f7tnMKejajRDWLOCl3pWWvTQB3Kh1/a/WcwMZsZ79b6TtUJJ7cRXeX5i0SIGAJA3tf46wWK/w0qrzr6cFgDdoAKqVrprNYna/KqL0gROC0qkd4oKE0MstqrRZKXXeGZ6rvPcbGzZBKA4NP4z22L1qgqsKljuW/CfWYsrtJhIW5V8KN1zXGDRNQAoBQqr0I3mOZ53W+zzh+rSl8zJ6aZ9nedOzxpOC5qcbvDe4zmdU1ET2kdPbWA0w/pKi8kZAIC8qDXnFItiqvaHU9tf9k4F0B2D0ufJ3uk+XZ8pO3NagH/4vlUq7fW1XdPtFnsDPs0pAlAQagms9sDzLVbdT/OMKfjP3JI+X3ew2FbwVxbt2NkSD9ljlVG5qQ3QkRatarfjdNSMJjBo5o5mTGrmjvb42MBpQZN+Z2gW/Kc9pxmTc2ppZBoEmJMCAGh+GnjQlhtbeU6xmN39z57JxgpVoKc0CKmBvPtKcry90ufJCIuJGeok8z6LlXkjeTkAm6UxGY3NHG0xsUnjMgs8qy0mwpdpFavuSbS4QtsPDM/s2K5PWcdLHk1orcWkjxstFkOpq5nG74tew9HPqMld6r6jce956VgY/0a2KKyWm2a0vtNo5VmvB199uSy0WLW6ilOCJqQHr7elh68tOR01N85iH6Ab0g0pAKC5aVXZqz2fsWhJqJndTFICqqNshdWhnnM9/+45z2KCBnsyA52n51kVAdRhTCvCnvS8UKLjp7AKFJu2hdL48SPWXG39R1vUG7TV4D0WW+MBWeJBvpx0A6VC34kW+znxAFYfmmn0eov2nt/idKAJvy9OstjrYStOR11oFcIrPA97vsvpAICmpfvuU1IO9ezBKQHQTSoGqXOMVqmqpelunBKgWzQONjJllEUry+meyyxWiwFAI2kFvSZ7XGwxjqzxOE3QHFfwn7t/etbRGPh4zw8sCsRAdlilWE4qrB5usa/qTpyOuhqevlj+ZrGXBzPo0Cw0EeM9xmBwvQ1LD/vXeZZYudpTAUCzU3vfXT1nW3SJ0aqQ0ZwWoCZyX7GqAUq1+X1NuidXYZXJjkB1aGWVxsYOTe81jZkts+gelCtWrALNYY1ntsXqT3U/HJY+p/oV/OfWz7lf+lmf8byYjgXIBoXVctIqqI+lhzFWq9af9sFR67cZVq5WM2jeBy61HPmsxV40qD+tFtbeP4+lB3wAQPG/O/XZrf3bPmyxl+q2nBagpnItrPZKz+xa8f5Jz5ssVtcBqD6916ZaLETQvoAPWRQyctwjkMIq0FyWem7y3OvZOqVfuk8osinpc3WORYGV4iqyQWG1fLZIH2rvsObpz57j+043rmrl8Gj6cgSKShMBPmjRdmQQp6MhBliscPpruhEFABSbBjm0QvX9noOt+DPKgRzkWljVs/t/eN7q2cXYzgmoB62wUscJrWBVEUAF1tyKdBRWgeakBTq3eWZZFFebYfKmurAd5FnredBiwgrQ9LgpLx8Nzp+WbqDQONob540Weyf+ntOBgtKMXQ0Iq+UYrcYa+12tGX57W+z3s5pTAgCFtXe6xzvZszOnA0A3DU2fI7oP15YcTNAA6kdFxzEpKghs7/mtxZZOANBIKkqqm9lci0llZ1h0l5tc4J9Z26Oo3bomnmoix4UWE1aApsaK1fLZ0/OvFvt8cv0bSy2cVlrMrKa9J4pIM+Tf5TmEU1GIh3vtSfGARVtgAECx9Ev32f9i0RlmJKcEqKtcVqyqpZ86S2kVmVa9H2lMiAcaaaxnf4vCwDyLfVfXZvJ8yYpVoHnp9a0C6w0Wk+8HpAwu8M+scXAtGtAijmc9izL5PEVJUVgrH7UyeRcPZ4WhG1i1lrmZU4ECer3n/PTQ1cLpaDjdfKp9+P2cCgAo3OezVqpqP3INUPbilAB1l0thVS39/i09s2/PPThQCCqqVvYJ1PPYnAyOicIqkAeNKc9Mr3kVKXe06HpRVJqMurtnB88jFitvgabEQ3+5qJXnblz3QtFsZLV2msR1QcFodvzxFhNwGNApBt0g78ppAIBCUVH1FM+X0ncnE1cBdNeBnv/2vMpilRzPh0Ax6Hl4YHqPftVzHqcEQEFssCioavXq9z1vTs8l8wr8eap9rKd5Pud5BZcQzYpVi+WifZ725jQUigbf1DbuHM8PLTYhBxpNg8Sv9hzAqSiU/haz+nQTqvbh6zklANDw78vTPe/zHMHpANAD6iylVuJncyqAwtLK1b0s2nSrOHCxZymnBUBBzE3RftAqtJ7g2cczsYA/6yDPURYrWPV5eplnOZcQzYTCarnsYrFiFcWiFg2a8ai2DRRWUYTvBX1OHO7ZktNROGPTZ/m9FvtoAAAaQ4MAKqa+xyiqAug+TZxTR5JPWnSLAVB8KlT8p8VKsSs8CzglAArkSc/3PH/2vNGiu446oKntd9+C/ayHWIxz6ee61PMSlw/NgtYy5aK2sxM5DYWjQtZkix7zTHZAo42xaD+2FaeikHQjvDOfFQDQ8Hs3dRz5SBoMAIDu0p6N3/AcxqkAmorG177sOZNnMwAF9aznm57XeD5txd2Hfpv0eUqbdTQV9gAqD+0HoWLJfpyKwmlJ70VNdHjUitsHH+UwxfPvxr5ORbXOorXLDM8qTgcANIQ6O2hPIO2p2o/TARTCfM8tVtxBw83RxIyPeY624q0gAdA+PSsPtlgFtsRzT5P9/BqHUjHjLIvJuzm5PmUdL1OUnFbVq9PZYs/jFp3P7k7vje2tOGN++jmGpM/T/kaHNjQJZlWVh4okozgNhXZkGgyYwalAg4ywaGe4PaeisEamm02+vwGgMSZ63uk5mVMBoAd2SZ8lp3IqgKamyVbaa10rw642inkAikkty69Lmel50LOvxfjfxALdG33A08dzkUUxGCgsBmbLYzuLjaFRXJqdo7061Ir1eW7I0QCaNX8Kp6HQNHtvnNFxAgAa9RmsfYrewakA0E1alaGJcirEUFQF8qBxnM9YjONo5epaTgmAAqus6tY2U6+wWLm+c3rWUQeNlgb+bBoT/6xFcfUHnmcsVt4ChbypRzloIH4Ip6HwdrJoBcWkBzTC1PRQiGIbzWcEADTE2Z7TeIYC0AMqqmoPsZM8QzkdQDZ29XzCYgUrADSD2Z7vpfuSf7FYzbq+AD+XFhK8x/Mui60NgUJiYLY8NBA/gNNQeDtYzBT6k7F/Iup706JV7fvwOdEU1H1gmOdpTgUA1M22ntd59uRUAOgBdYjRqvdJnAogK1rIcKLFitVnUwCgyLS6fkHKPM8jnt95DrLYrm7HBv5sW1l0CtJq1e8Y418oIAqr5aHZsP04DYWngsn+nj08dxqbdaM+1GJDBf29OBVNodJCrsVoiQIA9aAJiprJfWj6zgSA7tDEjDdY7CEGID9qo/lKz5OeH3E6ADSR5Z6bUq7wnGnRUbGyB+uWDfiZJlispNXY1089D3OZUCS0sSrXDR6F9OagmY6nW7RvBur1mtPsWmbON89391A+0wGgLvQgv6/n3ca2GgB6dv/2eouBSgD52t3zKouCQG9OB4AmNNfzTc9rPR/yXGqxqlUrXOs9uX+w5+OeN1nsv9rC5UGRbu5RDupJzgz75qCCyalGYRX1oUkXWqm6Paeiqb67NVuQLgQAUHvjPYd7xvIgD6Cb+qXnuyONMRigDDQhS6us2EcZQDNb6bnR80mLIusXPQ806Gf5J4t9V9m+DIXBapfyUItZCqvN877czbO3RTtg9lpFLWnA+ByLNodoDhqQowsBANTHEZ6zjWIIgO7ThNm3W2z3AiB/ozyv9lzjudYY0wHQvNQi+LGUBz0zPQdaTCCZ6hlRp59Dq1XflD5P/9fzPJcGjcagbHlQWG0uGrw7ynOz525OB2pIrYpONmZ9NZs+xiA/ANT6XkwdX4419kMEuDfqPn2OTEvhfhsoD01gPtfzlOd+TgeADMxN+b1FFw5tY3eoZxuLCSV96/C5qtbEyzy/8DzLJUGjBwxQDqxuaj6HeA7jNKDGnwt7WsyiZ/+X5tHCZzoA1Fy/NFCwK6cCaAq9rJjtuqdYdIdh7AUonzMsVnUBQE50v3WTxd6n2j/+qxYTSOqx/6oWjv2H55VcBjQag7Lluta5PczNs5iZnGsL0zHpJlzHuIaXMGpAxftjLN+BnsXp1xz3tmFwDgBqf++sPREprLbtBc9CzyLPS54Fnhc9SzwrPEstZpSvSPeyGzhlqJGW9NqbVcCfTdu7aJJGPy5TVbyU7vGXpOgzZnX6jOGZuXr0ea1xiP7ptavfD0zR9+Mwq1/7x2b+XNJz6EGev1iMXwFALt8Ra1Me8fzcouOinpuOs+iKN6SGn60qrmof6/We73A50MgBA6BZqaWKer1PSTf1ua24U+Fkz/QgfouxLweq73jLewbt7elG74RMb2QBALWjCW5qcbVlyc+D9i9Smy0VMhalqIClImqlqLqk1f+vokelmLqc+1eUnNqIaxLjUE5Fl+iz5TnbOHljcfpseTGlMmmj8lmzOt3zU1itLo0Xqqiq1o6VImula45e02r7OCz9flj63yPSryM5fS/TZ4D2JPw+pwJApuanqLh6j+cuz36eyRbbj9Wio8iOnvPTPcLvPCu5DGjEjRLQrPQAdZ/FYM9pnsEZHuN2Fvty/C19SQHVoKK9Boz3sdrNIms0FR6v9qyzPAurAIDa0cCxJh6NL9lxa9b3cttYEJ1jMRh8r8WExic8jxvFC6CzzrLoEIO26fNkZYoKpk96HrJoKagVyLPT5w+fO8WlAfOJnp09O1msWJrq2daiMKvvVO0vXNatZ3RO1AHj5+l1zgRZADm7I0WTbDRWrzHtvSzGHqu917wmsH3GYnLntRaTrYC6obCKZqal/xrc0ao0tRrIsbA63HOExYxPCquoliHp4W7bTI9vQ7qhuttouwYA6LpJFqtV+5bsuLUK9QrPZRYFDa0Y0yCwJjNqolKl5ReAjqnYpOLSGE5Fux6z2KfthnTvrmfeNa3C505zPHup+P2MxWqlPimanLS/xeQCjdeMLfE52sazh8VKrtW8ZACUgDpM/NpiwcPhFnuxatFDtbe10ufrJ9Jn69WcdtQThVU0MxVMnk4377qRH5XhMeoLZ5xFO2Ad60IuO6pAkxC00XuuhVUNAmsfG810n8rlBgB0kQaDj7TyTM7RlhNXpu/Nhy0KHct5GQDdphV6KqJsb+Vdpdce7cemYurt6ffae3KuRTs/NKdKAbx1K0Z1FpuTrvVvLdpBqmOSWuOWbX9WTbA41mJF9rO8XACUgDrhVNr2X5KeL/5gsSWZCqzV6p6nibAHeN6W7iNmcOpRLxRW0cz0kLo6PYhpMEizVHIsrmpQ71UWbdhu5bKjhzTQo7171eJwQKbHqD2YfpkeWtnTCgDQVRMsWvfl/qykiYk3Wgx4X2rshwpUi+4/1f5uHKfiZZqsoYkbmsChQtt0i+1ukLfKvri67n+y2HNP2zkdZtE6eGJJzoP2oFXHqMuMwiqA8lFx9baUu9P9wIGeKZ7RVfj7tSjpJM8Si4472r5kPacdtUZhFc1MLWcGpt//xqJQdFyGx6nC6lHpC+c2vhzQQ3p41UBPrkXV9ekmSu3E1hqtgAEAXdM7fVfm/Jyktr6amPhDzw8suqIAqJ4R6fltFKfi5T1Ur/N836KwxPNseVX23lNniPNSVGDViqNeGR+3nr21WlcTt+7jPQCgxG5P0STW91gsJBqevgdaevD3arvA0y0Kq/9rMS7IntaoqV6cAjS5yqDXA56HMn+vapUhe/Sgp3Tzcprlu2+cBoq1r8ISLjUAoBt28eyY+TGqFdcnPT+y2M8QQHXpmU2tgPtwKv7eku+dng9aFFcpKEG0H+uPLfbc+46Vow20Okft5RnJ5QcAe9zzBc8/eX5l1emcowLtWzwnWr6LSVAgrFhFs6tMDtAHsPZaVa/2nTM91iMsVuH9msuObtLeqmq/NCHjY9QEC7UBZm84AEB3aALSxIyPT/sY/tzzO89SLjdQk/vtXS1af7aU+Dzos+aPFvup6Rl2NS8NtKIC+/Mp37bYi/Vsi/3Nc6bJ8tum4waAMlOHuWdSNNFTY/onW+xHPbCbf6dqBOoWogldizwXcZpRSxRW0exaL+u/xfNnz/szPVY9oKvV8cU8mKKbtKH7ERkf3wrPTM8sLjUAoJs04JnrBCTdN2uPO01AoqgK1IY+P1Q8UcvtMo63qPWv9k7V5A21/qXVODryqOfrFt0U1HVI+68Oy/RYtZJ9kudOLjsAvOzulLvSfcO09FnZ3a29dB/2Ds9si/bzdMtATdAKGDmZY1FcXZvp8fVJN+I7GpMi0D1qh7F/xsc3K900AQDQXWM9W2V4XCqqPuu5xGLwGkBtjLNoKV7W1araoucznv82iqromks9H/VckfEx7mB5d48CgJ64zfMhz0cs9mHticM9nzC21EMNUVhFbjTbcbpnWabHp5vwUy3fGZyo3We9BnmmWmzonivt23QDlxsA0APjLc89ebR/nVaQ/Y1LDNSU7rmnWDkLq7oP/6znaouVh0BX6Tvqfzw/zfT4tM/qNlxmAGiT7h+u8bzL8zmLNsHdoXHQgyy6Wo7jtKIWWPWG3DyebsJ3szwLSFpB8UqLlscvcLnRSUM8J1m++w9rFY72T7i+BzddAABowFP78uRYENFq1Z9Z7GMEoHYmpM+RsrnfovWvVsWv5WWAbtJrZ4bFWKU6SKgtcG6TnTSBa6RnodGeEgA2R1uW3Od50WKMT/uuHuUZ2sW/R2Por/c8aVErWMSpRTWxYhW5eclzlUWLs3UZHp/6y+9lMQu6H5cbXXh4O9fyHeTRCnXNaGMVDgCgu1rS9+TADI9tbbo31t5Fq7jUQM309owu2TGrMKQBy+9Y7OFMURXVoHaQX07fWxsyOzYVVXdJnxcAgLbN83zToqXvzz1zu3GfofuyN3nOsFh0AlQNhVXkSMXVmz0LMj0+Dfxpts5OXGp00kSLvVUHZHp8eq//3liFAwDoPq2OGe7pm+GxqcvJPTz7ATV/RtN2LUNLdtxqM351uhd/iZcBqkQD59el11ZuK4wGW6yi4jsZADpnlueDnn+3mCzaVVqc9B7PiZk+66FB+CJHjlZ7LrZoR5QjDfxpn9U9udTohEmeYywGeXLd6+mJ9OC9lMsNAOjB/ZVWkeTYEeQpz52WZzcXoCh0n61VEcNKdtz6bPmaRau+DbwMUCV6La3xXGDRXjonW3rGWDn3YQaA7tAzzHLPHy32TNXWA10Z/9Nznro/fsBie70BnFJUA4VV5HoTfodF+5gc96xoSTfi+1nMdgTac4DnNMt3oOM5z7XGYA4AoGf6eLa22Gc1N0+m+2IKq0BtafuN4SU6Xu3d/GeLfdCAWnjcYtL8vIy+w1RYHWeMxwJAV2lv6ss8X/V8xaJdfFee9Q70vM+iuLolpxM9xRc5cqTiilrHqLj6mOVbbJnq2Zf3MdrRL71G1DY61xmxt1gM6PA+AAD0RM6tgFX8UHF1PZcZqBnda2tyRplWrF5pMcERqCV1IvuDxWqlHKiTFCtWAaD71Br4054veGZabEvQ2bF/FVfPt2gLPJDPYvQEA9HImT5cL8/4Q1JtDE4wVulh83p79vbskflxPpgethksBgBU47szx+ejBelX7hmB2tEz5yjPkBId8/Wev3HpUWPa9kUTaVdlcjwayN8q3XMAALrvUs9bPL/yrOjCv6dx0n8x9lxFD1FYRc60n9RVFjNXcqRVFYdatJwCNqVWSWd59s/0+DQ4rILqjIwesgEAjaOiSL8Mn4808WgZlxeoi4GW5z7Nm1rtecBiguNqLjtqbE167rsvk9eb7jMGcVkBoMe0z6raAf+P51MW+753hu7VNFb6YYu2wAM5lejuFzqQq7Xpge8mz8pMj3EHzzEW7WSACs1+neg5ymLmfI5UWP2tRctvAAB6SoXVvhk+H2lAmsIHUB/6DNmiBMepicuawPwMlxx1fM1phfTzGX1WAACqQxO9vmGx9+rVnkWd+Hc0bnqA572eM41xdXQDhVXk7iWL4suTmR7fkPQFsC2XGq1ob6fjLfZuyZGKqgvTw/U8LjcAoApUWN3C8ttCQoXVdVxeoC76WzkKJks8t3pe5JKjTjRp/s6Mnv36G/v6AUA1qZPdLzzvtmgfr325O7NlWGXP1WMtVrLy2YxOo7CK3Glmo/ZZzXU27WDP0UZhFf9oa4s2wFtlenxq96GV6HO51ACAKj4XDbByrDYDUH0aiFOxpE8JjlWDl7PSPTlQD+q8cJfnuUyOh7aTAFAbsz2f8HzSYo/uztjT8wHPqSW5j0OVMHCA3GmGvoqqN3h29YzO7Pg0CKh2BYemBw3aMcHSa12viQGZHp8eqH/O6x0AUEUt6UGaiacAuqsshVV1jtEEx/VcctSJxnXmWT6FVY3F0g4YAGrzfaGC6gWeFzyne05O92jt3b8dYtEeWKtWLzEmj6ETGDhAWfzJMyPj4zvRczCXGW6C50iLNtG53iRp/4SrudEBAABAgahQknthVVtyqLi1nMuNBrz2Xky/5qA/lxQAamaB5yeez1m0CO5Mxzu1BdaeqxpjV2cB2gKjXRRWURa3p+RqqmcfLjMsVqoelfHxacaZJkm8xKUGAABAgWgVWu5jLGvSfThjSWgEvfZWZ3AcLbyHAKAu7vZ80PM1i2JrRw7wvMOzn9EWGB3gixxloVmN93se8azN8Ph0Y76HZxejxXfZ7e/ZKePju81i3+QNXGoAAACgrlRYXc69OBpkubFaGgDQedq2QFsYaDuxd3r+0sGfV61MHSHfarRsRydeLEBZzLRoCZzrXjB7W2y0TWG1nHTdteH6vhZ7AuR6Q3Sj514uNwAAAFB3Wi1IYQuNom1h1nIaAABdNN/zG88XPd/zPNnOn1Ub4GMttlkbxKlDWyisoky0efVlFq1Ec5xhu53nJM8ILnUp6cv+tZbvalU9QD/suYuHaQAAAKBh9+RrOA1okBZjzzsAQPdpxeqnPT+2KK621V5+mOdNnh04ZWgLhVWUzWMW/dVXZ3p8O3p2NVatlpG+9DWjakymx7fKYsX5I1xqAAAAoCEobAEAgGb2nOfrnvM9s9r4M/0tFi9RWEWbKKyibJ73/NraX/LfzEZ6zvRsw6UuFRVVj7BYtdw702NcbLHi/GkuNwAAAAAAAIAuUlv5Fz1XeT5oMda4KU0iU2fAfSzG2oH/g8IqymaF53LP/Zken2bUnObZjUtdKtt7zvMMzvT4llnsrfqA5bvaHAAAAAAAAEDtac/4qz3/z3OJbX4P+aM9+3OqsDkUVlE26y2W/N9pUazJjVoAa9XiFE9fLncpaIXq7p5jLArrOVL73wvbuMkBAAAAAAAAgK6a7vmwxf6rizf5/7Ri9UjLtzsgeoDCKspKq99uyvj4DvBM5TKXwtaevS3vfXXnWMwiW8HlBgAAAAAAAFAlj3k+4Llyk3/ez7OHZ7RRXMUmKKyirO7yXJfx8R1msYIR+dO1Pi7j49MK8xmepRYrzgEAAAAAAACgGtZ4HrVoC/wT27gNmfZa3dli3LUfpwmtUVhFWWlp/22eJyw2rc7NVp6DPSN4n2dNX+rHWsyeypVWl1/FpQYAAAAAAABQI7dbFFd/ZlEzEG259xqLjoHAyyi4oMwe91zkeSnT49MHv4pug7jUWdIeupM9u1rMoMqRVqhe75nJ5QYAAAAAAABQQw9Y7Ll6gUVxtY/nIIst92gHjJdRWEWZzfP8ybMs0+Ob5DndaFWQKxXMT03XOUdquzEr3dAAAAAAAAAAQK0t8HzX83GLVazDPR/yHM6pQcUWnAKUmAo3Ktrc6RnpGZjZ8Q222H9zp/SFsIFLnpWxnrMsNlDP0QrP74zCKoByGZK+v3tl8r2t41jrWe5Zwr0IAAAAAKAJPGMxLrnIc4xnf8+Onls9Kzk9oLCKsluePiT1wZjjPpUqvmmDbbU9ns/lzoYmARyYXrN9Mj3Gpz1/5HWbDbVLmWBRNMqFCkZqJf+C5dv5APW3n0Wbof6WRxFS7/2lnrs913rWcIkBAAAAAE1ABdRLPZd7zvEstBiHpbAKCqsoPa2iuNKiZW6OhVXtvXm850ajQJUTvVZPsXz3VtVq8ns9s43VTbnQZICPeqal/72uyY9HRVXtc/wXz488M7jEqBJ1mnifZ8uMjkldM37uucEorAIAAAAAmovGJn+Xfl3H6YBQWEXZrfc877nLc4JnaIbv8b09u1msFEEedvccZfmuVn3E8t7/uIw0CUBtq3e2vCYETLTY7xioFu2LPiSzz3cdT38uLQAAAACgCamgupbTgNZ6cQqAv5vuuSnD41IBQ4P+B3u25TJnQcWpAzwjLN8Vq9r3+GpjFlhu1Ho9t9VqvTJ+H6Ix9LCWW1uhlcZKVQAAAAAAkAkKq0DQilX1TM919ok22D6dy5yFYy0Kq7nSKtU7PM9ZrChHHjS7b7FFcTUn64x21QAAAAAAAEBpUFgFwirP/Z6nLM9iziSLVatoftMsz/2AK7RS9XYuc3ZUfFxhrFoDAAAAAAAA0MQorAJBg/6zPX/2vJTh8Wmv1cme/Sz2b0Pz0X572lt1T0/fjI/zCotJDsjvM1btQNmTAgDq//nLynoAAAAAAKqEwiqw0fOeCz3zMj0+7bF6nsXenGg+wz2v8kzM9Pi0knGWxf6qS7ncWVI3AAb3AaC+NDGrN6cBAAAAAIDqoLAKbKTVVNrbUcWddRke3yjPKZ4JnhYud1NpSddN++SOzPQYF3h+65nP5c4Wq6YAoP76pwAAAAAAgCqgsAr8IxVUr7QoruZIq1a1P2dfLnVT0UoTtQFWO+ctMj3GRZ5LjMJqrlRQXe5ZzakAgLqjsAoAAAAAQJVQWAX+kVpVXmbRjjRH2l/1JM9uXOqmoqLqaZbvwOgyz22e+4w9OHO2Nn3GAgDqawTPfQAAAAAAVAcP2MD/9Yznds9iy69tpY7nSM8hXOamcoRnWsbH95DnYs8qLnXWWow25ADQCFt7RvPsBwAAAABAz/FwDWzevZ4bLb+9VlXU0MDaXp4BRpGjGa7XwHS9tsr4ODWR4VpejwAA1MQoz84WWwsAAAAAAIAeoLAKbN5dnsst3/0s1Vr2CD4DmuIz+mjPlEyPTyuotTJcExlesvxWiAMAmkuuE3xGeiZy3wcAAAAAQM/xcA1s3lLPzZ6/WZ57PmqP1bP5DCi8vp5XeiZnfIzTPTO41KVAK2AARbYh3fPlOMlnW88+xgQmAAAAAAB6jKIK0La5Fvs+Lsjw2IZ5DvZMsnxX5TY7XZcdPQd5hmZ6jMvSe+whLncpqLX6ek4DgILS59MKy3NC3XDPVM8QLjMAAAAAAD1DYRVo2yKLos+8TI9PbeFOTL+ieLQX7smeLTM+xic8d1oUWJE3rZJa7lnFqQBQUCqsqmPJ2kyPb6zFhC2e/wAAAAAA6AEerIG2rbbY+/HBTI9PBdVXeLbmUhfSOM+rLd/C97OeSzxPG60Jy4LVqgCK/hm1xLMm0+Mb4TnBM4ZLDQAAAABA91FYBdqnlnB/sTxblfbzHODZw9ObS10o/S32QlPbvj6ZHuNjnl96FnO5AQAFsC59J+VaWFUb4HMsVq0CAAAAAIBuorAKdOw6z7WZHpsKeId7tuUyF8pkz9EZH59Wg9+fsprLDQAoALUAfsHybVne12Iy3f6eAVxuAAAAAAC6h8Iq0DG1Kr3b8m1XOs1zMJe5UA61vAuraq99I5cZAFAgKz2PW/77fp/qOYzLDQAAAABA91BYBTqmFQwqrGrlao6r63awaAmMxmvxbJmux1YZH+fNnqu53ACAAtEeq/M8CzM/Tq1YPTPdbwAAAAAAgC6isAp0zsOen1meqxi0h+feFu3h+nCpG0r73h7h2SvT49Og9YsWhdX5XG4AQMGoDfBcy3efVRnkOclznlFcBQAAAACgyyisAp2zyKJ1qQbb1md4fFq1eo5nMJe6oTTAeZZnYqbHpzaL13ge4FIDAArqUct/8s8kzwc8hxiT6gAAAAAA6BIKq0Dnqbg63fN8hse2tec4i1UMaJwxFoOcQzI9PrXV/pPnIS41AKCgtA/4YyU4zgmez3tO5JIDAAAAANB5FFaBzlvs+YVndobHptUKO1ns7cmq1cbQnqoqbo/P9LNZK70f8dziWcHlBgAU1J2emSU4zr4WW0F8xPN6Y3IdAAAAAACdsgWnAOi01Z4ZFoNt+1jsh5mTgRbtgFX8uo/LXXdT0vnPtSXfs54/G3urAgCK7QXPPZ7lngGelsyPV50y1DFjqOeGdB/IBCgAAAAAANrAilWg6261GHTKTX/PCRYrV1F/u3j2t/wK9hV/s2gDvJpLDQAouCcsJtKV5Ttre8+XPZ/1HMrlBwAAAACgbRRWga67zmJGf46fB8M9Uz3DuMx1paKq2jDnvCpGe9Y94FnD5QYAFNwsiy4L60t0zJpgd5Tnvz3f8Zxu0c0EAAAAAAC0QmEV6Lp5nus9SzwbMjy+aRYrJ1E/x1sMZuZKBVVNSFiZ6XsGAJCX5zyXex62chVXh1hsTfBWzwc9n/O80aJd8Da8LAAAAAAAYI9VoLu0+u5mzxEW+2/lZC/PsZ5rPeu41DXVK71+VFTdLuPjVAvgW7jcAIAm8qjnD57RnrElfEY8LGWZ56+eOy22w5htsQfrKotWyepEsbbVrwAAAAAAZP/QDKDrnvZc4tnb8iusDrZYrTDKYsUGKwxrR6+dwy3voqoGXe/wzOdyAwCa7PvrQovi4tgSnwe1Az7Gc6RF4XSBxb7pj1jsRft0yjOepywKrgAAAAAAZIvCKtA9Cz1Xed7i2TqzY9M+nzt5TvL83rOYy10zgzzneHbI9PiWW7TNLlsrRQBA81MRUatW/+LZwzOmpOdB94X9UmRLz3jPfp6lFital6e0/t+VVa2V1awr0q9M2AurUlpS1qbztjb982XpnK1Mv9cWJC+lXwEAAAAADURhFegetch93GKwTasNR2Z2fFqZca5F6zcKq7WhQbQdPcdZDFLmaJHnp54nudwAgCakSUHqUDLJ83ZOx8tUZB2d0pl75taFVYTNFVZX2MbCaqU4vTL9fkm6J1cqBVb9uaXp95WiduXPreAUAwAAAEBtUFgFuk/7Y15ssSfpCZkdm1ZS7m+xklJFMfZarb4RFm2Ac20vqNfMHM90iwFAAACa0SzPL9J39i6e3pySLumd0p9TUXUqrD6T7tXnpd/PtWjRrDxrG4u162zj6mHu6wEAAACgByisAt2nwYm7LPaZOiHD49P+n9Ns4x5aqK7dLdott2R6fBrcu84oqgIAmt+9ni96vmKxBz1QBFo5PMGiTfXaVlmTopWrKro+3OpXvZaf4tQBAAAAQPdRWAW6T3tEqT3XbRbFx50yO76+nld5bjEKq7Wwj2dfi5XPOXrQ86v0HgEAoJlpktClFpOi3mSda4EL1Ot5vr1ner1mD7DYnuEFi1WsynyLbU0eS/f5bNsAAAAAAF14EAPQM7d6LvOcn9lxqeCnYrGKf9pLdhWXumq0uuBAz+BMj0+vlds993GpAQCZWOD5nmeoxT70W3JK0ATUGWVUyo6b/H8qqj5gMUH0fotCq17nKsI+z70/AAAAAGwehVWg52Zb7CP5douWXLm1dtUesjsbRbJq0T5jp3umZnyMajU3k0sNAMiMClE/9mzlOYNnKTS5HVIqnrOYMKp7uOst2gYv8ay32Jd1A6cMAAAAABgMAKpFxVUNQBxi+a1C3N9zrFFYrZY+6XxOyvgYr7FYsQoAQG5UbPq2Z5znIMt3r3SUj1pcH23ROvi1nqc9d1hse3KdRSthAAAAACg9CqtAdczx/MIz2fIrrKptrQZZtEJjEZe6RwZ6DrbY76pvpseo14gKq3O53ACADGnv8Bs8n/O813Oc5btfOspncMoYi441e3qO8JzkmeV50KJ98BxOFQAAAICyorAKVMdiz5WeN1oUInMaYNNKjF0tVuNO9yzncnfbWM/rLFoI5miZxYoGDbjRLg4AkKs1nktb/e/DPIM4LcjQCIsVrAek/317eh74q0VrbO3J+gL3fQAAAADKhNnVQPU8bzHYkOOqzi09p3q25jL3iNoGnuAZlunxqWXc7zwvcqkBACVwhefzFttBrON0oAT29fyr50LPdzznebbjtAAAAAAoEwqrQPWst1i9cE+Gx6ZCoAqrY7nM3VaZ8a/Warnux/aU52rPEi43AKAEVEzV/pNqC/xTizbBQM40fqCuV0Mstrc432I7lK94jjL2HAYAAABQArQCBqrrDs/NFgMLuX1WbGMxgKL9lRZyqbtsL8/plu+Ak1Zsa8XOc1xqAECJqJh6k2epZ77nLM9kTgtKoJ9nYspUz+6eoy0mG+iZ6BlOEQAAAIAcUVgFqmuFRTvg2RZtsXpndnwne+7yXMul7hK9Dg612Kc2V5pQcDmXGgBQUupY8jfPXItWqeM9AzgtKAm91k9IedjzE8+fLYqrmpC5llMEAAAAIBe0Agaq70GLlsA5DiCoOLgXl7hLVFRVC+XdLL9Ce2saUL6Lyw0AKLHVngs8b/PcwulASW3v+YjnIs8HPZM4JQAAAAByQmEVqL4nLVbuLc/w2NTyS4XVsXx+dJpa/x5n0SItxzbA2l9Okwnu9KzhcgMASmxDuv9Ta/yPez7reYjTgpKp7MG6q+d1nm95/s2zE6cGAAAAQC4PPQCqa5XnPs8Mz5GWXxu4/SwKhRd61nO5OzTCc7blO1tfhdXfe2ZyqQEAePm78VaL1sCacHeGxQSr8ZwalMzYFL3+VVj9S3pvPMWpAQAAANCsWHEG1MZSz689T2R4bBoUOdUziMvcIU1e2TulX4bHp5U5L3qutthTDgAAbLTI8wPPP1u0CH7Ms8KYmIbyGWXRIvvbnjfbxj2IWzg1AAAAAJoNhVWgNhZbtAOel+Gx9bXYL3RbLnOHtvGc4hmc6fGp3eFtRlEVAID2POf5muftFh0/lnFKUFIjPe+xmHBwmqc3pwQAAABAs6EVMFAbWokw33OLxZ6kozI7vnEWq1afTcHm7eg5y/ItrD7tuchiwBgAALR9X/i855p036Q9WA/1nGBMVEO5tKTnohM9W3n2TPeS93NqAAAAADQLCqtAbf3ZYk+hUzI7LrUBfrXnRqOw2pahnv0tVq3mSG2AtZfwVcbKGwAAOuv+FBVZH/Kc5Nku3S/04/SgRPb1TLHYg/U7ngctuqEAAAAAQKHRChiorRmemy2KUDlRO2DNMN/Z2BupLSqqHpHx8Wlv1Ts8CzJ8fQMAUGtqo/8Vz+s8X7Zorb/KYnUr36soCz1TaM9V7b16uMW+qwAAAABQaBRWgdp7wDPHszbDYzvQM5lLvFmHeA7O+Phu9VzLZQYAoEe0dcRvPe+0KLJq78knOS0oGW2d8j+eN3r6czoAAAAAFBmtgIHau8eiJfBbM3zPHee50zOLy/yy3p6tLVasDs34OKd77uVyowtYgQUAm7cgRZPx1A5Ve7DuY1Fs2tVib3sgZ1q5qsma7/UM9lzomcdpAQAAAFBEFFaB2lOrtz94TvNMzOzYtCfYoZ6fWeyJROEkWpidavmu5F3necwz07OCy40u0KQDWocDQPseTPmlxZYC0zwHeSZ5hltM2mJFH3K1m+dD6X5axdXH070nAAAAABQGhVWg9tQCWANk93vGe/pkdnzbW6zOVGvYlVzuv8+yP8Wi6JyjpZ5LLNpbA52lgmpf7jsAoEtuSvdX+vzcO91faB/K/dI/A3I00nN+umf4nrFyFQAAAEDBMMAJ1MdLnj96dk7JyS4Wq3HVErjshVWtyNvdon1frgOeSywKqwxyoas0qYS93QGgc9QFZG3KKs8tFnuv/s6zrWcPiwKr7sN24nQhI7pXUHH1zZ7Vnm97FnJaAAAAABQFhVWgPtZ4LvOcYPkVVjXwcbznRxZ7g5WZVqme5Rmd6fFptaoGdu+zGOQFukIDpbQCBoDuUYH1iZTbPdd4pnh2sCiuqlXwBM8Yiw4ptAtGs9Pr+Z88yzw/SPehAAAAANBwFFaB+tDeQE977rJo4zYgs+NTQfEwz1OexSW+zlPT9c11Vd4jnl8bRVV0D3swA0D1LPLckCJDPAekexH9qr3eNflN3QLURaNf+n1vTh2aiCYOvMfzjOfK9LoHAAAAgIaisArU1wzPjZ7jMjsuDdSdZNEO+I4SX99dLWbX5/rZ+pjnKqPlMwAARaPVfNqTVatZL/AM9IyzKLDuZbG6Vb8fz6lCk9EEzk965qbXOAAAAAA0FIVVoL5UdFRhKrfCqlZCHOHZzcpbWD3IYtVurp+rz6dru5i3MQAAhaOuACvtHyc/aU/WBy0m9W3lGZF+rbQL1u/Hpd/rnw3kNKKAtkjPGO/3LLfoAAQAAAAADX1IAVA/L1msWp1jea1sVOvb4Z79LfaSfaGE1/Y0z74ZH59WCFzLWxgAgKayOOXRTf65Cqpbe7ZJUXF1rGeURYF1QErl9/1b/e9enFY0wJmeh9Nz1EJOBwAAAIBGobAK1J/2If2N558sBq9yolWbx3h+VaLr2WKxAuTADK9nhfYI/otnJm9fAACy8HTKpqv/tAdrpeg62jYWXCsrXcel+x4VWQdbbAfR0uqeqPXvbTO/39z/zv0+UenV6vctJTsH1aJzeFx6zf7Rs4pTAgAAAKARKKwC9TfPc4nnlZZfIW4Pz+FWrsLqUM/xFiuQc7TG84jnfosCKwAAXaFiSG9OQ9NYl+5Vn0vPin1SNv19S7qu2g5ikMVK1sHpV/2Z/q3+zKD0Otgi/fPeln9hcb2nn0URemTKiJRhPId32+6e11p0UaGwCgAAAKAheKAD6k+Fqns991isAOif0bHpWPb0bG+xMndNCa6nWiCfZ/kWVpdYrAp4mLcuAKCbzxsqMLFCr3moKLjKul640jWuFF4rxddera5/L9u4wjX318OGdA4GtUql8Dyg1f8eYhv3vtU95ZYWK4O35mXY5rPGAZ5TPRd7FnFKAAAAANQbhVWgMZZaFKt28eya2bFN8pzj+YFnQebXsW+6flqlOyjTY5zr+Z3ned62AIBu0OrEPpyGUlAxcXUKOk9F1NZ73E707GQxaU+FV3VHGWasdK1QAfqtnlmeGZwOAAAAAPXGgxnQOFdZtJDNrbCqWfanWxSOcy+sasBLe8oOyPT4NECqQasHPWt5ywIAuvldsoHTALTp2ZTWWtL9pSYs7uM52HOQZ3LG952dpVWrh6ZnKAqrAAAAAOqOwirQGGqxNt9zt+cMiwGSXFqi6XNlN4uBn4cs78FUtT0+M+PPUhVVrzT2sAIAAKgn3T8vT/diT3tutFipqQmMB3pOtGiJW2aHWBRWZ/FyAQAAAFBPFFaBxlFx9caU4zM7NrUqO8lzv+fRDK+diuDaL0wDWztk/Bq9zaKwykojVAOvIwAAuv68sDDl8fTP7kzZM92LajXryBKem+M8txiFVQAAAAB11otTADTUfZ6LLb+9qDQIpMGOAzO9biqs7u3ZL+PX5hKLwqpWSVAQQ7XuOVo4DQAA9IjaBl/i+U/Pxzw/s5jIuKxk52GiZy+LfZwBAAAAoG4orAKNtdQz06J4ldtny7aePTK+dlqRu2emx6ZC6jWee3iLokoqq7zplAEAQPVoteanPG/x3FDC45/gGWWMawAAAACoIx5AgMZSAWue53KLFl850ezxXFd1qt3a4RYDOTlSEewyixXVQLX04b4DAICqWutZ7LnZ8wnP1z0vlej4x3mmePryUgAAAABQLwxwAo23wPNzzxMZHttUz9mZHdMQz7GenTP9DF1jsfpBbYCX8PZEle85aAUMAED1qcCqfVe/5vmu55mSHPfWnn2NwioAAACAOqKwCjTeCs8tngcsilo50WCHVnaOzujzZpLnXM+Wmb4eVej/vcX+XUA1sVcvAAC1NdvzRc8vPHNL8N07wrODsdUAAAAAgDqisAoUgwY9rvc8nOGxjfEc6RmayfGMT8czMNPX4vOeSywKrAAAAGguiyyKq5darGTNmZ4vxlpsQQIAAAAAdUFhFSgODX7MyPC4NNjxastjP1IVVY+wGMTJ8fNzpUUbuXssv9XTAAAAZbDe84LnG54LMz9W3Y9rn1UKqwAAAADq+iACoBjmeW71LLa82nYN8hzt2cWaf3/FQz2nZvwa1N6qKvCv4u0IAADQ1LTNyDc90y3vlavDjHENAAAAAHXEAwhQLA9a7Lea22rB4Z4DPSOb+Bg0E/5gzx6ZvvZUzL/ZoiU1AAAAmt/tnv/yPGv57req/VX7cKkBAAAA1AuFVaBY7rdYMZijYzz7NunPrsGaPT2TM702ahmnNsD3WrSOAwAAQB40cfOvnpcyPT6NafTnMgMAAACo50MIgOLQgIdWDD5iUezKyd6eQ5r0Z9dq1bM9UzN93a2zGHC7M8PXHQAAQJlp0txvPU9kfIzssQoAAACgbiisAsXzpMWq1dxWDg60KEyOt+Ya/NC+sGM9x3u2zvQ1t9Tza8+jvP0AAACystpzg+fxjI9xA5cZAAAAQL1QWAWKZ7nnEs9jGR7bjp7TPf2a6Gce5DnIMyHj19xcz62Wb4s4AACAslI3kgUW+6wCAAAAAHqIwipQPJpVfpfn4QyPbZLnFGuuwup2nrM8wzJ9vc33XO55jrceakgrvwdY7FcMAADqSys6X0jPGQAAAACAHqCwChSPBj60anW6Z3Zmx9bfM8Viv9X+TfIz7+E5pol+3q7Sfr4/9yzhrYca62vsgQYAQKMs8izjNAAAAABAz1BYBYrres+VGR7XUIsVoOOb4GfVKtX9PSMy/bxc5bnXc5+xggG1x/5nAAA0zkqLyZsAAAAAgB6gsAoU1xOe2y2/YsQQi3bA2zXBzzrNc2jGr7GHPLfxVgMAAMjeuhQAAAAAQA9QWAWKSwMf91u0BF6Z0XGpFehEa452wEdZtC7O1Q2eq3irAQAAAAAAAADQMQqrQLE95vmF5bf/pT57pllxi5Z9PLt59vMMyvB1td6z0KKwOp+3GQAAAAAAAAAAHaOwChTbi55rPXMtimE5OcBiRWhLAX827a36Gs+2mb6utL/WdM8s3mIAAAAAAAAAAHQOhVWg+CorCxdkdlyjrLjtgLUP7EmeMZm+plZ4LvE8ztsLAAAAAAAAAIDOobAKFN8yz0WeRzI7Lu21urvnaM+AAv1cgz37e3b2bJHpa2q253rLr8U0AAAAAAAAAAA1Q2EVKL41nls9t3tWZ3ZsarV7nkXr3aLYyXOOFavYW03Pea72zOOtBQAAAAAAAABA51FYBZrDBovC6uzMjksF1cM8Y60Ye63qZ5jiOd5iRW2O7vH8Kb2mAAAAAAAAAABAJ1FYBZrHzZ7pGR5Xpbg6qgA/y5aePSz2WM318/EBz30WK6EBAAAAAAAAAEAnUVgFmsccz3We5Zkdl1runuuZXICfRQXeIzJ+DT3kucmzwlixivrr7+nDaQAAAAAAAADQrLbgFABNQ4Ww+y32Wz3EokiRy+fQQZ6pnls8axv0c/T1nObZM+PX0B88t/FWQgOozXY/7jsAAABQR73Tc54WFawr0X23xg5WcvkBAE1ooMUiHI17axypT0rv9H3eq9V33dpWv6626M63ymJByXKjWx9qiAFOoLk87/m9ZyfPNpkdm1rwaq/Vpxr0wL2jZy/Lp2C9KT1Y39qg8wtYutllpTQAAADqZbBnW4ttZ9aW5Jj1bKuB5Mc9z5XouAEAzW+MxYKXnT3beyakf7ZV+k5XoXWQRXFV33VL0q8LPU975qdf1bHvXs/DxkQj1AiFVaC56IviMs/rLb/C6qGeaZ6fNeC/PdxzajqnLRm+bpZZtACebRS2AAAAAJSDVqtoUPa9FgVWDb7mvnK1JR2jxg6+5bmElwEAoKBGWHRlVBfD3T1be4Z5hlgUUgekbG5bqf7pz1n6jlcxVkVUrVZd7Hkp5QnPTIvFJvdwylEtFFaB5qLZppp5Ot1iheXIjI5NX4AneH5j9Z9NNN7zmszOZ2sLLArWT/IWAgAAAFASa9Iz0AOeKRZF1jKpbMVxmbFiBwBQDCqeTvbsYlFM3duzm0V3ie7SpKKBKTJ+k/9fK1hVVJ3ledBiqz39s3VcDnQXhVWg+ajdgWadqm3tiZl9HulhVy0f7rL69cHvm/6be1ueq1V1k/Co52qLmVoAAAAAUBYqqn7Uoh3g29IzZ7+SHPuRFi0U1R74OosJt3QwAgDUm1acbmmxsvQYz+mew+r4398lRV602GZPY+sqsqpt/hIuEbqqF6cAaDrrPXemB8TcaHbSSVbflaOaJXV0xq8X3SDcbNEKCgAAAADKRp2ffun5kpWvDaD2qPuy5xUW7RQBAKi3SZ4Pey7yfMyzfwN/FrUaPtfzA8+PPGdbeSZcoYpYsQo0p1UW/eFnpy+nXFZajkpfaJo5NL9O/819LFb+tmT6WrnP8wfPat42AAAAAEpqmecKiyLrWzynlOS4tUpIK4TO9wy3GEh+gZcDAKAO1OL3VZ6DLDovjinAz6SFhoNSRlss7tHq2Ws8f7TYoxXoEIVVoHlp0+0/e96b0TGpLa9aM+1rsZfs0hr+t1RIVRuKAwvyxV4La9LrZCZvFwAAAAAlp1Z/mnSqbj7LPcdZrFwpg10977YotP7aYm85AABqQcVKLWTRytBzPIML/LPunqKxaC1eutRikQqt89EuCqtA89Jq1as8b7AoEOa04lIrSLWR+B01/G9on5nDLfZXzZFaRj/muZu3CgAAAAC8bLpFhyRNRFXHpP4lOe4Jng95Rni+53nEYgUvAADVoFqTVoGqK8QHbOO+pl21rlVU4FyfYvaPBc+WVtE4b6+ULazr4+RTU/a22DpAE5CWGQVWtPNiB9C8tKrzds+hnoEZHdexFjOEallY1RfyiekLM0e6gbjayreHEIqLm1EAAAAUhSahft6zwPLqAtURrRrS5GwVV79qTMQFAFSPuiOo9fxJFgXW7nraYjxTE4Ce98xN39faGk+tejWmqw4Mauc7IP231PZeE4gmWyyi6e6kKf3sEy1a52t/9mVcVmwOhVWguemLRRt/75Q+9HOggqBaRuznucSz2KpfkNFn386egy2vgnRruuHQHkJP8TZBQd7X3ZkxCAAAANSCVqs+4PmOxSDtmz2jSnLsKqqeme7Pf+i5lpcDAKCH1F7/TZ5TPUO7+O9qDFMTfe616NCorhLzLIqq2iZukWdlG/+uxpmGWOwjrvb+KrKO92xnsWJWW87t0YWfRX/XARbjxfq7VFx9nMuLTVFYBZqbvlwus9gIfGJmx6YvMa3EvdKi9UM1qXB7lsVsphxpv6AbLfYEWMPbBAXRl/sOAAAAFMwsz+csWuK+LuNnxE1p0Ft73w1L9+g3W4wvAADQFVo1qvHbf7MornaWCqVaDDLHc5vnr56bLMY0u0KLcRanPLHJ/zc5/WxHWqxiHWudX0mrYqxW32rl6w/Tzwm8jAFOoLmp9YFm8dzlOcRiVk0udvOc7LnGql9Yneg5w4q9eXpP6Ebit54lvEVQIGrT0pvTAAAAgILRYOynLFbEfCI9V5eh04qOUYPgY9Px/9nYvgMA0LXvkcM8X/Ds3sl/Z0PKLRYFy8vS928tvn/+lvJzi/1TX+15hUXL4M58z2/lebvFJCRtH/AMlxwVFFaBPPzFoq3tkRkdkx5m97WYSVTtdrZqA6xWEH0zfT2oRfTlRmEVAFCcB24AQB6f570yPTatWP2pRZH1455tSnJNNflRq3JUWFWL4J/wMkeTqxRtANTeiRYrVXdP3yedcWv6vtXqVI33LqrDz6m9WWda7N2qQu4rLbpUdGZ7OBVXz7bYa/Xbnie57BAKq0AebvdMt7wKq3pon+g53vO7Kn7Rqr/+Mdb9TcyLTvsPqI3Ti7wtAAAFsY5TAABZULu/oRkf37Oen1lsp6IVKgeU5LpqMFyTms9Pv/+t1Wegu6somFVXrhPf1CVJ492rucRATR2QviuP7uSfV0FSRU11R9ACoVV1/nlXp59BUYH1Uc8pFituO+quNs7zBs9Cz489z3H5QWEVyINm1aofvVrATrB82m3qof08i1bHM6v0dx7rmZbxa0Ezv67gLQEAKAgVVTVAzUAoADQ/TU5VR6GcOxFob7cfWez99j7PXpbvpNxNqU3i59Px/spi0m6R9LJ8V0w3wvpMj6uPdX7lHICu05jzjp4PWCyG6YieBbUy9QLPd60YRckHWkVj6tqHdUQH/47a5r/Roriq7g6reCmUGzckQD400+ZPmX2wD7CYOTSxSn9fS3pYzLmt0wzPHbwdAAAFsYaHTgDIigqrZShaaNXmZywm+K4v0fXVwPJ/ed5mxSsob2EUzKpFr+m1mb62e1s+iw2AIhrlOdNij+7OfE884vlXzzc8LxTsWK72fNRzkXVuIrC2llNxtSutj5EpVqwC+dBqVRVWz7XO9YhvBi3pi+pAi3bHPdlrVfupHpK+/HKcVLI23azcm34PAAAAoH60wlGTSXIf0N/Ss53FKo+cC45qGfjX9Os7PGdYOQZR9fodbFFYHeb5qkXLxCLQxOtcxjqKsE2CPrNy7CjSL71WANSGWv+qBfDwTvxZfY9+Kf26LP0zfZdO8oxJ79WejmGuT/df+vuXeuZ7lnTy312T7mf+12Ilqr7vR3bwHbmP55MWK3Yf4+VQXhRWgXxoNYiKand6Ds/sRvLkdFw9KazqfLzWYnZRjnQz8AeLtskAAAAA6v88pnvy3NvGquim9ria2Ls482NVW+BrLApQGqw91WKlThlsazFwrgHwn1r1tubpCQ3i5zCOud6K0c1jheU5OWKIxbZS8/haAqpO3/+vsyiMdkQLZP7HYl/V1jQ+q+LsURZFzJ4WVjek+y99pqm4qlbD81v9qs+C2enPtOU+i/b3uofTlnRj2vmz+jOabHWjRXvjF3hZlBOFVSAv+gL5TXoImpzRce1h0e/+YuvePm2aUaT2v9Os4575zWhD+iLXzcpc3gYAAABA3WkFWhlaxg6y2F7lJsu/sFpxU3reUoFVHaJUtGkpwXGrQHV++vWbFqt6Vjfg59C51vjl6Iye31cX4OdYbnmuWB1unVtJB6Brn8NaDf5Wi4Joe1Qo1cIYtZW/eDP/v/6eKZ6T0vdLLWnxyc2eKyy2TluSvss3R0XYr1sUft9kHXdIUIFZk8x+m+lnKTrAHqtAXlRYVTvgxzM8Nq003dW6NyFEs4o1G2pEptd9ZbpZeIK3AAAAADajxcpRCGoUDahVVqzmTgOOu1m0BC4TrXbRyhsVGJeU7Nhf5fm4xUqlRtAYgFZHDc/o86IIn8cqrOY4GWRLo7AK1OK7XwteDrKOO3NowcdnPTe08xmo+6WVdfi5tR3cGyxa/X7Hc5i1v2WDVrf+0nOVdbySVmPU0yw6eXCPXUIUVoG86Kb4WYt2Cy9mdmxatXqidW/PIj2EqQ3w0Eyvu25afu9ZwFsABR9AAAAAjdHX8tmbsKg0SLiuBMepAdX9LPbfLNv1fcjzI8/nLAqtZTE4PYt/wnO61X8fYbUj3tOzdSbnc1VBfo51BfpZqmm8ZwJfSUBVabKCVqtqYlV7RcRFnj9bbFXWXovcDVafMSLd/w5JnwuneD7tebO1vVJWn4vaiu57nkc68XdrEc8ZxnhXKVFYBfKkmTUzMjumcRZ7rXa1/Y++6Pb1HJgeyHJ0t0Vbi1W89FFgW1h+s/jq9TAAAEBPqYPLYE5DTS0ryf147/R62sminV/ZqKD6LYuVq7NKdNxqAa2i6gc851h9u0HpOf4Ii+19crC0IM8QlS2FcnueGevZka8koGo0rqotADQm29EkvekW+3IvKuBxaGKYVt3+i+eV6bg2Rytp/+L5vufJDv5O3Qu9xrMVL5PyobAK5Ok2z7WWV1sXfV7tmr7Mu/IAv71Fq4pcveS5w2Kl8npe+iioyn4cuRVWe3EvBQBoAiqETbA8i2AqCKwtyM+x0KJgUhYHpWetMlIRXYXVL1gMuq4r0bGrwKmVq2fU6f5ef/+w9HrLZeB6iRWjmKnxA7W9zG1CiAo/k6z+K6uBXG3nOcHa3w9Vnyfad13d9G6vwj3VinRPtaydLE9/TlExdHUnv4+16va9nr3buTdWlwq1D/5rB3+nPmfUbliLeQbwUimXLTgFQJb0BfBgukkel9ENpb6k1LpBLZj+1sl/R/3zD8n4Wt9ksRE7UGQaEMlxxbhuwvtzeQEABabv34meMRkf48qC/BxanVGmwqqes662cq3a3PSZW+0ONdH1Pyxa1ZaFVuicb9Ea8htW272Fdb+tbYHGZ/S6UUGgCJOiVbx4zqLQm9szjYrwO3setXLsfQ3UkvbXPrWDP6NJbr/w3FKF/55W0n/RYtHQiDY+u3R/OzClf/pzO6Tvi87sB65V7e/wfMrzVBt/RgXbK9LfObWdv0vfhWdajFU/wsulPCisAvl6MD3ovd7yaftVKaxeap0rrOrPH2kxmJQrDWbczcsdBVeZcagBhJxWeI62rrcnBwCgnjTwpPadu2R6fGutGCtWRQOBS0r02tIAplrqXWzFKW7X24ueS9K9rloLHlWS41b7RA1cv92iRfBPrON2id21redcq2/r4VpaZcVZsapVWE+l13FubSz1utG+wNoT+SVuBYBu0yR5reyc2MGf08KeCz2PV+G/qckn13lmduIeV5NvtkjfRRqbGZ/uefX+P8ba7qqg1bcqFl9gbRdWRS2BtSK1vcKqxtw1Vn2RUVgtFdrXAfl6xvPr9GsutPJWK3D3sfZbUIhmLKkVw5RMP+v0EKT9fdQGeCkvdxScCqoLLb82U9q/ZxsuLwCgoDSYpPZtZ2b8fVWkvQqft3IVVvVsps5AKib2KfH7TNdexVW1Bb6+ZM9mWhH4IYsC68Qa/P0aLFcLYO3rl0src7WufNGK0wp4rhVzL8SeUpeG0zxbcysAdJvGUrWyc/cO/pxaAGs7uvusOq3xO/v5uCZ95+ozTIXduywWGH3F8/n0+xXt/PuaUKJJQu218NWq/ukWY+vr2rkfGpPOE+2AS/YGAZAnFTDusc63zG0merg6oIM/oxmtZ1sUPnKkWZd/8DzNSx1NYEO62c5tNYP2exrH5QUAFJRak02z2Esq173mFlpxCqsLrFyFVdEg4lvSPVHZqZPQ+y22aVldouPWSh2t1v1g+syppokWe7rq723J5HzpM+L5An1uPWt5TgbQRHutstuVjyag23TvqMlTO3Xw57RK8/dV/O5rqcJ963TPpz1z2vkz6niixTiTOvi7nrAYf13cwZ/bz/LtEIPNoLAK5E3tEy7zPJzZcR2UHrDao5lH2lx9RKbXdnH6Yp/HyxxNQA/tmgywIsNjG58+Z1q4zACAgtnfYh/EXIteGsBT+911BfhZKitWXyjZa0yrCNUlSCsKh5T8/abXgCY2f8CiHeC6Eh279rg7x/M1q+6g8qssWpnnRIXV56w4rYA1EX9Bpq9LfSa90cq1/zFQ7e81fcdv38Gfm+O50Yo1kV4/uwqil3vmt/FnNIYzphP3yfp71Jmio/EstQuezMumPCisAnnT7BvtRzozs+MaajFQpLYum5vFpCKHCq+adZTjXtIqmGsT93stv9aqyPeGfKHlWVjV58w0i1nRAAAUhQZ33mZR5Mj1uV+rrDRYVpQClgq9z5bwtabuHe/yHMbb7u/P3/dbFBi/b+UqtGti83meT3kO7uHfpc8sFetfZfnt/anJpuo6tb4AP4t+BrUlnpvpa1JjRcdZtMMfyscT0GV632jVd3vtbTXOc7fF4o/1Bfv5NV46w2Li2+aosDqyE58P+ns0rv5YB8e4vbFKvlQorAJ50wf+U+kLYFlmx7aD5ySLDco3pZYvr7R8V5BpBbLabKzkJY4m+iyalwYScjPBYtBnDJcZAFCQZ3wVurRS9YzMj1V7aj1pxVoZ+Gy639lQstectml5vWcPo4uHpefv//L8wmIlz7oSvRbO9XzEYiL0wG78HVoFrcLsx6zjff2a9XPrqYK9JmZbnm3M9VmkVtVa9ayxo758NAGdpokJ2l91VAd/Tvuq3lnQY9A4lMbC17TzZ/QZ0ZlJ8prMpwUuC9v5MypAb2dsj1CqG2AA+dMG3rdmdkwqZpxmm59ZtHt6GNsi0+s5y3OVxYxooBlo4EATAp7P8Nj0GXS4xWQPAAAaTR1d/t1zYgme91WgeLxg98RqqakixfoSvvbO8vyrZ0vehn+nSYVf8HzX80zJjl1b8vw/z77W9X3ytCf0+yxW3ee4N7QG5Z8o2GeEJqg8mPHrUa2A327RwYGJH0Dn6Ltc+492VHRUO/Gibj+n+2BN8OlThb9Ln9lamdvRCn8VomkHXBIUVoFyuMNir9Wc6MtRe63uuMk/V+uF/ar0xVlEGkC6Kz2QbeCljSahAc+HLM9BJT2caxD73ZbnrHoAQPPQasHPeF6RvptyH0BWC0sN6K0p0M+ke51HSvr60+CrVklrpeZE3o5/n1ioVtU/83zRYhuXstCq00M8X7LYe7WzE571HK/V9iek5/0cP8M00XRVwZ7lNRnkgYxfjxob0tiRiv3T+GgCOkUTyCdbx4VV3fMUtZ246l7jbfOdDi19Di+3zm2xpu90jcU+3cGf09Z0O/PyKYctOAVAKagYd4vFjO5tMnrva8BIe2a0Lthodv6hGV/Lmzw38JJGk9ENq1qnVNpe5Tb7XMdzanqo0J5a87jkAIA60sDRgRYrcl5r+U4w3JSKVioIFGnF6hyLlnivLOlrUXuV/XO697vAom1e2em+8CeeFek9quJhGVbNVYpZooH5P1ms6N6cvq0+w7Qf5qBMz4leA0WcaKoVq3dl/npUi84T0vfFcM/1Vq49kIGuUovcSdZ2YVXf86vT58eqgh7DEIvuYu21M37OYn/YjqxL95wdfYarDfD2vHzK8wAGoDwPdH+wKLLmYkO6Od671QPbsZZvS049BGjl8b28nNGkNLljfqbHpgkrGkQ9Nz2E0GYKAFBrmtijVm0aNPpPzxutPEVV3RfPsZi4VaSVXxqov8eigFLm1+U7LfbIPDjdF5V97En7V2rlqlaUz7DiDkLXwkHptaCV9KPtHydY6nUxJD3Df9bzGsu3qFp5FppX0Nenthsqw/7Qp3g+l57btB95fwOwOZqMoNWebe1NrEKjiowLC/rzq+vBgekeeWgbf2ZDupd8rhN/34Z0b/dcB5+T+m9N4OVTDhRWgfJQMeOPFi2zcnpoV8uzSjtg7eEyMdPrV5kdpYGalbyc0aQes7wnBqgjwJs9b0038gAA1JK6t6ht5vcsClhloj0KHy/wc9dTvDz/Xiz7hsUqxGGcjr+v7Pmr5yPp1zLRqqcPpddC65VDKqK+1/NNiwHw3pmfh4cL/NnwrOdmz7ISvB41Ef/j6XU3jY8mYLNUWNXkg7YKq5rgpsLq8hr8t1W47Ok2D2pDr8lMw9v5M5ocf79FcbWzFnXwsw1O5w0lQCtgoFwPcnemL43tM3n/a0WY9m9RcfUYz2kWM6pypC9vFcZnG3uronnd57nGc1LG91W7et5lMSP/pxZ7vwEAUE3a8+pIiwFhbYGxTQnPwUzP3QX92bR64w7PWIsVxWWlopkmvqqouqdF552rrLirW+pBK6zVglSLHLQ68JySHLfukVXMeks6dq3a1T50R1sU4LcryXm4q8DPBlpJe7FnikVhIGfq7DAhPa+NsRhLutFzu3W8fyJQFv3S+6OtTlxr0+fG0hp9Z2xlUdzdXBeDDel93Df9qgxJ913bpftkrVTdo4P/zhyLMfKuFHHVmUR7ZY9v595nNC+f8tzcACgPzT68PH255LSZth7YNfN1quU7G1r7FvzK8lpxjPLRQNqM9MCqVTa5zkrfyWL2vWZHak8trah5lssPAOgmFSI0wDQufceoGKF2hmVuNXaLxeqvIlLB7ArPAVbuwmrFDil7pV9vTs82ytoSng8NCF+XXidyrLW/oiYnGvBWZ5dpFvvxTinRddfA/X1W3IkFej1q4sMbS/TdoqLMwSmHeaanZ9U5Fu0+NfZCtzCUVaVw2Za16X1Si60P1E73VRaTsoa28T3at1X6pfutbdJ98lad+G9oz+9fWnRV6+pnpYqrbRVWt7C2Ww8jMxRWgXJpSTfLumnMqbC6u8UqsVxbb663mNmqWfnreBmjyaldjAYbz7K8B5E00/sdFiuJfmixx/Uz6T28npcBAKCd+/VerX7VgNEuFitUz7DYr7Bvic+PBtM0oKWtBZYW9GfUoJsKZ2/O7Jmrp1RY1SDpHM//Z+8+oO26ygMB/5JsWe4dN4wrzRCwgQRCSWCAJIRkBVKGJBCyAiGNSSFl0sgMmSQEMkASSGCoAUwnNMd0YxsMsSnuvWHZlqtsbMuWZUuyNPtn75v39KxX9cq953zfWv+67+k9yzr7nnvOPvvf+98nl/hI1IpKW8ZFnyrz5KrrLOX92hIvjjo+t6wHx/3Q6N+kkDyvc6LlMJcI3xJjq7d+MPqzX/fAU1rkYoRMrp7aXs+Psb1nt467TqkiRtetmME1I/thCzFBKpOkv76Ax5ZjMllZ5N2tTzkbuUf6dMlkezf3hMQq9K9DnyvFMkH3S62z3IWHt67ftC5tHXtJVbogk4tZZipLLvVhdn6WofnjEi+IWgb5pOj2PrMA7JisvnJciWNjLBE1KCmbK7xW9rx97m730xuG/N+ZlSouKfHUMMA2Xj575qrFX259wauilt88o8RZUQcs+9Yvfk3UVYx/4PTorDvaOT4K1adyUkiutj++p+9VlvHMFaw5cf+lUZMuuaLtina9ujzq9kx3Oa3puOn6LplYzRXdo1h5Iq/Hb4xaOWO2k943xfQr2Xdz+vSDxCr0T970vlXiG1Fnvi/TJEMvBxm+oBnoiHuj7mGT5/VB0f3BxsEePhk5SP6EqAOtl7UH89VR9+gAoJtWtnvdLu2eMNgvarcWg4RpTjbap90b856R+1odEd3d5mKusnTbiSXWDPm/MydE5sTIp7Z7P2OWt3M+47jWPj9S4sqog5yZNM+VfTe297vrW6FcW+If2nG+JGoZw+VOk07JxOpnYvi3BsmxoUys5srN43v8fu3aIic1ZdWBJ0edBHFzuy7l+3hXe1/zc3tn1JWuGXe310y8bIw6WWRTe82xuC1hwjyjM44xnY0jdj7nRIlTom7XdFrMLSm8Kabfk3Wl06cfJFahn3IF5MdbB9FMmuG1tXXMcw+pNZqDjg0ufLjEUVFnRPfFIMH6wvZQngnmrCBwQfs+k84b2oP4feM67ZudMr1hoGXp5F44z2j9IuXdmI8+3PL2vJ2Ds1kePpOpmWDdM2qyNCOTqplIPSwkUGci741ZPvX0ds8cdtmH/2pIrM60f/Tc9n0mVrMcaa4Qy0RrllC9qfWRNrbY3O6Zgy0WBjGq1pX4QLse5HXhYKdFZ2xp53BObF8/AveuTBp+ucRPRp0UaiJ+LYk6WQnrDe36dGeMJVrz9Z4Jz3br27VrS/vzLdqWOVje7hd5f1zTzqmFvHbN5LMxzBOBNrfPXn4+c2JEJlPfGXXV+Vwtm8Fn1/hNT0isQj/lTeVbrdN8lOYY6k7A6VFXt0HX5N5auX/PD/X0+HMG9M+V+Nn20JKrVnMV65Wto39tu0bf1h7Wv+eU6QUDLEsnB8veEv3b942l+Xwvm+SVqWWlh5NidAas8j7+nfbslZM3rEKcmUOjJhaf3b7PZE9ONLuj9YnWtn5RDi7nJNRcCZaJiw0jfMxb23Ug+3+rQ2K1S/K8/XZ7HRV53coVXX8VtdoCk8sJU0fF2KS8ia8xyfcwVzlW8IYSn4pa1WGhTFfuNvs0OSF1WPdjzqRzjq3kJPbTWuT9dUcnMu8S01dd2+A07QeJVeinre2hNEsg5KD+/ppkKGVH5bMlLtQUdNADrXObpd+e0cPjz8GzFeO+P6xdi3M/vcEM5/tjbLBwUGZn/YTvt/f3bo6x1Rwe4oe3D74qHjzI/sSoq9tYfPl53HuIBweAugL0c7GwKzTm+5krExSfKPEroTTcXPtI0a7NOYB7cOsb5TkwqOoxKK056lUftrTjOsgp0CnnRi0DPEp98py8kKtWXxx1r1Gmvl6Nf4WFtlfrTyz0ObdpBuf+9p5n50OOh+R2CjnZaPdxf573/6zw8qyYfAJSjqP8TdTqYNlHyLLdt8b8JaFXzuB5XWK1JyRWob9yxuR7S5wQEqvDKDsAWd7jzNapgC7KwcZ3lzgm6uqEvlvV4oB5ehDKATqJ1eGztfXBJfCGy6A0236aAoZSJic+HbWSwyjJEqAfLPGcqHvmsmMy4TrYnxhG4Zn+ayXOHsE+0SXtOe2PolbaAYbDhlicCdSDkvsrprgf51jyqgX4f2dFig9FXe0/PomZYxyZWM2x0pfH9isNLW/PdF9foHbJLT32neb6ud5p2g8Sq9Dvm/F/Rl0N+bgwg3rY5KBRljq7WVPQYTl7MFee5Cq9XyxxoCaZN5J2AHRBDlBlude3Rd2jcNTkIGDup56rv14UdUAO6L5MSJzdrlujuN9eTu5+b9SJ+FnlTEUV6JesoJBl93PS9/ZWx+Z4Q06O32MB/t+5MvXSmHwv1Jy09ogSvxAPzm1loveVre/4/pj/ahY5CXeqcasca7/D6dMP9vgAckXk1Zph6FwfdVb+Ok1Bx2VJlte1axEAwHg5uP/FqCsPRnUFQP67cw/nc72d0BuZTH1PibNG+BgyOZAr7r/p7YTeyQThjTH5xJBMaGbp+oVYsZqJ3KkW/+QY0uklrpvk50dHrRSSid/5zn3latU9pum33uD06QeJVSBXi0loDJecUZUbrJ8fdaYWdNmW1mH/pxJf1RwAwDi5YuENJa6K0S1vn6s+Loo6afI6byl0Xj7D52SQLAN874g/p+Vx/HvUlWtAf+S164aYfF/7TKweWWLvBfr/L5vm2nRyiU9N8W97bolXxPzmvvLfdOA0/7ZcHLPG6dMPEqtA3iizJPA97ebE0ssBpCwXdp+moEdOK/HWEhdrCgCguLzE26PusbVpxI8ln7NOagF022VRV6mv7sCx3N2uW+9vXwP9kInVa2PyxR6ZXNy9xGGxNPmlnJyfidWcuLa9VbWZAP3lEs+K+SllvqId68HT/N661m70gMQqkDKRkSVqNmqKJZcz8TPBdIamoIe+EHVVyndjNPciAgDmpz+c5XP/tcS/dei4cvuVXPmVg4CbvM3QSZmM+GyJz0R3JkrnNkVZXSgn5Bszgn64u/VbpruOHRN1H9alcHnrK944yc8PKfHbJR4dU68ynYlcBZt7Th86ze/dGbbb6w2JVSBd1jr+HvCXXiaTzitxq6agp533LE+ee66u1hwA0EuZWP3n9nzSNd8q8b/19aGzPlbiXR08rptK/K8S3/AWQy9kgjAngk2XWD22xMOX6N+Y+0BnSeDLJ/l5rlTNksBPiR3PgeV//9ioydqp3NbajR6QWAUGN8xTo64SY+lkiY1TSpwbVuvRTzmQmgONuZrjzVHLYgMA/ZH7+L0p6krVLu5HuqHEF6Ou/rLfKnTLKe3adU0Hjy1XqubEkH+IOnYEdFuOT2aC8K5pfu/JJZ6wRP/GB6LuZ5qTWba3pVSuUt2jxMtLPG8H/187l3h6iYOm+J0cz8oV/jc5ffpBYhUYyBrwuVJsraZYMpngzr1LlI2g73Lm4ftKvK3EFWH/ZwDog1tKfCDqtgBXdfg4s8zxO0p8KOrKBmC0ZeWvb5Z4Y4kzO36sX2jHeU6YDA5dl5Per4mpqxtmojFL5O4SO15ud66ywkmWYL93kp9n4velUVebzuXfmEnVXJV7XDvOyWRJYuNXPSKxCgxkpzg3/r5YUyyJra3DkvuWrNMc8P3PwYkl/jZqaZetmgQAOisHoT4SdbXqLT3p53ygPX8ZgIPRfo7PKjv/UuJr0Y/tlU4r8VclLvGMBp2WScicRHHzNL93dIlHRU1ALoVcXXt61Op/k12TnljixSX2mcPf/5CoJYV3n+b3zi9xpdOmPyRWgYEs7XJhCxZflovIWVZ3aAr4L7mKO2ce/n7U0loAQPfkHuv/p8RbW5+4L3LwLVeuZsWa+50GMJIub9euqVZLdU2WNP96ib+M7q/QhT7LUrtnxPTJwmNK/HTUPU2XSu7//IEpfn54iZeUOHIOf/dDS7wopk/KfqfE2U6b/pBYBQZyVk9uSp4bf5+lORZdzqz6aHtIAcbkXmtfLvH3UVeyrNckANAZudLrb6ImGPtWPi0ntuYgXO63mmWB73I6wEg5p31+PxH9myCdq+5z7CirC50UNQEDdEv2yXKscrrKhgeXeGHUBORSXpNyMv5kk1xyNe0PlHhl1BW2M7Vb1H1kHx9Tr8jNSYLntVd6YidNAEyQMw8/HrUG/UrNsShyVd7pUUsBA9uXJadyL+hMrP5oiYe5RgHAyNrQ+r5ZPvNtPW+LLB33z+3rXPFxgNMDhtr69rnNa9e/R52g3lefj7qv4Mb2jHag0wM6IxfgZKLwgqiJy70m+b3ML+X+oz/ergdLNdHkxtavzATv8dv5eZY2zr1WLyrxzpjZpP0nlXheTL03a94DcoHS1U6ZfrFiFZgoBzly5vRl0Y/9QYZBzqg6VTPAtFaXeFWJv2udYQBg9OQzxjdL/F6Jd2uO78t+zetLvC+UBYZhl3up/nnUpKrPa71+/W7U6kL3aA7o5Gf8KzH1nsorSrw86urOpZLj2Tm2muV4t7eKPpOjmQT+iVn8O3+mxHOm+Z1MJOfK/ZucKv0isQpMlDfKwexLJQwWXrZxzvK8XFPAtLa0z0zuR/yHJf4x7EsMAKMkVxO8ocSfRq2Us1GTfF8OAGYp5LeX+LOoVTqA4ZKrkv61xGuirk7K77dqlu9fv26OuvL+L0p8W5NAp2Ri9aRprndZJveRUZOWBy/RvzP/fTl5LyftnT7J72Ry9YdL/EJMXQEtE8U/VeKZMX3F1+uiLpgxNtUzSgED25P7+3yqxI9FLeWwmyZZEFl24oNRZ7ya6Qozlx3Wr0YtIXh91NIsTymxp6YBgKGUqwjOLPHp9pyxRpM8SA4IXhl1v9lsr19t/ZtlmgaW1GCV/RdLfDiUe5xMtsu7oq7aen6JZ5U4QrPAyMuV6Ge1eGKJXSb5vUEyMsdp3hJ1YvxSOLP1NU8osd92fp4ljX+yHU9uhbe9PVmztHGuxH/0NP+vtVH3m7a1Ww9ZsQpMdXM4scSFmmJB5KzO3AA+6/9frzlgTnJmYK5a/auoA7U3t06/meMAMBxy8mAmUf8jaunMt4Sk6nRygC9Xrv511JJ2t8b2S9oBCysTqrdHTai+tsTfhqTqdHJSSJZI/oOoq8Zyssh6zQIj75YS/xbTV9Q4psSvlXhaiVXT/O6yWf75bJxR4gsx+R7Yh5f4oxKPiwcvPMwJIS+KOjlk1yn+H5k4Pr3EJ6ImlekZiVVgqhvEF9rNiPmXszhzgGm1poAddm7rFOfKjk9P0XkGABZX7nOVpW3/R4nzNMesZHWO346ajL5Zc8Ciy/LcOcHh90ucpjlmJbdveXOJ3yrxuTA5BEZdVjbMBOLFM/jdXOX5dyUeMcXvLI/J81L55zuaXL20xPtLrJvk5/n3P6rEC0o8dMLPfqb1W6er9Jp/d25rcZVrXD8pBQxMJWcbfqDEkSV+XnPMq1Na25q9CTsu92db2z5XOWkhV3c8N2oJqr00DwAsunOi7jf15agJ1bs1yazlRLFc7fXe9prPYzkAaBwHFlYOyH+6PVPk9es2TTJrOVE/EzGnl7gz6qT93GYqy2/uoXlgJD/Td7Q+Sa7ofMIUv5t7lz41amWxXO1/7oSfb219nKw2tnfU8Zy0vP0sx0l3NFG5qfVFc/u1ny3xsKhj3DHu/5XJ1dxrNfeQXd3+/BUlfqf9u6bzwXav2OT06CcdcmA655f4fyUeE3Ujcivdd1zuz3JiWK0KC9HZv7BFdt5z5uCTos6UPEK/BwAWVA6M5QqvHMjKQfTc30oViR2XpZM/WuK77evs22TpOpPHYP7c265fOYnhi+369T3NMi/PZ+e0yLGlLKWcJUKPLXGo5oGRk9fHHF85qsS+U/xelsb9+XZtfVP7/A9kgvNrUSdf7BdjidVMdGZiNRO4t8zDvzX/nndGHXs9KrZNrA5kAjWrguwfdfLHq6KOfU9lc9RkbI7rXueU6C8DjMBM5CzNt0bdJ+PomJ969319qLi9dSpO1Ryw4NetjNw744WtU5+DkLnPx85hkggAzIccAMuZ+uvaffcdYfb+Qvl2i1wF8soSP11il9av8XwGs/dAu1bloH6W+n1PiS+FCSEL5ewWmZT51fZ8ls9qO7VwHYPhd3+7Tp4QtWTu7tP8/q9ETV7mthBXt2tuJls/22IhZQL00hZTyWN4cdTyxQfMoN+bx5Glzi93OvSbxCowEznL50Mxtgn53ppkTjKp+saoNfiBxXFD1LLbObMyZx4+rz3EH6BpAGCH5aDVZ6KuqLwg6qx/SdWFlSu/coAyV9S9KMYSrMDsrC5xcntOuKQ9r0uqLrxcfZ9Jif8o8d+ilgd+mmaBkZEJxbdFrWz4+Gl+NydMPKvE20u8Puqey8Mkx4VyEVGOde8/g9/PrS0GVVnWORX6TWIVmIlcaZllcN4VteTUyzTJrGX7ZXI6N0+/SXPAol+/vtceALI88JlRZ1geF3UV68GaCQBmJWf/5/YWZ7fXTPY9oFkWRSZ+ro86eSxL0OU+tk8v8aNR9xADJperjXKg/2NRB/pXR030sXhyQs4tLa6NuhI/n8tyz8anRF3RCgyvXLV6VonXlfjLEo+d5vdzHPlHolYNyzLgJw/BdTcnpP1Y1MlpP1XikBn+d5+IOjZ+p9MAiVVgNi6Out/qQ9qD+56aZEZy34BPRq3tL6kKS+uSFh+OWkrvmVH3KsuByNzf48Cw6gMAtufWqAPhOUkpV3hlCbc1mmXJ5OSxb7XI9yNXr+aqkNxHLAcI7cEKk8vV9bnn3+2aYknd1CIniBwRNcHxjBKPas9l+Xy2SjPB0MkJEh+Jus/q/yxx5Az+m6e3z/YRrQ+ZE99vWOR/9x5RS5A/s8RLo07mmIksX/zVqGPiF3n7SSs0QW/8ctRB4y51SNaW+EZsuwE2C+/GEhdGLan50Kh7+jC5+1qH4c3O1SUx2PehS7JDd0b7HK73Fs9ZDkZe2zrHWcIwByVzwHjP9hDv2gbzY0O7/+Xe4sNcHjQnjb0kJCJgMrmf1MdLvKnEv0RdqaAE2vDIiZz/GbW0Zr5XuV/YQe35376FMGbwefihEo8ucW7UyjYMx3UsV6/mpPTvRC25mQuCMrlq4itUuVVbjoVf2p6zllpWLMkVrDkhYuUM+hy7tevvs9vn+7p2TIshn/OeGXWV7e9FTbDORCaRc7zoT6JWaoHvs2IVmIvLSvxpiVeX+O+aY1I5gPzvUQefzGiC4ZXJ6hxUyURr7peRk0aynE0Otvxg1NJUANA3uRo1B5JOiTpwdnOL+zXNUMoSp5mY+ErUAdccMMzSmj8edSBxuSaC/5KD/7m/51tK/G2Jr2mSoZETYM+LOqk/k6w56fUHopYSfWIoeQ7D9nnN8riZY8r93w+dwX+zovVRXh61GmJOpMhJuKdFHZuZb1le/PlRq3ocHXV17Wz6RFkV5O/CuC4TSKwCc5GzdXK13D9GrSufNekP0SzbuL49BJwYZjTBKNgYYwPGubouZ4FmiZosVXNM6/gf1jrh+fU+mgyAjslJgbnaMUuzXRE1OXdp68tu0jwj4+72HmbkYGUmxb8UdWAx+zE5Ycz+8lBLQj436v7Qe5f4XNgrepjuRzfEWJnQM6Pu5/3IcdeyI9u1TCU1WFpZ+eu9USv2/WbUCRAzcWiLnASWE9pzz9NcyJMT3m9un//8u7fO8rqelYgOb5HbI+SYzg+3r2fjnqiVQN7erkGwDYlVYEdkCbAs25D7kryg3aT6vv/FIDnznqi1929xmsBIurPF+BLeORCZe3Cc0B7o8yEgS9nsGrU81ar2tZJ7AIyCe1vk1gJZhi33IP961FUDl2uezvRnTmmxsvVjcgVrDjDmgOMeLXbXf6HHfiJqudkcvM+S2koDD+f96swYS25kqfNBOefj27PZvu1ZbNf2jLZSs8GiyUld72yvr4qazJzpFivZD3lGi5Qr1nNi3wVRJ/rd2vozOd66pUVer5ePi93adeHwdj04oV0b9p/DseRiolwskytoX9/+DfAgEqvAjsrE4Ruizob+oxJP7Xl75IDU69rgxR1OD+iMZa1D/d0SH41aviYf3o8t8Zioq1qzfLBVIACMghz4yr3scgVQlvsd7DO4KaxO7ap8X89sz22ZSH141ERrlsbLlSIHaSJ6LAfhcwA9yz1+OhamHCXzZ23U8pw57pJj25mYydWsj2vv5RPaNW5XTQWL6lNRV5z+btQFOLP9DGbCdLAt089ErSKQidR1UZOrORkw95bN5OcuMTZBbN/2fSZZV7SYa97rmhJvjrq121pvKZORWAV2VN7kchAmy0vlHhgvLPFLMfNNwLsiE8wfjrq3QK5wu9upAZ2ytXXeN4/7s3Xtupel0XM25j6tQ5+vOTh5SHs9oL0e3F494AOw2P31QYnfq1usjlplZW0LSYR+9GUGifN8v29v58Jp4/otucLkie31ME1Gj2Qp2Zwg+RdRy0i+L0yUHmaZaNk47vu7270sJ7p/uT1/ZXnn/du1LKurHT7u6901ISyI+6NO2Htt1AoAL406eWumckL7TvHgnNXe7TO8NcaSrYME6nxeVz5U4iNRJx/e6u1kKhKrwHzJ2vNZGjhn9uTspFy5+qSoswa7LAcjcgPzr0ZNql7nVIBe2dQ63NvrdOeD/IHjXh/SIh/0MwGb5WqyfPD4MsIrY6yEVf55DvIsb322ncf135TrA2CiQUnfdS3WtvvTja2PflV7XaOpiDqAeEtsu3VJJlgfH7WM3sOiJiEGfZf928+V16TLshLNK1s//GPtmslo2DzJc1k+Zx0ZdRuXnEByRPs6yz/nSre9Yqwker7u2V5XaFKYk0x85jhpTui7qcTPtb7FcfPwdw8Sr/Mp+865H30mUzOper63kJmQWO2PvPAs79gxLQ8Dy8MoH8zfWuLEEi8p8StRS2Tu1mLUz8McgMgN2XOWdyZVsyToB0J5iGG+9nWNa9/ouL3FZDJ5mgnWvduD/X7twT5fB7Os86E+E6q7xNj+Z4PE64pxr1s1dycc0d5zlu76CsPY9xzEAzE2S/+BcZF900HyNPun17bIQa2bNSGzfJb7UotBXzoTTTkYmmX5srxmJl33af2TwaqSFbH9FSYs7bVja4stE14n+/PJfp7nwZ496qPkVh9/0vri72nXUyXSR1feIy9rMVFOFhlMIsnqQplwfWh7PbQ9q+0UY/s4roht93WcGMvGBSzU88qonF953fxE61NkZcMXtz7FYIL5Uh5HTsTIcd2clHhyibeXONvpxWzo9PbHbh3sBO8eY6t3GD65gvWD7Qb6AyWeF7VM8IEdOK7cy+MzUctb5GxIZX+HVxevEXktX+lhrRNyb5AsYbV2wkP6ignfR2w7QWr81xJB3ZHveQ7ePVNTLFn7KwvHsMmkac6iv7P1NzPplQnUQQnffL2hveY9ZdO42BzblkmEucikWq44WR21vOaqNraQCYcjoyagMilxePv+aH3UoTB+wPju9rq+Pcuun/Cze9r397Tv7x33++vaaybSf6/Er/aoDTOh9rKoibf/G9tPyjH61rZ77CWx7QSRQewWY1u95Guu3N9vwvf7tNir/X72J239wkIZjIWP0r027y+5EjTHh59e4hdLPCfq5PGlcn3UPVQ/V+LiEnc5tZgtidX++HjUZe27R3dWtWQ5gYu8tUP9ED4oQ5blca+ImpB8RItMtj62PZwPswdibHbjBe31qvZqL6rhl+/ZO6LOtu6C5e0z9W3nX2cMVhuZBU+0zzdLIwfW3hZ1kMwKcBbaIOk5WIm6adz3mSBd377Pfarua5Ff3zMuBkmSDZqTBbZpO/2Uq9v4QiYY9m4xSDRkHDDuZ4OVjvu07wflNvM5cL73RxtVg8/+fe11w7jP/fjvx//8/kl+f3DtGFxnBrGp/fmmcdec8T/bOOHnE72pPX/82gg8w8/Xc1cmVXNyeCYxcjXTN5yqnfzs3d9iKoOqQYOVdqsmfD/Y2mXnGFvNP/h+8POdx13zVsbYysNdw2RZZibPnZxkd96I9f/Gjw/nM9eVUUutHx91C7nHtr7DQstx3JxEcW5rw/z6u04r5spMwv7Yv924u1AucNm4B7zBjEpGy7Ht5pmlpI6Muop1/IP2IBZTdqQHA1R5s8/ZSre3m+wFLZSFGD27tevf1ujGQPnyNkgyuPZt8RZDZ+QAzElRKzx0Sd5L31/i1UPeZ8v2P6C9Sqyy0M8y+RxzXzvXBpNrrC6lS5bHWHJ1rxaDlV57thhsZ5DjFIOkw07jvu76eFV+7gdJ0fXt9d4JcV+MrTAdbEezftx/t2GR761ZLjVL5P58+7ov8lr9yajJ5bNj+iQcTNfn3KVd/waJVf1PZmJFjE20y+v/qI8HZTL1aVHHh3PLgUNibEX4YO/jucgxsxzXvWPca04IywUKmVT9jlOJ+XqoA1hqWToqZyhlrf0jWuS+rLnHxarYdg+BZZNcv5ZN8gA02deDyAfaLOebq2qvbTfbwQrVy9sNGQAWmsQqADDsMun9mhK/E3VidF/GFXPcIAfl/yLqylXjBADzJ+8lD4+xFayPjLooJ8eFM8E6flukibaOu07fFrXCZY7pnl/i0qirU9dqYuabUsDAMFhT4ntRZw3tMiHyBpozlnJVa85mGpRb2aO95gytQSmW8TfYnPW/YdzNdV2MzQbO1ah3tBtrfn3/uBhfTsnDEgAAAIw9W7+lPU//WdSVyH2QCeUTSryhxGtLfMqpADBvMjmaC12y1PFpMTbOm5FVLgYVL7LKxW7tmjxYvbux3ZNyXPneGKsIMb4aBMw7iVVgWG6g61tMZpBQXdlisE/F1nYtm1guanOM7Q2TX98XY/vG3DvN/wsAmB/jS54CAKPv5hLva8/XLyvx+J4cd45J5GqqP406NvHxUMYdYL7k9hh3tdienWLbUtqDvcNzzNc2WSw6iVVgVAxWkQIAo2Nz2IsMALomqz+9OerkqUyuHh91sLsPnhx1D+Ec2P98KDEJsFjPlYOFM7DklmsCAABggSyL/uy/BgB98+4S/1Digp4d99El/qnEi6KuXgUAemSFJgAAgCWXEx5/qcTDO3Zcd5c4p8Q3wt7lANA1Wer/hhKrS+zbwX7MZHLSWJYGfnSJ3UucFyp0AEBvSKwCAMDSk1gFAEZRJhSvKHFTiZ1LHF5iVU+OPZPJj2jHm3vP3uZ0AIDus8cqAAAAALAjTi1xS9RE6wuiJh374NASf15irxL/VuLSEhudDgDQXVasAgDA0rNiFQAYdXdETSzmQo4nR3/2Wc/jfFyJfUpcGTXBDAB0lMQqAAAsPYlVAGDUbYlaDve6EmtLPCbqHqRdl4nVLIP8sBKHRU0wX+N0AIBuklgFAIClJ7EKAHRFJlcviJpozT1X9+/Jce9a4rgSB5ZYX+LGUBYYADrHHqsAAAAAwHzKVZt/X2JdiVeX2C/6MQ6Zq1d/ssQhJXYpcXKJe50OANAdyzUBAAAsuQdaAAB0Ra5YPbHEH5dY07NjzzLIf17iJU4DAOgWpYABAGA4/GKJR3bsmJQCBoB+u6/E1SWujVoW+KE9Oe4ccz24HXOWCL68tQUAMOKUAgYAgOGwVRMAAB2U+41+LGp1jj8o8UMlVvbk2I8vcVjUssAfKnG90wEARpsVqwAAMBxyxeqjOnZMVqwCAAOXlrgmaoWOA0rs3JPj3r3E00tsKvGt1icyoQ4ARpQ9VgEAYDh0cYBtWQsAgPTNEn9S4gvRr/3lV5V4WYnXlniI0wAARpcVqwAAMBxeHN3bY/XOEt8ucWZYsQoA1P7AmqglcXPBx1FR9yDtgz1KPDpqYjXb4GanAwCMHnusAgDA0soVnTnQtqqDx5aDpxtDuTsAYFs56eqO1k/42RIH9eS49yrxiqh7zL65xEWtDQCAEWHFKgAALK2c7HhE1EHFIzp2bN+LupdYrlq1YhUAmNhPuDjqJLPcZ373Hh37Y0ocVuKSEmvDJDQAGBkSqwAAsLSy/N0JJZ5X4uCOHdutJb5e4ryQWAUAtpXJxNw24KqoSdZjSuzXk2PPMdlMrD6iHftVTgcAGJ2bOAAAsHT2KfFzJZ4etTxcl1xb4pQSl5Z4wFsNAGzHXSUuK7Eh6iSzQ3py3FkO+Nh2vJui7jt7n9MBAIabxCoAACytw0v8TolHRi0L3CVXlPh8ietKbPFWAwCTyIRiVri4o/WJ9u5gv2gyR0VNsOax56S0+50OADC8JFYBAGBpZRngTKzuGXWPsS7JfcM+W+KWsHcYADC1nIR1fes/DPYg7Yv9o+4zm/2lC0tsdDoAwHCSWAUAgKWTKxR+vcTTOto3P6fER0vcGxKrAMD0cuVqJle/GzXZ+PCeHHf2Ax/S+oa5TcTVUUskAwBDeNMGAAAWX5a3e1GJ34hurlZNXyvxyVAGGACYudyXPROLN8TYnqsre3LsmUx+bNQx2zUlbnM6AMBwkVgFAIDFt7zE40u8osSToptJ1UymZhng073dAMAc5H6jZ5c4Juqe9Dv35Lh3i7pVxB4lzo1a+cMkNQAYEhKrAACw+PYr8eoSz4/ursDIFRaZWP2OtxsAmKMsh/ufre90Qo+OO/uHD4u67+oFYeUqAAwNiVUAAFhcuVfYn5X4hRJ7d/g4cxDw5BJXessBgDnKlZp3lrimxMaoicZVPTn23UscW+KwErdEXcELACwxiVUAAFgcOQh4XInfLPG7JXbt+PFmUvXzJW731gMAO+jWEhe2/tOBJfaNbm6lMNGK1n98SInVUVeubnY6AAAAANBlWc7tGVFL427tSfx2iV289QDAPMp9R/8yapJxa8/iWyWeGf3ZaxYAhpIVqwAAsLCyZN0flvitEk+K7u6pOt59Jf61xBXefgBgHmU54KtK3FHimBIH9OjYD2x9ye+VuMipAABLQ2IVAADmXyZPH1vi+SVeFnU/1WOiP0nVs0t8qMRapwIAMM/uKXF1ibuiJlYP78lx5zjuwSUeFnXv2WyD+50OALD4N2QAAGDH7V5i/xJHlnh2iZeUeFWJJ0b391Md75YS7ylxVon1TgsAYAFsKHFe1L1XD4m6mnNlT479sBInlFgXdS/77G9tcUoAAAAAMCr2K/ETJV4fdZAvB7hyBUEOcvVt/6/zSzw+TOIEABbWsqj7jf5oic/1sM+VSdXXRH9W7ALAUNhJEwAAwKwdEXVl6iOjJhGPjVqK7pAWffVAiUtLXNa+BgBYKJlc3BS1SsabSlxY4qCo451dX8G5osWqqCtYb9T3AoDFIbEKAAAPtkeJPUvsFrXE794l9imxb9TBqyOjrg7IfVMfobn+SyZVPxP2+wIAFk/2O04pcVHUiW59SKym5a1/ertTAAAWj8QqALBYDo46g9z+PwyznPk/SJ5mHNjO3VyhenSJQzXRpPKz/ZUSX9QUAMASuLkFAMCCkVgFABbLb5T4Tc3ACFje+skrxsVO+s5TyqTqHVH3l71TcwAAAABdZHAIAFgsue+k1X7QTZmM/kiJ08OqdAAAAKCjJFYBgMVyryaATtpc4qoSHyyxWnMAAAAAXbVcEwAAADvgxhIfLnGFpgAAAAC6TGIVAADYEReVeE/YWxUAAADoOKWAAQCAuTqnxDtKrNEUAAAAQNdZsQoAAMzFrSXeWeIkTQEAAAD0gcQqAAAwW+tKfKTEV0ps1RwAAABAH0isAgAAs7GpxGkl3l1iteYAAAAA+sIeqwAAwGx8ucQ/lbhAUwAAAAB9IrEKAADMRK5UPbvE20ucrjkAAACAvlEKGAAAmE7uo3pVib8v8UXNAQAAAPSRFasAAMB0zijxxhJfKXG/5gAAAAD6SGIVAACYzIYSp5Z4R4mTNAcAAADQZxKrAADARFtK3BN1perrSnxdkwAAAAB9J7EKAABMlEnVd5U4scRlmgMAAABAYhUAANjWuSXeV+KzJa7SHAAAAACVxCoAAJBuK3FJiXeW+HCJBzQJAAAAwBiJVQAA6LdMoGZS9aQSbyhxhSYBAAAAeDCJVQAA6LfTou6nemaJGzQHAAAAwPZJrAIAQD+dVeKMEp9vr5s1CQAAAMDkJFYBAKA/7ilxc4lzSnysxCdLbNUsAAAAANOTWAUAgH5YX+LUEu9urxs0CQAAAMDMSawCAEC3ZQL10yVOKnFxiWuirlwFAAAAYBYkVgEAoHtyv9RMol5e4rwSXypxtmYBAAAAmDuJVQAA6IaNJe6OWvI3k6i5f2omVG/VNAAAAAA7TmIVAAC6IVenfrzEKSWuiFoC+H7NAgAAADA/JFYBAGA0PVDi21FL/p5T4tISV5ZYo2kAAAAA5p/EKgAAjI5Mmt7U4pKoidULoyZUAQAAAFhAEqsAADB8tpbYXGJTe83IFamnljijxDdK3KuZAAAAABaPxCoAAAyf3Bs1V6J+s8T5UVen5irVe0qsD0lVAAAAgEUnsQoAAEsrk6U3tri6xDUlbmjfX9u+vkczAQAAACwtiVUAAFh4D5TYEHWl6d1RE6X5emuMJVMzLoq6jyoAAAAAQ0ZiFQAAdszWKb7Pr+8qsTrqytPvlrisRe6ZeovmAwAAABgNEqsAwGLZWxPQUXdGTZDeXuK29vVNLa5vf5arVXPf1PtibI/UDZoOAAAAYHRIrAIAi+UuTUDHbIyaTM0Eau6HmmV9b2lfr2lxTfsdAAAAAAAAAAAAAAAAAAAAAAAAAAAAAAAAAAAAAAAAAAAAAAAAAAAAAAAAAAAAAAAAAAAAAAAAAAAAAAAAAAAAAAAAAAAAAAAAAAAAAAAAAAAAAAAAAAAAAAAAAAAAAAAAAAAAAAAAAAAAAAAAAAAAAAAAAAAAAAAAAAAAAAAAAAAAAAAAAAAAAAAAAAAAAAAAAAAAAAAAAAAAAAAAAAAAAAAAAAAAAAAAAAAAAAAAAAAAAAAAAAAAAAAAAAAAAAAAAAAAAAAAAAAAAAAAAAAAAAAAAAAAAAAAAAAAAAAAAAAAAAAAAAAAAAAAAAAAAAAAAAAAAAAAAAAAAAAAAAAAAAAAAAAAAAAAAAAAAAAAAAAAAAAAAAAAAAAAAAAAAAAAAAAAAAAAAAAAAAAAAAAAAAAAAAAAAAAAAAAAAAAAAAAAAAAAAAAAAAAAAAAAAAAAAAAAAAAAAAAAAAAAAAAAAAAAAAAAAAAAAAAAAAAAAAAAAAAAAAAAAAAAAAAAAAAAAAAAAAAAAAAAAAAAAAAAAAAAAAAAAAAAAAAAAAAAAAAAAAAAAAAAAAAAAAAAAAAAAAAAAAAAAAAAAAAAAAAAAAAAAAAAAABg1v6/AAMAJk+rF0nfY3UAAAAASUVORK5CYII=;imageBorder=#666666;imageBackground=default;" vertex="1" parent="1">
          <mxGeometry x="322" y="70" width="115.81" height="60" as="geometry" />
        </mxCell>
        <mxCell id="reP9Xs6ON48cAvPmdDRv-7" value="" style="edgeStyle=orthogonalEdgeStyle;rounded=0;orthogonalLoop=1;jettySize=auto;html=1;fontSize=20;endArrow=block;endFill=1;strokeWidth=2;strokeColor=#666666;" edge="1" parent="1">
          <mxGeometry relative="1" as="geometry">
            <mxPoint x="620" y="126" as="sourcePoint" />
            <mxPoint x="620" y="176" as="targetPoint" />
            <Array as="points">
              <mxPoint x="619" y="171" />
              <mxPoint x="619" y="171" />
            </Array>
          </mxGeometry>
        </mxCell>
        <mxCell id="reP9Xs6ON48cAvPmdDRv-3" value="&lt;font style=&quot;font-size: 16px;&quot;&gt;River/Canal&lt;/font&gt;" style="rounded=0;whiteSpace=wrap;html=1;strokeColor=#666666;align=center;" vertex="1" parent="1">
          <mxGeometry x="560" y="80" width="119" height="40" as="geometry" />
        </mxCell>
        <mxCell id="reP9Xs6ON48cAvPmdDRv-31" value="" style="edgeStyle=orthogonalEdgeStyle;rounded=0;orthogonalLoop=1;jettySize=auto;html=1;fontSize=17;endArrow=blockThin;endFill=1;strokeWidth=2;strokeColor=#666666;" edge="1" parent="1">
          <mxGeometry relative="1" as="geometry">
            <mxPoint x="619" y="230" as="sourcePoint" />
            <mxPoint x="619" y="280" as="targetPoint" />
          </mxGeometry>
        </mxCell>
        <mxCell id="reP9Xs6ON48cAvPmdDRv-6" value="&lt;font style=&quot;font-size: 16px;&quot;&gt;Binlog Broker&lt;/font&gt;" style="rounded=0;whiteSpace=wrap;html=1;strokeColor=#666666;align=center;" vertex="1" parent="1">
          <mxGeometry x="559" y="182" width="120" height="40" as="geometry" />
        </mxCell>
        <mxCell id="reP9Xs6ON48cAvPmdDRv-16" value="" style="edgeStyle=orthogonalEdgeStyle;rounded=0;orthogonalLoop=1;jettySize=auto;html=1;fontSize=17;endArrow=blockThin;endFill=1;strokeWidth=2;strokeColor=#666666;" edge="1" parent="1">
          <mxGeometry y="10" relative="1" as="geometry">
            <mxPoint x="210" y="100" as="sourcePoint" />
            <mxPoint x="310" y="100" as="targetPoint" />
            <mxPoint as="offset" />
          </mxGeometry>
        </mxCell>
        <mxCell id="reP9Xs6ON48cAvPmdDRv-15" value="&lt;font style=&quot;font-size: 16px;&quot;&gt;Service code&lt;/font&gt;" style="rounded=0;whiteSpace=wrap;html=1;strokeColor=#666666;align=center;" vertex="1" parent="1">
          <mxGeometry x="80" y="80" width="120" height="40" as="geometry" />
        </mxCell>
        <mxCell id="reP9Xs6ON48cAvPmdDRv-20" style="edgeStyle=orthogonalEdgeStyle;rounded=0;orthogonalLoop=1;jettySize=auto;html=1;exitX=0.5;exitY=1;exitDx=0;exitDy=0;fontSize=17;" edge="1" parent="1" source="reP9Xs6ON48cAvPmdDRv-3" target="reP9Xs6ON48cAvPmdDRv-3">
          <mxGeometry relative="1" as="geometry" />
        </mxCell>
        <mxCell id="reP9Xs6ON48cAvPmdDRv-38" value="" style="edgeStyle=orthogonalEdgeStyle;rounded=0;orthogonalLoop=1;jettySize=auto;html=1;fontSize=18;endArrow=block;endFill=1;strokeWidth=2;strokeColor=#666666;" edge="1" parent="1">
          <mxGeometry relative="1" as="geometry">
            <mxPoint x="380" y="230" as="sourcePoint" />
            <mxPoint x="610" y="250" as="targetPoint" />
            <Array as="points">
              <mxPoint x="380" y="230" />
              <mxPoint x="380" y="250" />
            </Array>
          </mxGeometry>
        </mxCell>
        <mxCell id="reP9Xs6ON48cAvPmdDRv-47" value="" style="edgeStyle=orthogonalEdgeStyle;rounded=0;orthogonalLoop=1;jettySize=auto;html=1;fontSize=18;endArrow=blockThin;endFill=1;strokeWidth=2;strokeColor=#666666;" edge="1" parent="1">
          <mxGeometry relative="1" as="geometry">
            <mxPoint x="380" y="370" as="sourcePoint" />
            <mxPoint x="380" y="420" as="targetPoint" />
          </mxGeometry>
        </mxCell>
        <mxCell id="reP9Xs6ON48cAvPmdDRv-40" value="&lt;font style=&quot;font-size: 16px;&quot;&gt;Binlog Syncer&lt;/font&gt;" style="rounded=0;whiteSpace=wrap;html=1;strokeColor=#666666;align=center;" vertex="1" parent="1">
          <mxGeometry x="559" y="440" width="120" height="40" as="geometry" />
        </mxCell>
        <mxCell id="reP9Xs6ON48cAvPmdDRv-51" value="" style="edgeStyle=orthogonalEdgeStyle;rounded=0;orthogonalLoop=1;jettySize=auto;html=1;fontSize=18;endArrow=blockThin;endFill=1;strokeWidth=2;strokeColor=#666666;" edge="1" parent="1">
          <mxGeometry relative="1" as="geometry">
            <mxPoint x="330" y="460" as="sourcePoint" />
            <mxPoint x="140" y="130" as="targetPoint" />
          </mxGeometry>
        </mxCell>
        <mxCell id="reP9Xs6ON48cAvPmdDRv-46" value="" style="shape=image;verticalLabelPosition=bottom;labelBackgroundColor=default;verticalAlign=top;aspect=fixed;imageAspect=0;image=data:image/svg+xml,PHN2ZyB4bWxucz0iaHR0cDovL3d3dy53My5vcmcvMjAwMC9zdmciIHZpZXdCb3g9IjAgMCAyNCAyNCIgcm9sZT0iaW1nIj48dGl0bGU+Q2xpY2tIb3VzZTwvdGl0bGU+PHBhdGggZD0iTTIxLjMzMyAxMEgyNHY0aC0yLjY2N1pNMTYgMS4zMzVoMi42Njd2MjEuMzNIMTZabS01LjMzMyAwaDIuNjY2djIxLjMzaC0yLjY2NlpNMCAyMi42NjVWMS4zMzVoMi42Njd2MjEuMzN6bTUuMzMzLTIxLjMzSDh2MjEuMzNINS4zMzNaIi8+PC9zdmc+;" vertex="1" parent="1">
          <mxGeometry x="343" y="424" width="74" height="74" as="geometry" />
        </mxCell>
        <mxCell id="reP9Xs6ON48cAvPmdDRv-52" value="&lt;span style=&quot;font-size: 14px;&quot;&gt;Commit transaction&lt;/span&gt;" style="edgeLabel;html=1;align=center;verticalAlign=middle;resizable=0;points=[];fontSize=20;" vertex="1" connectable="0" parent="1">
          <mxGeometry x="470.9985714285715" y="165" as="geometry">
            <mxPoint x="-20" y="-18" as="offset" />
          </mxGeometry>
        </mxCell>
        <mxCell id="reP9Xs6ON48cAvPmdDRv-53" value="&lt;span style=&quot;font-size: 17px; background-color: rgb(255, 255, 255);&quot;&gt;TxInfo Broker&lt;/span&gt;" style="rounded=0;whiteSpace=wrap;html=1;strokeColor=#666666;align=center;" vertex="1" parent="1">
          <mxGeometry x="317.81" y="182" width="120" height="40" as="geometry" />
        </mxCell>
        <mxCell id="reP9Xs6ON48cAvPmdDRv-54" value="&lt;span style=&quot;font-size: 16px; background-color: rgb(255, 255, 255);&quot;&gt;TxInfo Syncer&lt;/span&gt;" style="rounded=0;whiteSpace=wrap;html=1;strokeColor=#666666;align=center;" vertex="1" parent="1">
          <mxGeometry x="318.90999999999997" y="320" width="120" height="40" as="geometry" />
        </mxCell>
        <mxCell id="reP9Xs6ON48cAvPmdDRv-59" value="" style="edgeStyle=elbowEdgeStyle;elbow=vertical;endArrow=block;html=1;rounded=0;fontSize=16;endFill=1;strokeWidth=2;strokeColor=#666666;" edge="1" parent="1">
          <mxGeometry width="50" height="50" relative="1" as="geometry">
            <mxPoint x="582" y="340" as="sourcePoint" />
            <mxPoint x="449" y="340" as="targetPoint" />
          </mxGeometry>
        </mxCell>
        <mxCell id="reP9Xs6ON48cAvPmdDRv-60" value="" style="edgeStyle=elbowEdgeStyle;elbow=vertical;endArrow=block;html=1;rounded=0;fontSize=16;endFill=1;strokeWidth=2;strokeColor=#666666;" edge="1" parent="1">
          <mxGeometry width="50" height="50" relative="1" as="geometry">
            <mxPoint x="550" y="460" as="sourcePoint" />
            <mxPoint x="429" y="460.85" as="targetPoint" />
          </mxGeometry>
        </mxCell>
        <mxCell id="reP9Xs6ON48cAvPmdDRv-61" value="" style="edgeStyle=segmentEdgeStyle;endArrow=block;html=1;rounded=0;fontSize=16;endFill=1;strokeWidth=2;strokeColor=#666666;" edge="1" parent="1">
          <mxGeometry width="50" height="50" relative="1" as="geometry">
            <mxPoint x="380" y="136" as="sourcePoint" />
            <mxPoint x="380" y="176" as="targetPoint" />
          </mxGeometry>
        </mxCell>
        <mxCell id="reP9Xs6ON48cAvPmdDRv-64" value="&lt;font style=&quot;font-size: 15px;&quot;&gt;2&lt;/font&gt;" style="edgeLabel;html=1;align=left;verticalAlign=middle;resizable=0;points=[];fontSize=20;" vertex="1" connectable="0" parent="1">
          <mxGeometry x="363.0003225806453" y="151.99999999999994" as="geometry">
            <mxPoint x="-8" y="-4" as="offset" />
          </mxGeometry>
        </mxCell>
        <mxCell id="reP9Xs6ON48cAvPmdDRv-65" value="&lt;font style=&quot;line-height: 1; font-size: 15px;&quot;&gt;2&lt;/font&gt;" style="edgeLabel;html=1;align=left;verticalAlign=middle;resizable=0;points=[];fontSize=20;" vertex="1" connectable="0" parent="1">
          <mxGeometry x="626.0003225806453" y="144.99999999999994" as="geometry" />
        </mxCell>
        <mxCell id="reP9Xs6ON48cAvPmdDRv-66" value="&lt;font style=&quot;font-size: 15px;&quot;&gt;1&lt;/font&gt;" style="edgeLabel;html=1;align=left;verticalAlign=middle;resizable=0;points=[];fontSize=20;" vertex="1" connectable="0" parent="1">
          <mxGeometry x="258.0003225806453" y="110.99999999999994" as="geometry">
            <mxPoint x="-9" y="2" as="offset" />
          </mxGeometry>
        </mxCell>
        <mxCell id="reP9Xs6ON48cAvPmdDRv-67" value="&lt;font style=&quot;line-height: 1; font-size: 15px;&quot;&gt;3&lt;/font&gt;" style="edgeLabel;html=1;align=left;verticalAlign=middle;resizable=0;points=[];fontSize=20;" vertex="1" connectable="0" parent="1">
          <mxGeometry x="600.0003225806453" y="173.99999999999994" as="geometry">
            <mxPoint x="-108" y="60" as="offset" />
          </mxGeometry>
        </mxCell>
        <mxCell id="reP9Xs6ON48cAvPmdDRv-68" value="&lt;font style=&quot;line-height: 1; font-size: 15px;&quot;&gt;3&lt;/font&gt;" style="edgeLabel;html=1;align=left;verticalAlign=middle;resizable=0;points=[];fontSize=20;" vertex="1" connectable="0" parent="1">
          <mxGeometry x="734.0003225806453" y="188.99999999999994" as="geometry">
            <mxPoint x="-108" y="60" as="offset" />
          </mxGeometry>
        </mxCell>
        <mxCell id="reP9Xs6ON48cAvPmdDRv-69" value="4" style="text;html=1;strokeColor=none;fillColor=none;align=center;verticalAlign=middle;whiteSpace=wrap;rounded=0;labelBackgroundColor=none;fontSize=15;" vertex="1" parent="1">
          <mxGeometry x="603" y="394" width="60" height="30" as="geometry" />
        </mxCell>
        <mxCell id="reP9Xs6ON48cAvPmdDRv-70" value="4" style="text;html=1;strokeColor=none;fillColor=none;align=center;verticalAlign=middle;whiteSpace=wrap;rounded=0;labelBackgroundColor=none;fontSize=15;" vertex="1" parent="1">
          <mxGeometry x="464" y="432" width="60" height="30" as="geometry" />
        </mxCell>
        <mxCell id="reP9Xs6ON48cAvPmdDRv-71" value="5" style="text;html=1;strokeColor=none;fillColor=none;align=center;verticalAlign=middle;whiteSpace=wrap;rounded=0;labelBackgroundColor=none;fontSize=15;" vertex="1" parent="1">
          <mxGeometry x="490" y="312" width="60" height="30" as="geometry" />
        </mxCell>
        <mxCell id="reP9Xs6ON48cAvPmdDRv-72" value="5" style="text;html=1;strokeColor=none;fillColor=none;align=center;verticalAlign=middle;whiteSpace=wrap;rounded=0;labelBackgroundColor=none;fontSize=15;" vertex="1" parent="1">
          <mxGeometry x="362" y="376" width="60" height="30" as="geometry" />
        </mxCell>
        <mxCell id="reP9Xs6ON48cAvPmdDRv-73" value="6" style="text;html=1;strokeColor=none;fillColor=none;align=center;verticalAlign=middle;whiteSpace=wrap;rounded=0;labelBackgroundColor=none;fontSize=15;" vertex="1" parent="1">
          <mxGeometry x="255" y="431" width="60" height="30" as="geometry" />
        </mxCell>
        <mxCell id="reP9Xs6ON48cAvPmdDRv-74" value="Transaction" style="text;html=1;strokeColor=none;fillColor=none;align=center;verticalAlign=middle;whiteSpace=wrap;rounded=0;labelBackgroundColor=none;fontSize=15;" vertex="1" parent="1">
          <mxGeometry x="225" y="71" width="60" height="30" as="geometry" />
        </mxCell>
      </root>
    </mxGraphModel>
  </diagram>
  <diagram id="0Rnzpo05bahaE3R9YeGg" name="第 2 页">
    <mxGraphModel dx="1708" dy="3313" grid="1" gridSize="10" guides="1" tooltips="1" connect="1" arrows="1" fold="1" page="1" pageScale="1" pageWidth="827" pageHeight="1169" math="0" shadow="0">
      <root>
        <mxCell id="0" />
        <mxCell id="1" parent="0" />
        <mxCell id="djy20hKcKyLXspCbXwoC-1" value="" style="rounded=0;whiteSpace=wrap;html=1;fillColor=#e1d5e7;strokeColor=#9673a6;" vertex="1" parent="1">
          <mxGeometry x="515" y="-980" width="675" height="120" as="geometry" />
        </mxCell>
        <mxCell id="djy20hKcKyLXspCbXwoC-2" value="" style="rounded=0;whiteSpace=wrap;html=1;fillColor=#ffe6cc;strokeColor=#d79b00;" vertex="1" parent="1">
          <mxGeometry x="350" y="-610" width="840" height="110" as="geometry" />
        </mxCell>
        <mxCell id="djy20hKcKyLXspCbXwoC-3" value="" style="rounded=0;whiteSpace=wrap;html=1;fillColor=#fff2cc;strokeColor=#d6b656;" vertex="1" parent="1">
          <mxGeometry x="350" y="-844" width="840" height="214" as="geometry" />
        </mxCell>
        <mxCell id="djy20hKcKyLXspCbXwoC-4" value="" style="rounded=0;whiteSpace=wrap;html=1;fillColor=#d5e8d4;strokeColor=#82b366;" vertex="1" parent="1">
          <mxGeometry x="730" y="-1180" width="460" height="170" as="geometry" />
        </mxCell>
        <mxCell id="djy20hKcKyLXspCbXwoC-5" value="" style="rounded=0;whiteSpace=wrap;html=1;fillColor=#f8cecc;strokeColor=#b85450;" vertex="1" parent="1">
          <mxGeometry x="690" y="-834.5" width="480" height="164.5" as="geometry" />
        </mxCell>
        <mxCell id="djy20hKcKyLXspCbXwoC-6" value="" style="rounded=0;whiteSpace=wrap;html=1;fillColor=#e1d5e7;strokeColor=#9673a6;" vertex="1" parent="1">
          <mxGeometry x="947" y="-800" width="203" height="120" as="geometry" />
        </mxCell>
        <mxCell id="djy20hKcKyLXspCbXwoC-7" value="" style="rounded=0;whiteSpace=wrap;html=1;fillColor=#d5e8d4;strokeColor=#82b366;" vertex="1" parent="1">
          <mxGeometry x="356" y="-227" width="834" height="98" as="geometry" />
        </mxCell>
        <mxCell id="djy20hKcKyLXspCbXwoC-8" value="" style="rounded=0;whiteSpace=wrap;html=1;fillColor=#f8cecc;strokeColor=#b85450;" vertex="1" parent="1">
          <mxGeometry x="356" y="-478" width="834" height="231" as="geometry" />
        </mxCell>
        <mxCell id="djy20hKcKyLXspCbXwoC-9" value="" style="rounded=0;whiteSpace=wrap;html=1;fillColor=#e1d5e7;strokeColor=#9673a6;" vertex="1" parent="1">
          <mxGeometry x="555" y="-467" width="470" height="160" as="geometry" />
        </mxCell>
        <mxCell id="djy20hKcKyLXspCbXwoC-10" value="lru.Cache" style="swimlane;fontStyle=0;childLayout=stackLayout;horizontal=1;startSize=26;fillColor=#f5f5f5;horizontalStack=0;resizeParent=1;resizeParentMax=0;resizeLast=0;collapsible=1;marginBottom=0;strokeColor=#666666;fontColor=#333333;" vertex="1" parent="1">
          <mxGeometry x="565" y="-447" width="240" height="130" as="geometry" />
        </mxCell>
        <mxCell id="djy20hKcKyLXspCbXwoC-11" value="+ MaxEntries int" style="text;strokeColor=#666666;fillColor=#f5f5f5;align=left;verticalAlign=top;spacingLeft=4;spacingRight=4;overflow=hidden;rotatable=0;points=[[0,0.5],[1,0.5]];portConstraint=eastwest;fontColor=#333333;" vertex="1" parent="djy20hKcKyLXspCbXwoC-10">
          <mxGeometry y="26" width="240" height="26" as="geometry" />
        </mxCell>
        <mxCell id="djy20hKcKyLXspCbXwoC-12" value="+ OnEvicted func(key Key, value interface{})" style="text;strokeColor=#666666;fillColor=#f5f5f5;align=left;verticalAlign=top;spacingLeft=4;spacingRight=4;overflow=hidden;rotatable=0;points=[[0,0.5],[1,0.5]];portConstraint=eastwest;fontColor=#333333;" vertex="1" parent="djy20hKcKyLXspCbXwoC-10">
          <mxGeometry y="52" width="240" height="26" as="geometry" />
        </mxCell>
        <mxCell id="djy20hKcKyLXspCbXwoC-13" value="+ ll    *list.List" style="text;strokeColor=#666666;fillColor=#f5f5f5;align=left;verticalAlign=top;spacingLeft=4;spacingRight=4;overflow=hidden;rotatable=0;points=[[0,0.5],[1,0.5]];portConstraint=eastwest;fontColor=#333333;" vertex="1" parent="djy20hKcKyLXspCbXwoC-10">
          <mxGeometry y="78" width="240" height="26" as="geometry" />
        </mxCell>
        <mxCell id="djy20hKcKyLXspCbXwoC-14" value="+ cache map[interface{}]*list.Element" style="text;strokeColor=#666666;fillColor=#f5f5f5;align=left;verticalAlign=top;spacingLeft=4;spacingRight=4;overflow=hidden;rotatable=0;points=[[0,0.5],[1,0.5]];portConstraint=eastwest;fontColor=#333333;" vertex="1" parent="djy20hKcKyLXspCbXwoC-10">
          <mxGeometry y="104" width="240" height="26" as="geometry" />
        </mxCell>
        <mxCell id="djy20hKcKyLXspCbXwoC-15" value="Key&lt;interface&gt;" style="swimlane;fontStyle=1;align=center;verticalAlign=top;childLayout=stackLayout;horizontal=1;startSize=26;horizontalStack=0;resizeParent=1;resizeParentMax=0;resizeLast=0;collapsible=1;marginBottom=0;fillColor=#f5f5f5;strokeColor=#666666;fontColor=#333333;" vertex="1" parent="1">
          <mxGeometry x="845" y="-447" width="160" height="34" as="geometry" />
        </mxCell>
        <mxCell id="djy20hKcKyLXspCbXwoC-16" value="" style="edgeStyle=orthogonalEdgeStyle;rounded=0;orthogonalLoop=1;jettySize=auto;html=1;exitX=1;exitY=0.5;exitDx=0;exitDy=0;entryX=0;entryY=0.5;entryDx=0;entryDy=0;fillColor=#f5f5f5;strokeColor=#666666;" edge="1" parent="1" source="djy20hKcKyLXspCbXwoC-12" target="djy20hKcKyLXspCbXwoC-15">
          <mxGeometry relative="1" as="geometry" />
        </mxCell>
        <mxCell id="djy20hKcKyLXspCbXwoC-17" value="groupcache.Cache" style="swimlane;fontStyle=0;childLayout=stackLayout;horizontal=1;startSize=26;fillColor=#f5f5f5;horizontalStack=0;resizeParent=1;resizeParentMax=0;resizeLast=0;collapsible=1;marginBottom=0;strokeColor=#666666;fontColor=#333333;" vertex="1" parent="1">
          <mxGeometry x="365" y="-447" width="160" height="182" as="geometry" />
        </mxCell>
        <mxCell id="djy20hKcKyLXspCbXwoC-18" value="+ mu         sync.RWMutex" style="text;strokeColor=#666666;fillColor=#f5f5f5;align=left;verticalAlign=top;spacingLeft=4;spacingRight=4;overflow=hidden;rotatable=0;points=[[0,0.5],[1,0.5]];portConstraint=eastwest;fontColor=#333333;" vertex="1" parent="djy20hKcKyLXspCbXwoC-17">
          <mxGeometry y="26" width="160" height="26" as="geometry" />
        </mxCell>
        <mxCell id="djy20hKcKyLXspCbXwoC-19" value="+ nbytes     int64" style="text;strokeColor=#666666;fillColor=#f5f5f5;align=left;verticalAlign=top;spacingLeft=4;spacingRight=4;overflow=hidden;rotatable=0;points=[[0,0.5],[1,0.5]];portConstraint=eastwest;fontColor=#333333;" vertex="1" parent="djy20hKcKyLXspCbXwoC-17">
          <mxGeometry y="52" width="160" height="26" as="geometry" />
        </mxCell>
        <mxCell id="djy20hKcKyLXspCbXwoC-20" value="+ lru        *lru.Cache" style="text;strokeColor=#666666;fillColor=#f5f5f5;align=left;verticalAlign=top;spacingLeft=4;spacingRight=4;overflow=hidden;rotatable=0;points=[[0,0.5],[1,0.5]];portConstraint=eastwest;fontColor=#333333;" vertex="1" parent="djy20hKcKyLXspCbXwoC-17">
          <mxGeometry y="78" width="160" height="26" as="geometry" />
        </mxCell>
        <mxCell id="djy20hKcKyLXspCbXwoC-21" value="+ nhit int64" style="text;strokeColor=#666666;fillColor=#f5f5f5;align=left;verticalAlign=top;spacingLeft=4;spacingRight=4;overflow=hidden;rotatable=0;points=[[0,0.5],[1,0.5]];portConstraint=eastwest;fontColor=#333333;" vertex="1" parent="djy20hKcKyLXspCbXwoC-17">
          <mxGeometry y="104" width="160" height="26" as="geometry" />
        </mxCell>
        <mxCell id="djy20hKcKyLXspCbXwoC-22" value="+ nget int64" style="text;strokeColor=#666666;fillColor=#f5f5f5;align=left;verticalAlign=top;spacingLeft=4;spacingRight=4;overflow=hidden;rotatable=0;points=[[0,0.5],[1,0.5]];portConstraint=eastwest;fontColor=#333333;" vertex="1" parent="djy20hKcKyLXspCbXwoC-17">
          <mxGeometry y="130" width="160" height="26" as="geometry" />
        </mxCell>
        <mxCell id="djy20hKcKyLXspCbXwoC-23" value="+ nevict     int64" style="text;strokeColor=#666666;fillColor=#f5f5f5;align=left;verticalAlign=top;spacingLeft=4;spacingRight=4;overflow=hidden;rotatable=0;points=[[0,0.5],[1,0.5]];portConstraint=eastwest;fontColor=#333333;" vertex="1" parent="djy20hKcKyLXspCbXwoC-17">
          <mxGeometry y="156" width="160" height="26" as="geometry" />
        </mxCell>
        <mxCell id="djy20hKcKyLXspCbXwoC-24" value="" style="edgeStyle=orthogonalEdgeStyle;rounded=0;orthogonalLoop=1;jettySize=auto;html=1;entryX=0.004;entryY=0.115;entryDx=0;entryDy=0;entryPerimeter=0;fillColor=#f5f5f5;strokeColor=#666666;" edge="1" parent="1" source="djy20hKcKyLXspCbXwoC-20" target="djy20hKcKyLXspCbXwoC-10">
          <mxGeometry relative="1" as="geometry" />
        </mxCell>
        <mxCell id="djy20hKcKyLXspCbXwoC-25" value="groupcache.Group" style="swimlane;fontStyle=0;childLayout=stackLayout;horizontal=1;startSize=26;fillColor=#f5f5f5;horizontalStack=0;resizeParent=1;resizeParentMax=0;resizeLast=0;collapsible=1;marginBottom=0;strokeColor=#666666;fontColor=#333333;" vertex="1" parent="1">
          <mxGeometry x="160" y="-511" width="160" height="260" as="geometry" />
        </mxCell>
        <mxCell id="djy20hKcKyLXspCbXwoC-26" value="+ name       string" style="text;strokeColor=#666666;fillColor=#f5f5f5;align=left;verticalAlign=top;spacingLeft=4;spacingRight=4;overflow=hidden;rotatable=0;points=[[0,0.5],[1,0.5]];portConstraint=eastwest;fontColor=#333333;" vertex="1" parent="djy20hKcKyLXspCbXwoC-25">
          <mxGeometry y="26" width="160" height="26" as="geometry" />
        </mxCell>
        <mxCell id="djy20hKcKyLXspCbXwoC-27" value="+ getter     Getter" style="text;strokeColor=#666666;fillColor=#f5f5f5;align=left;verticalAlign=top;spacingLeft=4;spacingRight=4;overflow=hidden;rotatable=0;points=[[0,0.5],[1,0.5]];portConstraint=eastwest;fontColor=#333333;" vertex="1" parent="djy20hKcKyLXspCbXwoC-25">
          <mxGeometry y="52" width="160" height="26" as="geometry" />
        </mxCell>
        <mxCell id="djy20hKcKyLXspCbXwoC-28" value="+ peersOnce  sync.Once" style="text;strokeColor=#666666;fillColor=#f5f5f5;align=left;verticalAlign=top;spacingLeft=4;spacingRight=4;overflow=hidden;rotatable=0;points=[[0,0.5],[1,0.5]];portConstraint=eastwest;fontColor=#333333;" vertex="1" parent="djy20hKcKyLXspCbXwoC-25">
          <mxGeometry y="78" width="160" height="26" as="geometry" />
        </mxCell>
        <mxCell id="djy20hKcKyLXspCbXwoC-29" value="+ peers      PeerPicker" style="text;strokeColor=#666666;fillColor=#f5f5f5;align=left;verticalAlign=top;spacingLeft=4;spacingRight=4;overflow=hidden;rotatable=0;points=[[0,0.5],[1,0.5]];portConstraint=eastwest;fontColor=#333333;" vertex="1" parent="djy20hKcKyLXspCbXwoC-25">
          <mxGeometry y="104" width="160" height="26" as="geometry" />
        </mxCell>
        <mxCell id="djy20hKcKyLXspCbXwoC-30" value="+ cacheBytes int64" style="text;strokeColor=#666666;fillColor=#f5f5f5;align=left;verticalAlign=top;spacingLeft=4;spacingRight=4;overflow=hidden;rotatable=0;points=[[0,0.5],[1,0.5]];portConstraint=eastwest;fontColor=#333333;" vertex="1" parent="djy20hKcKyLXspCbXwoC-25">
          <mxGeometry y="130" width="160" height="26" as="geometry" />
        </mxCell>
        <mxCell id="djy20hKcKyLXspCbXwoC-31" value="+ mainCache cache" style="text;strokeColor=#666666;fillColor=#f5f5f5;align=left;verticalAlign=top;spacingLeft=4;spacingRight=4;overflow=hidden;rotatable=0;points=[[0,0.5],[1,0.5]];portConstraint=eastwest;fontColor=#333333;" vertex="1" parent="djy20hKcKyLXspCbXwoC-25">
          <mxGeometry y="156" width="160" height="26" as="geometry" />
        </mxCell>
        <mxCell id="djy20hKcKyLXspCbXwoC-32" value="+ hotCache cache" style="text;strokeColor=#666666;fillColor=#f5f5f5;align=left;verticalAlign=top;spacingLeft=4;spacingRight=4;overflow=hidden;rotatable=0;points=[[0,0.5],[1,0.5]];portConstraint=eastwest;fontColor=#333333;" vertex="1" parent="djy20hKcKyLXspCbXwoC-25">
          <mxGeometry y="182" width="160" height="26" as="geometry" />
        </mxCell>
        <mxCell id="djy20hKcKyLXspCbXwoC-33" value="+ loadGroup flightGroup" style="text;strokeColor=#666666;fillColor=#f5f5f5;align=left;verticalAlign=top;spacingLeft=4;spacingRight=4;overflow=hidden;rotatable=0;points=[[0,0.5],[1,0.5]];portConstraint=eastwest;fontColor=#333333;" vertex="1" parent="djy20hKcKyLXspCbXwoC-25">
          <mxGeometry y="208" width="160" height="26" as="geometry" />
        </mxCell>
        <mxCell id="djy20hKcKyLXspCbXwoC-34" value="+Stats Stats" style="text;strokeColor=#666666;fillColor=#f5f5f5;align=left;verticalAlign=top;spacingLeft=4;spacingRight=4;overflow=hidden;rotatable=0;points=[[0,0.5],[1,0.5]];portConstraint=eastwest;fontColor=#333333;" vertex="1" parent="djy20hKcKyLXspCbXwoC-25">
          <mxGeometry y="234" width="160" height="26" as="geometry" />
        </mxCell>
        <mxCell id="djy20hKcKyLXspCbXwoC-35" value="" style="edgeStyle=orthogonalEdgeStyle;rounded=0;orthogonalLoop=1;jettySize=auto;html=1;entryX=0;entryY=0.071;entryDx=0;entryDy=0;entryPerimeter=0;fillColor=#f5f5f5;strokeColor=#666666;" edge="1" parent="1" source="djy20hKcKyLXspCbXwoC-31" target="djy20hKcKyLXspCbXwoC-17">
          <mxGeometry relative="1" as="geometry">
            <Array as="points">
              <mxPoint x="350" y="-342" />
              <mxPoint x="350" y="-434" />
            </Array>
          </mxGeometry>
        </mxCell>
        <mxCell id="djy20hKcKyLXspCbXwoC-36" value="" style="edgeStyle=orthogonalEdgeStyle;rounded=0;orthogonalLoop=1;jettySize=auto;html=1;entryX=-0.006;entryY=0.071;entryDx=0;entryDy=0;entryPerimeter=0;fillColor=#f5f5f5;strokeColor=#666666;" edge="1" parent="1" source="djy20hKcKyLXspCbXwoC-32" target="djy20hKcKyLXspCbXwoC-17">
          <mxGeometry relative="1" as="geometry">
            <Array as="points">
              <mxPoint x="350" y="-316" />
              <mxPoint x="350" y="-434" />
            </Array>
          </mxGeometry>
        </mxCell>
        <mxCell id="djy20hKcKyLXspCbXwoC-37" value="flightGroup&lt;interface&gt;" style="swimlane;fontStyle=1;align=center;verticalAlign=top;childLayout=stackLayout;horizontal=1;startSize=26;horizontalStack=0;resizeParent=1;resizeParentMax=0;resizeLast=0;collapsible=1;marginBottom=0;fillColor=#f5f5f5;strokeColor=#666666;fontColor=#333333;" vertex="1" parent="1">
          <mxGeometry x="365" y="-219" width="360" height="52" as="geometry" />
        </mxCell>
        <mxCell id="djy20hKcKyLXspCbXwoC-38" value="+ Do(key string, fn func() (interface{}, error)) (interface{}, error)" style="text;strokeColor=#666666;fillColor=#f5f5f5;align=left;verticalAlign=top;spacingLeft=4;spacingRight=4;overflow=hidden;rotatable=0;points=[[0,0.5],[1,0.5]];portConstraint=eastwest;fontColor=#333333;" vertex="1" parent="djy20hKcKyLXspCbXwoC-37">
          <mxGeometry y="26" width="360" height="26" as="geometry" />
        </mxCell>
        <mxCell id="djy20hKcKyLXspCbXwoC-39" value="" style="edgeStyle=orthogonalEdgeStyle;rounded=0;orthogonalLoop=1;jettySize=auto;html=1;entryX=0;entryY=0.25;entryDx=0;entryDy=0;fillColor=#f5f5f5;strokeColor=#666666;" edge="1" parent="1" source="djy20hKcKyLXspCbXwoC-33" target="djy20hKcKyLXspCbXwoC-37">
          <mxGeometry relative="1" as="geometry" />
        </mxCell>
        <mxCell id="djy20hKcKyLXspCbXwoC-40" value="PeerPicker&lt;interface&gt;" style="swimlane;fontStyle=1;align=center;verticalAlign=top;childLayout=stackLayout;horizontal=1;startSize=26;horizontalStack=0;resizeParent=1;resizeParentMax=0;resizeLast=0;collapsible=1;marginBottom=0;fillColor=#f5f5f5;strokeColor=#666666;fontColor=#333333;" vertex="1" parent="1">
          <mxGeometry x="360" y="-570" width="320" height="52" as="geometry" />
        </mxCell>
        <mxCell id="djy20hKcKyLXspCbXwoC-41" value="+ PickPeer(key string) (peer ProtoGetter, ok bool)" style="text;strokeColor=#666666;fillColor=#f5f5f5;align=left;verticalAlign=top;spacingLeft=4;spacingRight=4;overflow=hidden;rotatable=0;points=[[0,0.5],[1,0.5]];portConstraint=eastwest;fontColor=#333333;" vertex="1" parent="djy20hKcKyLXspCbXwoC-40">
          <mxGeometry y="26" width="320" height="26" as="geometry" />
        </mxCell>
        <mxCell id="djy20hKcKyLXspCbXwoC-42" value="Getter&lt;interface&gt;" style="swimlane;fontStyle=1;align=center;verticalAlign=top;childLayout=stackLayout;horizontal=1;startSize=26;horizontalStack=0;resizeParent=1;resizeParentMax=0;resizeLast=0;collapsible=1;marginBottom=0;fillColor=#f5f5f5;strokeColor=#666666;fontColor=#333333;" vertex="1" parent="1">
          <mxGeometry x="360" y="-700" width="320" height="52" as="geometry" />
        </mxCell>
        <mxCell id="djy20hKcKyLXspCbXwoC-43" value="+ Get(ctx context.Context, key string, dest Sink) error" style="text;strokeColor=#666666;fillColor=#f5f5f5;align=left;verticalAlign=top;spacingLeft=4;spacingRight=4;overflow=hidden;rotatable=0;points=[[0,0.5],[1,0.5]];portConstraint=eastwest;fontColor=#333333;" vertex="1" parent="djy20hKcKyLXspCbXwoC-42">
          <mxGeometry y="26" width="320" height="26" as="geometry" />
        </mxCell>
        <mxCell id="djy20hKcKyLXspCbXwoC-44" value="" style="edgeStyle=orthogonalEdgeStyle;rounded=0;orthogonalLoop=1;jettySize=auto;html=1;entryX=0;entryY=0.25;entryDx=0;entryDy=0;exitX=1;exitY=0.5;exitDx=0;exitDy=0;fillColor=#f5f5f5;strokeColor=#666666;" edge="1" parent="1" source="djy20hKcKyLXspCbXwoC-27" target="djy20hKcKyLXspCbXwoC-42">
          <mxGeometry relative="1" as="geometry">
            <Array as="points">
              <mxPoint x="320" y="-455" />
              <mxPoint x="330" y="-455" />
              <mxPoint x="330" y="-687" />
            </Array>
          </mxGeometry>
        </mxCell>
        <mxCell id="djy20hKcKyLXspCbXwoC-45" value="" style="edgeStyle=orthogonalEdgeStyle;rounded=0;orthogonalLoop=1;jettySize=auto;html=1;entryX=0;entryY=0.25;entryDx=0;entryDy=0;fillColor=#f5f5f5;strokeColor=#666666;" edge="1" parent="1" source="djy20hKcKyLXspCbXwoC-29" target="djy20hKcKyLXspCbXwoC-40">
          <mxGeometry relative="1" as="geometry" />
        </mxCell>
        <mxCell id="djy20hKcKyLXspCbXwoC-46" value="Sink&lt;interface&gt;" style="swimlane;fontStyle=1;align=center;verticalAlign=top;childLayout=stackLayout;horizontal=1;startSize=26;horizontalStack=0;resizeParent=1;resizeParentMax=0;resizeLast=0;collapsible=1;marginBottom=0;fillColor=#f5f5f5;strokeColor=#666666;fontColor=#333333;" vertex="1" parent="1">
          <mxGeometry x="720" y="-820" width="200" height="130" as="geometry" />
        </mxCell>
        <mxCell id="djy20hKcKyLXspCbXwoC-47" value="+ SetString(s string) error" style="text;strokeColor=#666666;fillColor=#f5f5f5;align=left;verticalAlign=top;spacingLeft=4;spacingRight=4;overflow=hidden;rotatable=0;points=[[0,0.5],[1,0.5]];portConstraint=eastwest;fontColor=#333333;" vertex="1" parent="djy20hKcKyLXspCbXwoC-46">
          <mxGeometry y="26" width="200" height="26" as="geometry" />
        </mxCell>
        <mxCell id="djy20hKcKyLXspCbXwoC-48" value="+ SetBytes(v []byte) error" style="text;strokeColor=#666666;fillColor=#f5f5f5;align=left;verticalAlign=top;spacingLeft=4;spacingRight=4;overflow=hidden;rotatable=0;points=[[0,0.5],[1,0.5]];portConstraint=eastwest;fontColor=#333333;" vertex="1" parent="djy20hKcKyLXspCbXwoC-46">
          <mxGeometry y="52" width="200" height="26" as="geometry" />
        </mxCell>
        <mxCell id="djy20hKcKyLXspCbXwoC-49" value="+SetProto(m proto.Message) error" style="text;strokeColor=#666666;fillColor=#f5f5f5;align=left;verticalAlign=top;spacingLeft=4;spacingRight=4;overflow=hidden;rotatable=0;points=[[0,0.5],[1,0.5]];portConstraint=eastwest;fontColor=#333333;" vertex="1" parent="djy20hKcKyLXspCbXwoC-46">
          <mxGeometry y="78" width="200" height="26" as="geometry" />
        </mxCell>
        <mxCell id="djy20hKcKyLXspCbXwoC-50" value="+ view() (ByteView, error)" style="text;strokeColor=#666666;fillColor=#f5f5f5;align=left;verticalAlign=top;spacingLeft=4;spacingRight=4;overflow=hidden;rotatable=0;points=[[0,0.5],[1,0.5]];portConstraint=eastwest;fontColor=#333333;" vertex="1" parent="djy20hKcKyLXspCbXwoC-46">
          <mxGeometry y="104" width="200" height="26" as="geometry" />
        </mxCell>
        <mxCell id="djy20hKcKyLXspCbXwoC-51" value="" style="edgeStyle=orthogonalEdgeStyle;rounded=0;orthogonalLoop=1;jettySize=auto;html=1;entryX=0;entryY=0.115;entryDx=0;entryDy=0;entryPerimeter=0;fillColor=#f5f5f5;strokeColor=#666666;" edge="1" parent="1" source="djy20hKcKyLXspCbXwoC-43" target="djy20hKcKyLXspCbXwoC-46">
          <mxGeometry relative="1" as="geometry" />
        </mxCell>
        <mxCell id="djy20hKcKyLXspCbXwoC-52" value="ProtoGetter&lt;interface&gt;【must be implemented by a peer】" style="swimlane;fontStyle=1;align=center;verticalAlign=top;childLayout=stackLayout;horizontal=1;startSize=26;horizontalStack=0;resizeParent=1;resizeParentMax=0;resizeLast=0;collapsible=1;marginBottom=0;fillColor=#f5f5f5;strokeColor=#666666;fontColor=#333333;" vertex="1" parent="1">
          <mxGeometry x="720" y="-600" width="440" height="52" as="geometry" />
        </mxCell>
        <mxCell id="djy20hKcKyLXspCbXwoC-53" value="+ Get(ctx context.Context, in *pb.GetRequest, out *pb.GetResponse) error" style="text;strokeColor=#666666;fillColor=#f5f5f5;align=left;verticalAlign=top;spacingLeft=4;spacingRight=4;overflow=hidden;rotatable=0;points=[[0,0.5],[1,0.5]];portConstraint=eastwest;fontColor=#333333;" vertex="1" parent="djy20hKcKyLXspCbXwoC-52">
          <mxGeometry y="26" width="440" height="26" as="geometry" />
        </mxCell>
        <mxCell id="djy20hKcKyLXspCbXwoC-54" value="" style="edgeStyle=orthogonalEdgeStyle;rounded=0;orthogonalLoop=1;jettySize=auto;html=1;entryX=0;entryY=0.25;entryDx=0;entryDy=0;fillColor=#f5f5f5;strokeColor=#666666;" edge="1" parent="1" source="djy20hKcKyLXspCbXwoC-41" target="djy20hKcKyLXspCbXwoC-52">
          <mxGeometry relative="1" as="geometry" />
        </mxCell>
        <mxCell id="djy20hKcKyLXspCbXwoC-55" value="ByteView" style="swimlane;fontStyle=0;childLayout=stackLayout;horizontal=1;startSize=26;fillColor=#f5f5f5;horizontalStack=0;resizeParent=1;resizeParentMax=0;resizeLast=0;collapsible=1;marginBottom=0;strokeColor=#666666;fontColor=#333333;" vertex="1" parent="1">
          <mxGeometry x="960" y="-768" width="160" height="78" as="geometry" />
        </mxCell>
        <mxCell id="djy20hKcKyLXspCbXwoC-56" value="+ b []byte" style="text;strokeColor=#666666;fillColor=#f5f5f5;align=left;verticalAlign=top;spacingLeft=4;spacingRight=4;overflow=hidden;rotatable=0;points=[[0,0.5],[1,0.5]];portConstraint=eastwest;fontColor=#333333;" vertex="1" parent="djy20hKcKyLXspCbXwoC-55">
          <mxGeometry y="26" width="160" height="26" as="geometry" />
        </mxCell>
        <mxCell id="djy20hKcKyLXspCbXwoC-57" value="+ s string" style="text;strokeColor=#666666;fillColor=#f5f5f5;align=left;verticalAlign=top;spacingLeft=4;spacingRight=4;overflow=hidden;rotatable=0;points=[[0,0.5],[1,0.5]];portConstraint=eastwest;fontColor=#333333;" vertex="1" parent="djy20hKcKyLXspCbXwoC-55">
          <mxGeometry y="52" width="160" height="26" as="geometry" />
        </mxCell>
        <mxCell id="djy20hKcKyLXspCbXwoC-58" value="" style="edgeStyle=orthogonalEdgeStyle;rounded=0;orthogonalLoop=1;jettySize=auto;html=1;entryX=0;entryY=0.103;entryDx=0;entryDy=0;entryPerimeter=0;" edge="1" parent="1" source="djy20hKcKyLXspCbXwoC-50" target="djy20hKcKyLXspCbXwoC-55">
          <mxGeometry relative="1" as="geometry" />
        </mxCell>
        <mxCell id="djy20hKcKyLXspCbXwoC-59" value="HTTPPool" style="swimlane;fontStyle=0;childLayout=stackLayout;horizontal=1;startSize=26;fillColor=#f5f5f5;horizontalStack=0;resizeParent=1;resizeParentMax=0;resizeLast=0;collapsible=1;marginBottom=0;strokeColor=#666666;fontColor=#333333;" vertex="1" parent="1">
          <mxGeometry x="160" y="-1160" width="320" height="234" as="geometry" />
        </mxCell>
        <mxCell id="djy20hKcKyLXspCbXwoC-60" value="+ Context func(*http.Request) context.Context" style="text;strokeColor=#666666;fillColor=#f5f5f5;align=left;verticalAlign=top;spacingLeft=4;spacingRight=4;overflow=hidden;rotatable=0;points=[[0,0.5],[1,0.5]];portConstraint=eastwest;fontColor=#333333;" vertex="1" parent="djy20hKcKyLXspCbXwoC-59">
          <mxGeometry y="26" width="320" height="26" as="geometry" />
        </mxCell>
        <mxCell id="djy20hKcKyLXspCbXwoC-61" value="+ Transport func(context.Context) http.RoundTripper" style="text;strokeColor=#666666;fillColor=#f5f5f5;align=left;verticalAlign=top;spacingLeft=4;spacingRight=4;overflow=hidden;rotatable=0;points=[[0,0.5],[1,0.5]];portConstraint=eastwest;fontColor=#333333;" vertex="1" parent="djy20hKcKyLXspCbXwoC-59">
          <mxGeometry y="52" width="320" height="26" as="geometry" />
        </mxCell>
        <mxCell id="djy20hKcKyLXspCbXwoC-62" value="+ self string" style="text;strokeColor=#666666;fillColor=#f5f5f5;align=left;verticalAlign=top;spacingLeft=4;spacingRight=4;overflow=hidden;rotatable=0;points=[[0,0.5],[1,0.5]];portConstraint=eastwest;fontColor=#333333;" vertex="1" parent="djy20hKcKyLXspCbXwoC-59">
          <mxGeometry y="78" width="320" height="26" as="geometry" />
        </mxCell>
        <mxCell id="djy20hKcKyLXspCbXwoC-63" value="+ opts HTTPPoolOptions" style="text;strokeColor=#666666;fillColor=#f5f5f5;align=left;verticalAlign=top;spacingLeft=4;spacingRight=4;overflow=hidden;rotatable=0;points=[[0,0.5],[1,0.5]];portConstraint=eastwest;fontColor=#333333;" vertex="1" parent="djy20hKcKyLXspCbXwoC-59">
          <mxGeometry y="104" width="320" height="26" as="geometry" />
        </mxCell>
        <mxCell id="djy20hKcKyLXspCbXwoC-64" value="+ mu          sync.Mutex" style="text;strokeColor=#666666;fillColor=#f5f5f5;align=left;verticalAlign=top;spacingLeft=4;spacingRight=4;overflow=hidden;rotatable=0;points=[[0,0.5],[1,0.5]];portConstraint=eastwest;fontColor=#333333;" vertex="1" parent="djy20hKcKyLXspCbXwoC-59">
          <mxGeometry y="130" width="320" height="26" as="geometry" />
        </mxCell>
        <mxCell id="djy20hKcKyLXspCbXwoC-65" value="+ peers       *consistenthash.Map" style="text;strokeColor=#666666;fillColor=#f5f5f5;align=left;verticalAlign=top;spacingLeft=4;spacingRight=4;overflow=hidden;rotatable=0;points=[[0,0.5],[1,0.5]];portConstraint=eastwest;fontColor=#333333;" vertex="1" parent="djy20hKcKyLXspCbXwoC-59">
          <mxGeometry y="156" width="320" height="26" as="geometry" />
        </mxCell>
        <mxCell id="djy20hKcKyLXspCbXwoC-66" value="+ httpGetters map[string]*httpGetter" style="text;strokeColor=#666666;fillColor=#f5f5f5;align=left;verticalAlign=top;spacingLeft=4;spacingRight=4;overflow=hidden;rotatable=0;points=[[0,0.5],[1,0.5]];portConstraint=eastwest;fontColor=#333333;" vertex="1" parent="djy20hKcKyLXspCbXwoC-59">
          <mxGeometry y="182" width="320" height="26" as="geometry" />
        </mxCell>
        <mxCell id="djy20hKcKyLXspCbXwoC-67" value="+ PickPeer(key string) (ProtoGetter, bool)" style="text;strokeColor=#d79b00;fillColor=#ffe6cc;align=left;verticalAlign=top;spacingLeft=4;spacingRight=4;overflow=hidden;rotatable=0;points=[[0,0.5],[1,0.5]];portConstraint=eastwest;" vertex="1" parent="djy20hKcKyLXspCbXwoC-59">
          <mxGeometry y="208" width="320" height="26" as="geometry" />
        </mxCell>
        <mxCell id="djy20hKcKyLXspCbXwoC-68" value="HTTPPoolOptions" style="swimlane;fontStyle=0;childLayout=stackLayout;horizontal=1;startSize=26;fillColor=#f5f5f5;horizontalStack=0;resizeParent=1;resizeParentMax=0;resizeLast=0;collapsible=1;marginBottom=0;strokeColor=#666666;fontColor=#333333;" vertex="1" parent="1">
          <mxGeometry x="520" y="-1160" width="200" height="104" as="geometry" />
        </mxCell>
        <mxCell id="djy20hKcKyLXspCbXwoC-69" value="+ BasePath string" style="text;strokeColor=#666666;fillColor=#f5f5f5;align=left;verticalAlign=top;spacingLeft=4;spacingRight=4;overflow=hidden;rotatable=0;points=[[0,0.5],[1,0.5]];portConstraint=eastwest;fontColor=#333333;" vertex="1" parent="djy20hKcKyLXspCbXwoC-68">
          <mxGeometry y="26" width="200" height="26" as="geometry" />
        </mxCell>
        <mxCell id="djy20hKcKyLXspCbXwoC-70" value="+ Replicas int" style="text;strokeColor=#666666;fillColor=#f5f5f5;align=left;verticalAlign=top;spacingLeft=4;spacingRight=4;overflow=hidden;rotatable=0;points=[[0,0.5],[1,0.5]];portConstraint=eastwest;fontColor=#333333;" vertex="1" parent="djy20hKcKyLXspCbXwoC-68">
          <mxGeometry y="52" width="200" height="26" as="geometry" />
        </mxCell>
        <mxCell id="djy20hKcKyLXspCbXwoC-71" value="+ HashFn consistenthash.Hash" style="text;strokeColor=#666666;fillColor=#f5f5f5;align=left;verticalAlign=top;spacingLeft=4;spacingRight=4;overflow=hidden;rotatable=0;points=[[0,0.5],[1,0.5]];portConstraint=eastwest;fontColor=#333333;" vertex="1" parent="djy20hKcKyLXspCbXwoC-68">
          <mxGeometry y="78" width="200" height="26" as="geometry" />
        </mxCell>
        <mxCell id="djy20hKcKyLXspCbXwoC-72" value="" style="edgeStyle=orthogonalEdgeStyle;rounded=0;orthogonalLoop=1;jettySize=auto;html=1;entryX=0;entryY=0.096;entryDx=0;entryDy=0;entryPerimeter=0;" edge="1" parent="1" source="djy20hKcKyLXspCbXwoC-63" target="djy20hKcKyLXspCbXwoC-68">
          <mxGeometry relative="1" as="geometry" />
        </mxCell>
        <mxCell id="djy20hKcKyLXspCbXwoC-73" value="Map" style="swimlane;fontStyle=0;childLayout=stackLayout;horizontal=1;startSize=26;fillColor=#f5f5f5;horizontalStack=0;resizeParent=1;resizeParentMax=0;resizeLast=0;collapsible=1;marginBottom=0;strokeColor=#666666;fontColor=#333333;" vertex="1" parent="1">
          <mxGeometry x="760" y="-1160" width="160" height="130" as="geometry" />
        </mxCell>
        <mxCell id="djy20hKcKyLXspCbXwoC-74" value="+ hash     Hash" style="text;strokeColor=#666666;fillColor=#f5f5f5;align=left;verticalAlign=top;spacingLeft=4;spacingRight=4;overflow=hidden;rotatable=0;points=[[0,0.5],[1,0.5]];portConstraint=eastwest;fontColor=#333333;" vertex="1" parent="djy20hKcKyLXspCbXwoC-73">
          <mxGeometry y="26" width="160" height="26" as="geometry" />
        </mxCell>
        <mxCell id="djy20hKcKyLXspCbXwoC-75" value="+ replicas int" style="text;strokeColor=#666666;fillColor=#f5f5f5;align=left;verticalAlign=top;spacingLeft=4;spacingRight=4;overflow=hidden;rotatable=0;points=[[0,0.5],[1,0.5]];portConstraint=eastwest;fontColor=#333333;" vertex="1" parent="djy20hKcKyLXspCbXwoC-73">
          <mxGeometry y="52" width="160" height="26" as="geometry" />
        </mxCell>
        <mxCell id="djy20hKcKyLXspCbXwoC-76" value="+ keys     []int " style="text;strokeColor=#666666;fillColor=#f5f5f5;align=left;verticalAlign=top;spacingLeft=4;spacingRight=4;overflow=hidden;rotatable=0;points=[[0,0.5],[1,0.5]];portConstraint=eastwest;fontColor=#333333;" vertex="1" parent="djy20hKcKyLXspCbXwoC-73">
          <mxGeometry y="78" width="160" height="26" as="geometry" />
        </mxCell>
        <mxCell id="djy20hKcKyLXspCbXwoC-77" value="+ hashMap  map[int]string" style="text;strokeColor=#666666;fillColor=#f5f5f5;align=left;verticalAlign=top;spacingLeft=4;spacingRight=4;overflow=hidden;rotatable=0;points=[[0,0.5],[1,0.5]];portConstraint=eastwest;fontColor=#333333;" vertex="1" parent="djy20hKcKyLXspCbXwoC-73">
          <mxGeometry y="104" width="160" height="26" as="geometry" />
        </mxCell>
        <mxCell id="djy20hKcKyLXspCbXwoC-78" value="Hash【func(data []byte) uint32】" style="swimlane;fontStyle=0;childLayout=stackLayout;horizontal=1;startSize=26;fillColor=#f5f5f5;horizontalStack=0;resizeParent=1;resizeParentMax=0;resizeLast=0;collapsible=1;marginBottom=0;strokeColor=#666666;fontColor=#333333;" vertex="1" parent="1">
          <mxGeometry x="960" y="-1160" width="200" height="52" as="geometry" />
        </mxCell>
        <mxCell id="djy20hKcKyLXspCbXwoC-79" value="" style="edgeStyle=orthogonalEdgeStyle;rounded=0;orthogonalLoop=1;jettySize=auto;html=1;entryX=0;entryY=0.115;entryDx=0;entryDy=0;entryPerimeter=0;" edge="1" parent="1" source="djy20hKcKyLXspCbXwoC-71" target="djy20hKcKyLXspCbXwoC-73">
          <mxGeometry relative="1" as="geometry" />
        </mxCell>
        <mxCell id="djy20hKcKyLXspCbXwoC-80" value="" style="edgeStyle=orthogonalEdgeStyle;rounded=0;orthogonalLoop=1;jettySize=auto;html=1;entryX=0;entryY=0.25;entryDx=0;entryDy=0;exitX=1;exitY=0.5;exitDx=0;exitDy=0;" edge="1" parent="1" source="djy20hKcKyLXspCbXwoC-74" target="djy20hKcKyLXspCbXwoC-78">
          <mxGeometry relative="1" as="geometry">
            <mxPoint x="730" y="-1059" as="sourcePoint" />
            <mxPoint x="770" y="-1135.0500000000002" as="targetPoint" />
          </mxGeometry>
        </mxCell>
        <mxCell id="djy20hKcKyLXspCbXwoC-81" value="" style="edgeStyle=orthogonalEdgeStyle;rounded=0;orthogonalLoop=1;jettySize=auto;html=1;entryX=-0.006;entryY=0.115;entryDx=0;entryDy=0;entryPerimeter=0;exitX=1;exitY=0.5;exitDx=0;exitDy=0;" edge="1" parent="1" source="djy20hKcKyLXspCbXwoC-65" target="djy20hKcKyLXspCbXwoC-73">
          <mxGeometry relative="1" as="geometry">
            <mxPoint x="490" y="-1033" as="sourcePoint" />
            <mxPoint x="530" y="-1140.016" as="targetPoint" />
            <Array as="points">
              <mxPoint x="740" y="-991" />
              <mxPoint x="740" y="-1145" />
            </Array>
          </mxGeometry>
        </mxCell>
        <mxCell id="djy20hKcKyLXspCbXwoC-82" value="httpGetter" style="swimlane;fontStyle=0;childLayout=stackLayout;horizontal=1;startSize=26;fillColor=#f5f5f5;horizontalStack=0;resizeParent=1;resizeParentMax=0;resizeLast=0;collapsible=1;marginBottom=0;strokeColor=#666666;fontColor=#333333;" vertex="1" parent="1">
          <mxGeometry x="520" y="-948" width="320" height="78" as="geometry" />
        </mxCell>
        <mxCell id="djy20hKcKyLXspCbXwoC-83" value="+ baseURL   string" style="text;strokeColor=#666666;fillColor=#f5f5f5;align=left;verticalAlign=top;spacingLeft=4;spacingRight=4;overflow=hidden;rotatable=0;points=[[0,0.5],[1,0.5]];portConstraint=eastwest;fontColor=#333333;" vertex="1" parent="djy20hKcKyLXspCbXwoC-82">
          <mxGeometry y="26" width="320" height="26" as="geometry" />
        </mxCell>
        <mxCell id="djy20hKcKyLXspCbXwoC-84" value="+ transport func(context.Context) http.RoundTripper" style="text;strokeColor=#666666;fillColor=#f5f5f5;align=left;verticalAlign=top;spacingLeft=4;spacingRight=4;overflow=hidden;rotatable=0;points=[[0,0.5],[1,0.5]];portConstraint=eastwest;fontColor=#333333;" vertex="1" parent="djy20hKcKyLXspCbXwoC-82">
          <mxGeometry y="52" width="320" height="26" as="geometry" />
        </mxCell>
        <mxCell id="djy20hKcKyLXspCbXwoC-85" value="" style="edgeStyle=orthogonalEdgeStyle;rounded=0;orthogonalLoop=1;jettySize=auto;html=1;entryX=0;entryY=0.25;entryDx=0;entryDy=0;" edge="1" parent="1" source="djy20hKcKyLXspCbXwoC-66" target="djy20hKcKyLXspCbXwoC-82">
          <mxGeometry relative="1" as="geometry">
            <mxPoint x="518.0799999999999" y="-964.0379999999998" as="targetPoint" />
          </mxGeometry>
        </mxCell>
        <mxCell id="djy20hKcKyLXspCbXwoC-86" value="" style="edgeStyle=orthogonalEdgeStyle;rounded=0;orthogonalLoop=1;jettySize=auto;html=1;entryX=0;entryY=0.5;entryDx=0;entryDy=0;exitX=0;exitY=0.5;exitDx=0;exitDy=0;strokeColor=#FF0000;strokeWidth=2;endArrow=block;endFill=0;" edge="1" parent="1" source="djy20hKcKyLXspCbXwoC-67" target="djy20hKcKyLXspCbXwoC-40">
          <mxGeometry relative="1" as="geometry">
            <Array as="points">
              <mxPoint x="140" y="-939" />
              <mxPoint x="140" y="-544" />
            </Array>
          </mxGeometry>
        </mxCell>
        <mxCell id="djy20hKcKyLXspCbXwoC-87" value="&lt;font color=&quot;#ff3333&quot; size=&quot;1&quot;&gt;&lt;b style=&quot;font-size: 14px&quot;&gt;LRU&lt;/b&gt;&lt;/font&gt;" style="text;html=1;strokeColor=none;fillColor=none;align=center;verticalAlign=middle;whiteSpace=wrap;rounded=0;" vertex="1" parent="1">
          <mxGeometry x="915" y="-347" width="60" height="20" as="geometry" />
        </mxCell>
        <mxCell id="djy20hKcKyLXspCbXwoC-88" value="&lt;font color=&quot;#ff3333&quot; size=&quot;1&quot;&gt;&lt;b style=&quot;font-size: 14px&quot;&gt;提供安全并发功能和基本的统计数据&lt;/b&gt;&lt;/font&gt;" style="text;html=1;strokeColor=none;fillColor=none;align=center;verticalAlign=middle;whiteSpace=wrap;rounded=0;" vertex="1" parent="1">
          <mxGeometry x="615" y="-285" width="290" height="20" as="geometry" />
        </mxCell>
        <mxCell id="djy20hKcKyLXspCbXwoC-89" value="&lt;font color=&quot;#ff3333&quot; style=&quot;font-size: 14px&quot;&gt;&lt;b&gt;提供单飞&lt;/b&gt;&lt;/font&gt;" style="text;html=1;strokeColor=none;fillColor=none;align=center;verticalAlign=middle;whiteSpace=wrap;rounded=0;" vertex="1" parent="1">
          <mxGeometry x="615" y="-159" width="120" height="20" as="geometry" />
        </mxCell>
        <mxCell id="djy20hKcKyLXspCbXwoC-90" value="&lt;font color=&quot;#ff3333&quot; size=&quot;1&quot;&gt;&lt;b style=&quot;font-size: 14px&quot;&gt;统一string与byte[]&lt;/b&gt;&lt;/font&gt;" style="text;html=1;strokeColor=none;fillColor=none;align=center;verticalAlign=middle;whiteSpace=wrap;rounded=0;" vertex="1" parent="1">
          <mxGeometry x="990" y="-794" width="130" height="20" as="geometry" />
        </mxCell>
        <mxCell id="djy20hKcKyLXspCbXwoC-91" value="&lt;font color=&quot;#ff3333&quot;&gt;&lt;span style=&quot;font-size: 14px&quot;&gt;&lt;span&gt;抽象数据容器&lt;/span&gt;&lt;/span&gt;&lt;/font&gt;" style="text;html=1;strokeColor=none;fillColor=none;align=center;verticalAlign=middle;whiteSpace=wrap;rounded=0;fontStyle=1" vertex="1" parent="1">
          <mxGeometry x="947" y="-830" width="133" height="20" as="geometry" />
        </mxCell>
        <mxCell id="djy20hKcKyLXspCbXwoC-92" value="&lt;font color=&quot;#ff3333&quot;&gt;&lt;span style=&quot;font-size: 14px&quot;&gt;&lt;span&gt;一致性哈希&lt;/span&gt;&lt;/span&gt;&lt;/font&gt;" style="text;html=1;strokeColor=none;fillColor=none;align=center;verticalAlign=middle;whiteSpace=wrap;rounded=0;fontStyle=1" vertex="1" parent="1">
          <mxGeometry x="990" y="-1056" width="133" height="20" as="geometry" />
        </mxCell>
        <mxCell id="djy20hKcKyLXspCbXwoC-93" value="&lt;font color=&quot;#ff3333&quot;&gt;&lt;span style=&quot;font-size: 14px&quot;&gt;从缓存失效后&lt;br&gt;从数据库或其他地方获取数据&lt;/span&gt;&lt;/font&gt;" style="text;html=1;strokeColor=none;fillColor=none;align=center;verticalAlign=middle;whiteSpace=wrap;rounded=0;fontStyle=1" vertex="1" parent="1">
          <mxGeometry x="360" y="-816" width="260" height="20" as="geometry" />
        </mxCell>
        <mxCell id="djy20hKcKyLXspCbXwoC-94" value="&lt;font color=&quot;#ff3333&quot;&gt;&lt;span style=&quot;font-size: 14px&quot;&gt;&lt;b&gt;访问groupcache中其他节点&lt;/b&gt;&lt;/span&gt;&lt;/font&gt;" style="text;html=1;strokeColor=none;fillColor=none;align=center;verticalAlign=middle;whiteSpace=wrap;rounded=0;" vertex="1" parent="1">
          <mxGeometry x="405" y="-600" width="230" height="20" as="geometry" />
        </mxCell>
        <mxCell id="djy20hKcKyLXspCbXwoC-95" value="&lt;font color=&quot;#ff3333&quot;&gt;&lt;span style=&quot;font-size: 14px&quot;&gt;获取远程服务器的数据&lt;/span&gt;&lt;/font&gt;" style="text;html=1;strokeColor=none;fillColor=none;align=center;verticalAlign=middle;whiteSpace=wrap;rounded=0;fontStyle=1" vertex="1" parent="1">
          <mxGeometry x="501" y="-974" width="260" height="20" as="geometry" />
        </mxCell>
      </root>
    </mxGraphModel>
  </diagram>
</mxfile>
